<svg xmlns="http://www.w3.org/2000/svg">
<defs>
<font id="ChristmasScriptC" horiz-adv-x="450" >
  <font-face 
    font-family="Christmas ScriptC"
    font-weight="400"
    font-stretch="normal"
    units-per-em="2048"
    panose-1="2 11 6 3 5 3 2 2 2 4"
    ascent="1638"
    descent="-410"
    x-height="901.496"
    cap-height="1677"
    bbox="-662.462 -708.869 2311 2037.72"
    underline-thickness="0"
    underline-position="0"
    unicode-range="U+0020-U+2116"
  />
<missing-glyph horiz-adv-x="2048" 
d="M853 371l-162.002 -15.999l162 -18v-35l-84 -5c-5.33301 0 -10.333 -0.333008 -15 -1h-13h-14v-1c6 -0.666992 12.333 -1.33398 19 -2.00098s13.334 -1 20.001 -1l87 -8v-34l-162 -16l162 -18v-35l-84 -5c-2 -0.666992 -7 -1 -15 -1c-4 0 -8.33301 -0.166992 -13 -0.5
s-9.33398 -0.5 -14.001 -0.5v-1c8.66699 0 21.667 -0.666992 39 -2l87 -8v-34l-183 -19v30l95 6c2.66699 0 5.66699 0.166992 9 0.5s7 0.5 11 0.5h10.5h12.5v1c-16 0 -31 1 -45 3h-2.5c-0.333008 0 -30.5 2.33301 -90.5 7v32l95 6h15c6.66699 0.666992 16 1 28 1v1
c-7.33301 0 -14.5 0.166992 -21.5 0.5s-13.833 0.833008 -20.5 1.5c-2 0.666992 -4 1 -6 1l-90 6v24v5v26l95 5c4 0.666992 10.667 1 20 1h10.5h12.5v2c-11.333 0 -26.333 0.666992 -45 2h-2.5c-0.333008 0 -30.5 2.66699 -90.5 8v31l95 6c4 0 9 0.333008 15 1h14h14v2
c-9.33301 0 -23.333 0.666992 -42 2h-4.5c-1 0 -31.5 2 -91.5 6v25v4v26l95 6c8 0 14.667 0.333008 20 1h10.5h12.5v1c-11.333 0 -26.333 0.666992 -45 2h-2.5c-0.333008 0 -30.5 2.66699 -90.5 8v31l95 6c5.33301 0.666992 10.333 1 15 1s9.33398 0.166992 14.001 0.5
s9.33398 0.5 14.001 0.5v1c-7.33301 0 -14.5 0.166992 -21.5 0.5s-13.833 0.833008 -20.5 1.5c-2 0 -3.5 0.166992 -4.5 0.5s-31.5 2.5 -91.5 6.5v29l183 -21v-34l-84 -6h-6.5h-8.5c-5.33301 -0.666992 -14.333 -1 -27 -1v-1l126 -10v-35zM852.998 479.001h-47v31h47v-31z
M814.998 591.001c13.333 0 24 -2.99902 32 -8.99902c6.66699 -6 10 -14.667 10 -26c0 -12 -3.66699 -20.667 -11 -26c-7.33301 -6 -17.333 -9 -30 -9h-34v30h34c4.66699 0 7.66699 0.333008 9 1c1.33301 1.33301 2 2.66602 2 3.99902s-0.666992 2.66602 -2 3.99902

<glyph glyph-name=".notdef" horiz-adv-x="2048" 
d="M853 371l-162.002 -15.999l162 -18v-35l-84 -5c-5.33301 0 -10.333 -0.333008 -15 -1h-13h-14v-1c6 -0.666992 12.333 -1.33398 19 -2.00098s13.334 -1 20.001 -1l87 -8v-34l-162 -16l162 -18v-35l-84 -5c-2 -0.666992 -7 -1 -15 -1c-4 0 -8.33301 -0.166992 -13 -0.5
s-9.33398 -0.5 -14.001 -0.5v-1c8.66699 0 21.667 -0.666992 39 -2l87 -8v-34l-183 -19v30l95 6c2.66699 0 5.66699 0.166992 9 0.5s7 0.5 11 0.5h10.5h12.5v1c-16 0 -31 1 -45 3h-2.5c-0.333008 0 -30.5 2.33301 -90.5 7v32l95 6h15c6.66699 0.666992 16 1 28 1v1
c-7.33301 0 -14.5 0.166992 -21.5 0.5s-13.833 0.833008 -20.5 1.5c-2 0.666992 -4 1 -6 1l-90 6v24v5v26l95 5c4 0.666992 10.667 1 20 1h10.5h12.5v2c-11.333 0 -26.333 0.666992 -45 2h-2.5c-0.333008 0 -30.5 2.66699 -90.5 8v31l95 6c4 0 9 0.333008 15 1h14h14v2
c-9.33301 0 -23.333 0.666992 -42 2h-4.5c-1 0 -31.5 2 -91.5 6v25v4v26l95 6c8 0 14.667 0.333008 20 1h10.5h12.5v1c-11.333 0 -26.333 0.666992 -45 2h-2.5c-0.333008 0 -30.5 2.66699 -90.5 8v31l95 6c5.33301 0.666992 10.333 1 15 1s9.33398 0.166992 14.001 0.5
s9.33398 0.5 14.001 0.5v1c-7.33301 0 -14.5 0.166992 -21.5 0.5s-13.833 0.833008 -20.5 1.5c-2 0 -3.5 0.166992 -4.5 0.5s-31.5 2.5 -91.5 6.5v29l183 -21v-34l-84 -6h-6.5h-8.5c-5.33301 -0.666992 -14.333 -1 -27 -1v-1l126 -10v-35zM852.998 479.001h-47v31h47v-31z
M814.998 591.001c13.333 0 24 -2.99902 32 -8.99902c6.66699 -6 10 -14.667 10 -26c0 -12 -3.66699 -20.667 -11 -26c-7.33301 -6 -17.333 -9 -30 -9h-34v30h34c4.66699 0 7.66699 0.333008 9 1c1.33301 1.33301 2 2.66602 2 3.99902s-0.666992 2.66602 -2 3.99902
c-1.33301 0.666992 -4.33301 1 -9 1h-16c-7.33301 0 -16.666 -4.66699 -27.999 -14c-5.33301 -8 -7 -10 -5 -6c-16.667 -13.333 -32.334 -20 -47.001 -20h-16c-12 0 -21.333 3 -28 9c-6.66699 5.33301 -10 14 -10 26c0 11.333 3.33301 20 10 26s16.667 9 30 9h28v-30h-29
c-4 0 -6.66699 -0.333008 -8 -1c-2 -1.33301 -3 -2.66602 -3 -3.99902c0 -2 1 -3.33301 3 -4c1.33301 -0.666992 4 -1 8 -1h10c9.33301 0 18.333 4.66699 27 14c2 1.33301 4 3 6 5c10 10 18 16 24 18c4.66699 2 12 3 22 3h21zM852.998 600.002h-183v30h183v-30z
M812.998 680.002l-0.000976562 -1c4.66699 -2 9.66699 -4.66699 15 -8c3.33301 -4.66699 5 -9 5 -13c0 -6.66699 -2.33301 -11.334 -7 -14.001c-6 -3.33301 -14 -5 -24 -5h-107c-8.66699 0 -15.667 1.66699 -21 5c-4.66699 2.66699 -7 7.33398 -7 14.001
c0 4.66699 1.33301 9 4 13c2.66699 2.66699 7.66699 5.66699 15 9h-16v30h172c19.333 0 32.666 -3 39.999 -9c8 -5.33301 12 -14.333 12 -27c0 -10 -3.66699 -18.667 -11 -26c-7.33301 -6 -17.666 -9 -30.999 -9h-13v30h14c4.66699 0 7.33398 0.333008 8.00098 1
c2 0.666992 3 2 3 4c0 1.33301 -1 3 -3 5c-0.666992 0 -1.66699 0.166992 -3 0.5s-3 0.5 -5 0.5h-40zM788.997 669.002c4.66699 0 7.66699 0.333008 9 1c1.33301 1.33301 2 2.66602 2 3.99902s-0.666992 2.66602 -2 3.99902c-2.66699 1.33301 -5.66699 2 -9 2h-79
c-4 0 -6.66699 -0.666992 -8 -2c-2 -1.33301 -3 -2.66602 -3 -3.99902s0.666992 -2.66602 2 -3.99902c1.33301 -0.666992 4.33301 -1 9 -1h79zM852.997 719.002h-183v30h16c-7.33301 2.66699 -12.333 5.66699 -15 9s-4 7.33301 -4 12c0 7.33301 2.66699 12.333 8 15
c5.33301 3.33301 13 5 23 5h155v-30h-142c-2 0 -3.83301 -0.166992 -5.5 -0.5s-3 -0.833008 -4 -1.5s-1.5 -2 -1.5 -4s1 -3.33301 3 -4c0.666992 0 1.66699 -0.166992 3 -0.5s3 -0.5 5 -0.5h142v-30zM852.997 804.002l-154 0.000976562v-7h-29v7h-17
c-9.33301 0 -16.333 2 -21 6c-4.66699 3.33301 -7 9 -7 17v17h28c0 -2.66699 0.666992 -5.33398 2 -8.00098c1.33301 -1.33301 3.33301 -2 6 -2h9v10h29v-10h154v-30zM717.997 848.003c-18.667 0 -32.001 3 -40.001 9c-8 4.66699 -12 13.667 -12 27c0 12 4 21 12 27
c8 5.33301 21.333 8 40 8h87c18.667 0 32 -2.66699 40 -8c8 -6 12 -15 12 -27c0 -13.333 -4 -22.333 -12 -27c-7.33301 -6 -20.666 -9 -39.999 -9h-87zM704.996 879.003l110.999 0.000976562c4.66699 0 7.66699 0.333008 9 1c1.33301 1.33301 2 2.66602 2 3.99902
s-0.666992 2.66602 -2 3.99902c-1.33301 0.666992 -4.33301 1 -9 1h-111c-4 0 -6.66699 -0.333008 -8 -1c-2 -1.33301 -3 -2.66602 -3 -3.99902c0 -2 1 -3.33301 3 -4c0.666992 -0.666992 3.33398 -1 8.00098 -1zM852.995 929.004l-183 -0.000976562v29h16
c-7.33301 2.66699 -12.333 5.66699 -15 9s-4 7.66602 -4 12.999c0 6.66699 2.66699 11.334 8 14.001c4 3.33301 11.667 5 23 5h155v-30h-142c-4.66699 0 -7.33398 -0.333008 -8.00098 -1c-2 -1.33301 -3 -2.66602 -3 -3.99902c0 -2 1 -3.33301 3 -4
c2.66699 -1.33301 5.33398 -2 8.00098 -2h142v-29zM698.995 1004h-29.001v8h-34v30h34v8h29v-8h111c6.66699 0 10.334 0.333008 11.001 1c1.33301 0.666992 2 2.66699 2 6v1h30v-18c0 -8 -2.33301 -13.333 -7 -16c-4 -2.66699 -12.333 -4 -25 -4h-122v-8zM814.994 1125
c13.333 0 23.666 -3 30.999 -9s11 -14.667 11 -26c0 -12 -3.66699 -20.667 -11 -26c-7.33301 -6 -17.333 -9 -30 -9h-34v29h34c3.33301 0 6.33301 0.666992 9 2c1.33301 0 2 1.33301 2 4c0 1.33301 -0.666992 2.66602 -2 3.99902c-1.33301 0.666992 -4.33301 1 -9 1h-16
c-8 0 -17.333 -5 -28 -15l-3.5 -3.5c-1 -1 -5.33301 -4.83301 -13 -11.5s-19.5 -10 -35.5 -10h-16c-12 0 -21.333 3 -28 9c-6.66699 5.33301 -10 14 -10 26c0 11.333 3.33301 20 10 26s16.667 9 30 9h28v-30h-29c-4 0 -6.66699 -0.333008 -8 -1
c-2 -1.33301 -3 -2.66602 -3 -3.99902c0 -2.66699 1 -4 3 -4c2.66699 -1.33301 5.33398 -2 8.00098 -2h10c8.66699 0 17.667 5 27 15c2 1.33301 4 3 6 5c10 9.33301 18 15 24 17c4 2.66699 11.333 4 22 4h21zM852.994 1135h-47v32h47v-32zM804.994 1178h-87.001
c-20.667 0 -34 2.66699 -40 8c-8 4.66699 -12 13.667 -12 27c0 10.667 3.33301 19.334 10 26.001c6.66699 6 16.334 9 29.001 9h29v-30h-29c-4 0 -6.66699 -0.333008 -8 -1c-2 -1.33301 -3 -2.66602 -3 -3.99902c0 -2 1 -3.33301 3 -4c1.33301 -0.666992 4 -1 8 -1h111
c4.66699 0 7.66699 0.333008 9 1c1.33301 1.33301 2 2.66602 2 3.99902s-0.666992 2.66602 -2 3.99902c-1.33301 0.666992 -4.33301 1 -9 1h-34v30h34c12.667 0 23 -3 31 -9c6.66699 -6 10 -14.667 10 -26c0 -13.333 -4 -22.333 -12 -27c-6.66699 -5.33301 -20 -8 -40 -8z
M717.993 1256c-18.667 0 -32 2.66699 -40 8c-8 6 -12 15 -12 27c0 12.667 4 22 12 28c8 5.33301 21.333 8 40 8h87c18.667 0 32 -2.66699 40 -8c8 -6 12 -15.333 12 -28c0 -12 -4 -21 -12 -27c-8 -5.33301 -21.333 -8 -40 -8h-87zM704.993 1286l111 0.000976562
c3.33301 0 6.33301 0.666992 9 2c1.33301 0 2 1.33301 2 4c0 1.33301 -0.666992 2.66602 -2 3.99902c-1.33301 0.666992 -4.33301 1 -9 1h-111c-4 0 -6.66699 -0.333008 -8 -1c-2 -1.33301 -3 -3 -3 -5s1 -3 3 -3c1.33301 -1.33301 4 -2 8 -2zM852.993 1336
l-183.001 0.000976562v29h16v1c-7.33301 2 -12.333 5 -15 9c-2.66699 2.66699 -4 6.66699 -4 12s1.33301 9.33301 4 12c3.33301 2.66699 8.33301 5 15 7c-7.33301 2.66699 -12.333 5.66699 -15 9s-4 7.66602 -4 12.999c0 6 2.33301 10.667 7 14
c5.33301 3.33301 13.333 5 24 5h155v-30h-142c-2 0 -3.83301 -0.166992 -5.5 -0.5s-3 -0.833008 -4 -1.5s-1.5 -2 -1.5 -4s1 -3 3 -3c2.66699 -1.33301 5.33398 -2 8.00098 -2h142v-29h-142c-2 0 -3.83301 -0.166992 -5.5 -0.5s-3 -0.833008 -4 -1.5s-1.5 -2 -1.5 -4
s1 -3.33301 3 -4c1.33301 -0.666992 4 -1 8 -1h142v-30zM27.9922 276.005c-3.33301 -4.66699 -4.33203 -13.3369 -2.99902 -26.0039c0.666992 -15.333 3.33398 -28.333 8.00098 -39c4 -11.333 11.333 -22 22 -32c9.33301 -8.66699 21 -11 35 -7
c8.66699 0 26.334 -2 53.001 -6c7.33301 -1.33301 15.166 -2.5 23.499 -3.5s17.5 -2.16699 27.5 -3.5l28.5 -4c9.66699 -1.33301 19.5 -2.33301 29.5 -3c26.667 -4 46.667 -6.66699 60 -8c10 -1.33301 19.5 -2.66602 28.5 -3.99902s17.833 -2 26.5 -2
c38 -3.33301 61 -4 69 -2c6.66699 0.666992 13.667 5.33398 21 14.001c7.33301 8 13 16.667 17 26c3.33301 10 4.66602 18.333 3.99902 25c-1.33301 6.66699 -6 10.667 -14 12h-13.5h-12.5c-4 0 -8 0.166992 -12 0.5s-8 0.5 -12 0.5c-6.66699 0 -11.334 1.33301 -14.001 4
c-6.66699 8.66699 -10 16.334 -10 23.001c0 2 3 3.66699 9 5c13.333 0.666992 27.666 2.33398 42.999 5.00098c12 2 20.667 4 26 6c7.33301 2.66699 11.666 8.66699 12.999 18c0.666992 7.33301 -0.666016 16.333 -3.99902 27c-2.66699 7.33301 -8 15.333 -16 24
c-7.33301 6.66699 -15.333 9 -24 7c-32 -6.66699 -67.667 -12.667 -107 -18l-29 -4c-9.33301 -1.33301 -18.666 -2.33301 -27.999 -3l-55 -6c-47.333 -4.66699 -78.333 -7 -93 -7c-24 -2 -40.333 -3 -49 -3c-10.667 0 -20 -1.33301 -28 -4
c-10 -3.33301 -16.667 -7.33301 -20 -12zM317.993 239.002c6.66699 0 10.002 -0.667969 10.002 -2.00098c0.666992 -4 3 -9.33301 7 -16c2.66699 -3.33301 0 -4.33301 -8 -3c-23.333 0.666992 -48.333 2.66699 -75 6c-8.66699 0.666992 -13.334 2.33398 -14.001 5.00098
c-1.33301 2.66699 3 4.66699 13 6c5.33301 0 10.666 0.166992 15.999 0.5s11 0.833008 17 1.5c8 0 19.333 0.666992 34 2zM135.995 450.001c-14 -22 3.33398 -36.332 52.001 -42.999c1.33301 0 2.66602 -0.166992 3.99902 -0.5s2.33301 -0.5 3 -0.5
c0.666992 -1.33301 -1.66602 -2 -6.99902 -2c-17.333 0 -27.666 -1.33301 -30.999 -4c-4 -2.66699 -7.33301 -7.66699 -10 -15c-2.66699 -6 -3.33398 -12.333 -2.00098 -19c0.666992 -8 3.33398 -15 8.00098 -21c3.33301 -5.33301 9.66602 -9.66602 18.999 -12.999
c8 -2 18.667 -1 32 3c4.66699 2 18.334 3 41.001 3c10.667 -0.666992 22.167 -1.16699 34.5 -1.5s25.5 -0.5 39.5 -0.5c35.333 0 62 0.333008 80 1c24.667 0.666992 44.334 3.33398 59.001 8.00098c6 1.33301 11.333 6 16 14c3.33301 5.33301 5 12.666 5 21.999
c0 7.33301 -2 14 -6 20c-6 5.33301 -12.667 7.66602 -20 6.99902c-10.667 0 -25.334 -0.666992 -44.001 -2c-7.33301 0 -14.5 -0.166992 -21.5 -0.5s-13.5 -0.5 -19.5 -0.5c-22 -1.33301 -46 -1 -72 1c-18.667 0.666992 -28.334 2.66699 -29.001 6
c-1.33301 3.33301 1 7.33301 7 12c-4.66699 -4 1.66602 0.333008 18.999 13c6.66699 3.33301 9.66699 7.33301 9 12c-2 3.33301 -10.667 7.66602 -26 12.999c-15.333 4.66699 -32 7.66699 -50 9c-15.333 1.33301 -33 1 -53 -1c-18 -3.33301 -30.333 -10 -37 -20z
M97.9961 563.002c-9.33301 2 -15.666 0.334961 -18.999 -4.99805c-5.33301 -5.33301 -7.33301 -12 -6 -20c0 -6.66699 3.33301 -14.334 10 -23.001s17 -13.667 31 -15c8.66699 -2 15.334 -3 20.001 -3c5.33301 0 9 -0.333008 11 -1
c3.33301 -1.33301 5.66602 -4.33301 6.99902 -9c0.666992 -4.66699 2 -7.66699 4 -9c2.66699 -3.33301 9 -5.33301 19 -6c8.66699 -1.33301 18.667 -0.666016 30 2.00098c15.333 2.66699 26.333 7 33 13c1.33301 1.33301 3 2 5 2c17.333 0 31.666 -0.333008 42.999 -1h25h27
c32 1.33301 55.333 2.66602 70 3.99902c24 2.66699 42.333 7.33398 55 14.001c17.333 8.66699 25 20.667 23 36c-3.33301 11.333 -9.33301 21.666 -18 30.999c-10 10.667 -19 17 -27 19c-6.66699 1.33301 -13.667 1.66602 -21 0.999023c-6.66699 -2 -10 -4.66699 -10 -8
c1.33301 -2.66699 2.66602 -7.33398 3.99902 -14.001c2 -4.66699 -4 -7 -18 -7c-16 -1.33301 -42 -2.66602 -78 -3.99902c-19.333 -0.666992 -45.666 -1 -78.999 -1c-6 0 -9 1.66699 -9 5c-3.33301 9.33301 -6.33301 15 -9 17c-8 4.66699 -22 6.66699 -42 6
c-6 0 -14.333 -1.33301 -25 -4c-7.33301 -2.66699 -12.333 -6 -15 -10c0 0.666992 -0.666992 -2.33301 -2 -9c0 -2.66699 -2 -4 -6 -4c-9.33301 -2 -20.333 -1 -33 3zM248.996 639.004c5.33301 0.666992 9 0.336914 11 -0.996094c10.667 -14 30.667 -24.333 60 -31
c16.667 -3.33301 33.334 -5 50.001 -5c17.333 0 36.666 2 57.999 6c20.667 4.66699 35.334 12 44.001 22c9.33301 9.33301 14 20 14 32c0.666992 11.333 -2.33301 23.666 -9 36.999c-7.33301 12 -17.333 22.667 -30 32c-2.66699 2 -2.33398 4 0.999023 6l7.5 5.5l7.5 5.5
c6.66699 5.33301 11 9 13 11c4 2.66699 4.33301 6.66699 1 12c-3.33301 3.33301 -8.33301 6.66602 -15 9.99902s-12.334 5 -17.001 5c-6 0 -9.33301 -2.66699 -10 -8c0 -2.66699 -8.33301 -8.66699 -25 -18c-3.33301 -2 -7.66602 -2 -12.999 0
c-12.667 5.33301 -27 10 -43 14c-16.667 2 -29.334 2.33301 -38.001 1c-10 -2 -19.667 -5 -29 -9c-10.667 -6.66699 -17.334 -11.334 -20.001 -14.001c-6 -6 -9.33301 -10.333 -10 -13c-2 -4 -1 -6.33301 3 -7c23.333 -5.33301 43 -10.666 59 -15.999
c4.66699 -2 5.66699 -4 3 -6c-9.33301 -5.33301 -16.333 -9 -21 -11c-5.33301 -4 -11.666 -7.33301 -18.999 -10c-9.33301 -4.66699 -21.333 -8.33398 -36 -11.001c-12.667 -2 -23 -1.33301 -31 2c-7.33301 3.33301 -13 8.33301 -17 15c-8 12.667 -8 26.667 0 42
c0.666992 2 -3.66602 3.66699 -12.999 5c-6 0 -18.333 -0.666992 -37 -2c-8.66699 -0.666992 -24 -2.33398 -46 -5.00098c-5.33301 -0.666992 -19 -3 -41 -7c-20 -5.33301 -30.667 -15.666 -32 -30.999c-2.66699 -16.667 4.33301 -32 21 -46
c7.33301 -8 17.333 -14.333 30 -19c10 -5.33301 24.333 -9 43 -11c18 -2.66699 37 -2.33398 57 0.999023c19.333 1.33301 42.333 7 69 17zM303.996 658.007c10 4 19.834 8.16699 29.501 12.5s19.167 9.16602 28.5 14.499c4 2 6.66699 1.66699 8 -1
c5.33301 -8 7.33301 -15.333 6 -22c-2 -7.33301 -6.33301 -12.666 -13 -15.999c-10 -4 -19.333 -5.33301 -28 -4c-10 0 -20.667 3.66699 -32 11c-2.66699 1.33301 -2.33398 3 0.999023 5zM186.997 968.007c-1.33301 4 -8.32812 6.00293 -20.9951 6.00293
c-15.333 0 -31 -1.33301 -47 -4c-22.667 -4 -39.334 -7.66699 -50.001 -11c-18.667 -6 -30 -10.667 -34 -14c-4.66699 -4 -7.33398 -11.667 -8.00098 -23c-1.33301 -10.667 1 -23.667 7 -39s14.667 -28.333 26 -39c13.333 -13.333 26.666 -22.666 39.999 -27.999
c16 -7.33301 34.333 -12.333 55 -15c19.333 -4 39 -5 59 -3c42.667 4 73 15.667 91 35c8.66699 9.33301 14.667 19.666 18 30.999c3.33301 12 7.66602 22.667 12.999 32c2 4 6.33301 6.66699 13 8c5.33301 0 9 -2.66699 11 -8
c1.33301 -7.33301 1.66602 -13.666 0.999023 -18.999c-0.666992 -4.66699 -2.33398 -12.334 -5.00098 -23.001c-4 -10.667 -7.33301 -18.334 -10 -23.001c-6 -8 -11 -13.667 -15 -17c-4.66699 -4 4 -7.33301 26 -10c6.66699 -0.666992 18 -1 34 -1c14 0.666992 28 3 42 7
c14 3.33301 26 12.666 36 27.999c8 14.667 11.333 30.334 10 47.001c-1.33301 17.333 -6.66602 34 -15.999 50c-10 13.333 -27.333 25.666 -52 36.999c-24 9.33301 -53.333 12.666 -88 9.99902c-28.667 -3.33301 -50 -11.333 -64 -24c-5.33301 -6 -9.33301 -12 -12 -18
c-5.33301 -12 -8 -18.333 -8 -19c-4 -13.333 -5.66699 -19.333 -5 -18c-0.666992 -4 -3 -8.66699 -7 -14c-3.33301 -6 -8 -6.33301 -14 -1s-11.333 15.333 -16 30c-2 5.33301 -4 13 -6 23c-2.66699 10.667 -4 19.667 -4 27zM168.002 1043.01
c-2 -7.33301 -2 -13.6641 0 -18.9971c0.666992 -8 3.66699 -15 9 -21c3.33301 -6.66699 9.33301 -11.334 18 -14.001c7.33301 -2.66699 16.333 -1 27 5c2.66699 1.33301 14.667 1.66602 36 0.999023c10 0 21 0.166992 33 0.5s25 0.5 39 0.5
c34.667 0 60.334 0.333008 77.001 1c25.333 0.666992 42.666 2.66699 51.999 6c6.66699 1.33301 11.667 6 15 14c3.33301 7.33301 5 14.666 5 21.999s-2 14 -6 20c-4 5.33301 -10.333 8 -19 8c-29.333 -2 -57 -3 -83 -3h-37h-32c-25.333 0 -42.666 0.333008 -51.999 1
c-6.66699 0 -12.334 0.166992 -17.001 0.5s-8 0.5 -10 0.5c-24 0 -38 -1.66699 -42 -5c-6 -4 -10.333 -10 -13 -18zM86.002 992.012c4.66699 -4.66699 13.333 -6.33301 26 -5c10.667 0.666992 20.667 3 30 7c5.33301 1.33301 9.66602 6.33301 12.999 15
c2 8.66699 2.66699 16.667 2 24c-2.66699 8 -5.66699 15.667 -9 23c-5.33301 6 -12 9.66699 -20 11h-29.5c-1 0 -2.5 -0.166992 -4.5 -0.5s-3.66699 -0.5 -5 -0.5c-2 0 -3.66699 -0.166992 -5 -0.5s-2.33301 -0.5 -3 -0.5c-2.66699 0 -6 -3 -10 -9
c-3.33301 -6 -5 -12.333 -5 -19c-1.33301 -7.33301 -0.333008 -15.333 3 -24c2.66699 -8 8.33398 -15 17.001 -21zM170.001 1222.01c0 -2 0.666992 -6.33496 2 -13.002s2.66602 -12 3.99902 -16c2 -3.33301 2 -5.33301 0 -6l-8 -4c-24.667 -16 -34 -31.667 -28 -47
c5.33301 -14.667 24 -28 56 -40c32.667 -12 70 -18.333 112 -19c44.667 -1.33301 86.667 4.33398 126 17.001c8.66699 1.33301 15.334 4 20.001 8c22.667 14 29.667 28.667 21 44c-4.66699 10 -16.667 18.667 -36 26c-4 2 -3.33301 3 2 3
c12.667 1.33301 30 1.66602 52 0.999023c18.667 -1.33301 29.667 -5.66602 33 -12.999c2.66699 -8 -4.33301 -21 -21 -39c-9.33301 -10.667 -11.666 -18 -6.99902 -22c5.33301 -4.66699 13 -7.33398 23 -8.00098c15.333 -1.33301 29 2 41 10
c8.66699 6.66699 16.667 17.334 24 32.001c4 11.333 5.66699 25 5 41c-2 14 -6 26.667 -12 38c-8 10.667 -27 19.334 -57 26.001l-47 5c-8.66699 0.666992 -17.334 1.16699 -26.001 1.5s-17.667 0.833008 -27 1.5c-24.667 0 -43.334 -0.333008 -56.001 -1
c-10 0 -19.5 -0.166992 -28.5 -0.5s-17.833 -0.5 -26.5 -0.5c-8.66699 -0.666992 -17.167 -1.16699 -25.5 -1.5s-16.166 -0.5 -23.499 -0.5c-8 0 -15.333 -0.166992 -22 -0.5s-13 -0.5 -19 -0.5c-26 0 -41 -1.66699 -45 -5s-6 -9 -6 -17zM417.001 1153.01
c-1.33301 -4 -8.66797 -6.66602 -22.001 -7.99902c-18.667 -1.33301 -33.667 -2 -45 -2c-18 0 -33.667 1.33301 -47 4c-14.667 2 -23 5.66699 -25 11c-2 2.66699 -0.666992 5.66699 4 9c5.33301 3.33301 13 5 23 5c10.667 0 20.334 -0.333008 29.001 -1
c8 -0.666992 20.667 -1.66699 38 -3c16 -2.66699 27 -5 33 -7c8.66699 -2.66699 12.667 -5.33398 12 -8.00098zM147.999 1311.01c-2 -7.33301 -2.32812 -13.668 -0.995117 -19.001c0.666992 -8 3 -14.667 7 -20c5.33301 -7.33301 11.666 -11.666 18.999 -12.999
c8 -2.66699 19 -2 33 2c2.66699 1.33301 16 2 40 2c14 0 25.333 -0.333008 34 -1c16.667 0 29.334 -0.333008 38.001 -1h20h21c18 0 31 0.333008 39 1c27.333 0.666992 47.666 3.66699 60.999 9c7.33301 2 12.666 6.66699 15.999 14c4 6.66699 6 14 6 22
c0 6.66699 -2.33301 13 -7 19s-11.334 8.66699 -20.001 8c-8 -0.666992 -15.5 -1.16699 -22.5 -1.5s-13.833 -0.5 -20.5 -0.5h-21h-19h-18h-18h-17h-16c-8.66699 0 -13.667 1.33301 -15 4c-4 2.66699 -4.33301 6 -1 10c2 3.33301 6 5 12 5
c21.333 0 37.666 -0.333008 48.999 -1c8 0 16 -0.166992 24 -0.5s16 -0.5 24 -0.5c7.33301 0 14.5 0.166992 21.5 0.5s13.5 0.5 19.5 0.5c14.667 0.666992 24.667 2.33398 30 5.00098c7.33301 2 12.666 6.66699 15.999 14s4.66602 15.333 3.99902 24
c0 6.66699 -2.66699 14 -8 22c-5.33301 6 -12.666 9 -21.999 9c-8 0 -15 -1.33301 -21 -4c-8 -2 -16.333 -3 -25 -3h-22h-22c-8 0 -16 0.166992 -24 0.5s-15.667 0.5 -23 0.5c-8 0 -15.833 -0.166992 -23.5 -0.5s-15.167 -0.5 -22.5 -0.5h-21h-19
c-24 0 -43.333 -2.66699 -58 -8c-13.333 -4.66699 -22 -11 -26 -19s-3.66699 -16.667 1 -26c4 -8.66699 12.333 -17.334 25 -26.001c2.66699 -3.33301 2.33398 -5.33301 -0.999023 -6c-14.667 -4.66699 -23.334 -11.667 -26.001 -21zM0.00390625 1452.01h600v-1347h-600
v1347z" />
    <glyph glyph-name="space" unicode=" " horiz-adv-x="390" 
 />
    <glyph glyph-name="exclam" unicode="!" horiz-adv-x="381" 
d="M218 358c8.66699 13.333 19.666 14.6689 32.999 4.00195c59.333 -50.667 92.333 -84 99 -100s2.33398 -32.333 -12.999 -49c-11.333 -12.667 -25.5 -27.334 -42.5 -44.001s-33.5 -38.667 -49.5 -66c-12 -22.667 -22 -24.334 -30 -5.00098c-22 52 -58.333 88.333 -109 109
c-11.333 4 -13 13.5 -5 28.5s18 27.5 30 37.5l51 43c14 12 26 26 36 42zM318.999 1583c-0.666992 -14 -1.83398 -35.501 -3.50098 -64.501s-3.5 -63.5 -5.5 -103.5s-4 -84.167 -6 -132.5l-6 -150.5c-3.33301 -116.667 -5 -221.667 -5 -315
c-1.33301 -102 1.33398 -189.333 8.00098 -262c2 -24 -12 -46.5 -42 -67.5s-55 -41.5 -75 -61.5s-28.333 -19.333 -25 2c6 55.333 9.66699 110.5 11 165.5s2.16602 109.5 2.49902 163.5s-2.16699 153.667 -7.5 299c-5.33301 100.667 -11.166 176.334 -17.499 227.001
s-13.5 89 -21.5 115s-15.833 41.667 -23.5 47s-10.667 11.833 -9 19.5s11.5 13.167 29.5 16.5c30 9.33301 57.333 21.5 82 36.5s47 30.833 67 47.5c20.667 18 34 27.667 40 29c4.66699 0 7 -3.66699 7 -11z" />
    <glyph glyph-name="quotedbl" unicode="&#x22;" horiz-adv-x="615" 
d="M222 1540c8 12 18.998 13.334 32.998 4.00098c66 -48 86.333 -101.833 61 -161.5s-69.666 -128.834 -132.999 -207.501c-12.667 -16 -24.667 -32.5 -36 -49.5s-24 -34.167 -38 -51.5c-8 -10 -17 -12.167 -27 -6.5s-14 11.5 -12 17.5c2.66699 8 26.834 39.167 72.501 93.5
s58.5 103.5 38.5 147.5c-12.667 28 -36 49 -70 63c-11.333 4 -13 13.333 -5 28s18 27 30 37l50.5 44c13.667 12 25.5 26 35.5 42zM452.998 1540c7.33301 12.667 18.335 14.001 33.002 4.00098c65.333 -48 85.166 -101.833 59.499 -161.5s-69.834 -128.834 -132.501 -207.501
c-12.667 -16 -24.667 -32.5 -36 -49.5s-24 -34.167 -38 -51.5c-8 -10 -16.833 -12.167 -26.5 -6.5s-13.5 11.5 -11.5 17.5c2 8 25.833 39.167 71.5 93.5s58.5 103.5 38.5 147.5c-12.667 28 -36 49 -70 63c-11.333 4 -13 13.333 -5 28s18 27 30 37l51 44c14 12 26 26 36 42z
" />
    <glyph glyph-name="numbersign" unicode="#" horiz-adv-x="1621" 
d="M1198 1286c-46 -55.333 -96.667 -100.333 -152 -135c-22 -14 -56 -28.833 -102 -44.5s-94.333 -36.5 -145 -62.5c-59.333 -29.333 -109.666 -63.666 -150.999 -102.999c-80 -78 -132 -131.833 -156 -161.5s-44.333 -52.5 -61 -68.5c-22 -20.667 -28 -23.334 -18 -8.00098
s17.667 26 23 32c33.333 38 58 86.333 74 145c11.333 47.333 16 89.833 14 127.5s-3 58.5 -3 62.5c-0.666992 12.667 1 20.167 5 22.5s7.66699 -3.5 11 -17.5c16 -66 49.667 -78 101 -36c26 22 49.833 53.167 71.5 93.5s32.5 74.5 32.5 102.5
c7.33301 0.666992 10.666 -2 9.99902 -8c-8 -69.333 -4.16699 -109.166 11.5 -119.499s36.167 -4.83301 61.5 16.5c31.333 26 64 64.5 98 115.5s56.667 87.833 68 110.5c5.33301 11.333 9.83301 15.666 13.5 12.999s4.16699 -7.66699 1.5 -15
c-24.667 -58 -32.5 -96 -23.5 -114s25.5 -25 49.5 -21s51 15 81 33s54 34.667 72 50c46 39.333 50.333 36 13 -10zM1487 603c-52 -14 -98.8311 -18.502 -140.498 -13.502s-80.5 15.5 -116.5 31.5c-26 10 -51 22.167 -75 36.5l-72 43.5c-26 16 -52.833 31.333 -80.5 46
s-56.5 27 -86.5 37c-50 16.667 -108 23 -174 19c-84.667 -6 -146 -23.667 -184 -53c-14 -11.333 -20.667 -18.333 -20 -21c0.666992 -4 11 -0.833008 31 9.5s49.667 19.5 89 27.5c44 8.66699 91 12 141 10c49.333 -4 95.5 -14.667 138.5 -32s84.5 -36.666 124.5 -57.999
c73.333 -42.667 130.666 -71.834 171.999 -87.501s84 -23.834 128 -24.501s79 3.83301 105 13.5s39.333 12.834 40 9.50098s-9 -9 -29 -17c-44.667 -19.333 -73.834 -37.833 -87.501 -55.5s-11.834 -44.5 5.49902 -80.5c2 -18 -14.667 -9.66699 -50 25
s-69.333 60.667 -102 78c-44.667 22.667 -67.334 7.33398 -68.001 -45.999c-1.33301 -19.333 -7.66602 -23.666 -18.999 -12.999c-45.333 63.333 -85 92.666 -119 87.999c-24.667 -3.33301 -42.167 -19.833 -52.5 -49.5s-13.5 -55.167 -9.5 -76.5c2 -12 1 -21.5 -3 -28.5
s-8.66699 0.166992 -14 21.5c-6.66699 24.667 -22.167 58.334 -46.5 101.001s-49.5 76 -75.5 100c-24 20.667 -45.667 27.334 -65 20.001s-31.666 -41 -36.999 -101c-2 -16 -3.5 -26.167 -4.5 -30.5s-4.5 3.5 -10.5 23.5c-21.333 74.667 -60.333 120.667 -117 138
c-42.667 12 -99 10 -169 -6c-17.333 -4.66699 -20.666 -3.33398 -9.99902 3.99902c36.667 30.667 69.167 61.667 97.5 93s58.5 62.666 90.5 93.999c53.333 52.667 111.333 97.334 174 134.001c59.333 34 127.333 64.333 204 91c61.333 26.667 113 61.334 155 104.001
c29.333 31.333 48 52.166 56 62.499s13.5 15 16.5 14s0.5 -7.5 -7.5 -19.5c-12 -16.667 -28.5 -44 -49.5 -82s-0.833008 -64.667 60.5 -80c11.333 -10 9 -15 -7 -15c-62.667 1.33301 -108.667 -5.66699 -138 -21c-46.667 -26.667 -36.667 -54.667 30 -84
c18 -8.66699 22 -14 12 -16s-13 -2.5 -9 -1.5s-18.833 1.66699 -68.5 2s-96.834 -4.5 -141.501 -14.5c-60.667 -13.333 -87 -33.333 -79 -60c9.33301 -17.333 26.833 -25.5 52.5 -24.5s71.5 26.833 137.5 77.5c14.667 11.333 21 13.666 19 6.99902s-5 -12.334 -9 -17.001
c-45.333 -55.333 -49 -86.333 -11 -93c31.333 -5.33301 78.166 1.83398 140.499 21.501s103.5 30.5 123.5 32.5c20 1.33301 28.833 0.5 26.5 -2.5s-7.16602 -7.16699 -14.499 -12.5c-50 -39.333 -79.833 -68.833 -89.5 -88.5s-7.5 -33.5 6.5 -41.5c20 -12 54 -15 102 -9
s83.667 9.33301 107 10c8 0 16.833 -1 26.5 -3s-0.5 -7.33301 -30.5 -16c-75.333 -25.333 -90.333 -50.166 -45 -74.499s89.333 -36.833 132 -37.5c28 -0.666992 37.333 -3 28 -7s-21 -8 -35 -12zM370.002 732.998c-18.667 20 -34.334 34.333 -47.001 43
c-16 11.333 -32 17 -48 17c-3.33301 22.667 -12.666 43.667 -27.999 63c-11.333 12.667 -21.333 20.667 -30 24c18 36 46.333 55.333 85 58c33.333 2 62.666 -8.33301 87.999 -31c22 -21.333 32.667 -48.333 32 -81c-1.33301 -18 -5.66602 -34.333 -12.999 -49
c-10 -18 -23 -32.667 -39 -44zM275.002 773.998c18 -2.66699 35.333 -9.33105 52 -19.998c16.667 -12.667 29 -27 37 -43c12.667 -26.667 14.667 -54.334 6 -83.001c-10 -28.667 -28 -49 -54 -61c-28 -13.333 -55.333 -14.666 -82 -3.99902
c-27.333 9.33301 -48 27.666 -62 54.999c-4 9.33301 -7 19.666 -9 30.999c34 0 62.333 14 85 42c20.667 26 29.667 53.667 27 83zM106.002 871.001c26 12.667 53.333 14.332 82 4.99902c28.667 -11.333 49 -30 61 -56c13.333 -27.333 15.333 -55 6 -83
c-10 -28 -28 -48.333 -54 -61c-28 -13.333 -55.333 -14.666 -82 -3.99902c-28 9.33301 -48.333 27.666 -61 54.999c-14 26.667 -16 54.334 -6 83.001c9.33301 28 27.333 48.333 54 61zM435.002 -23.001c-8.66699 -7.33301 -14.499 -10.1699 -17.499 -8.50293
s-0.5 5.83398 7.5 12.501c22 19.333 37.667 56.166 47 110.499s-19.334 59.833 -86.001 16.5c-6.66699 -4 -11.5 -4.33301 -14.5 -1s0.5 9 10.5 17l59 45c23.333 17.333 36.333 41.333 39 72c0.666992 12 -11 21.167 -35 27.5s-58 -2.5 -102 -26.5
c-4.66699 -2.66699 -7.5 -2 -8.5 2s8 11.333 27 22s42.167 42.667 69.5 96c19.333 36.667 25.333 67.834 18 93.501s-40 25.5 -98 -0.5c-10 -4 -16 -4.16699 -18 -0.5s1 8.16699 9 13.5c42.667 28 68.334 55.333 77.001 82c8 28.667 -0.666992 69 -26 121
c-4 6 -4 7.83301 0 5.5s8 -5.83301 12 -10.5c6.66699 -9.33301 13.667 -19.666 21 -30.999s17.333 -26 30 -44c65.333 -99.333 96.666 -209.666 93.999 -330.999c-2.66699 -122 -41 -216.333 -115 -283zM649.003 500.995c-48 0 -42.167 -25.499 17.5 -76.499
s97.167 -84.167 112.5 -99.5c2 -2.66699 1.16699 -4.66699 -2.5 -6s-9.5 0.666992 -17.5 6c-28.667 14 -57 13 -85 -3c-30 -17.333 -26.667 -43.166 10 -77.499s66 -59.833 88 -76.5c0 -0.666992 2.33301 -4.5 7 -11.5s0 -7.16699 -14 -0.5c-34 16 -63.667 19.333 -89 10
s-38 -27 -38 -53c0 -26.667 14 -55.334 42 -86.001c10.667 -13.333 9 -18 -5 -14c-28 35.333 -67.667 42 -119 20s-83.333 -41.667 -96 -59c-4 -5.33301 -9.33301 -8.5 -16 -9.5s-8.33398 1.16699 -5.00098 6.5c3.33301 4 10.833 12 22.5 24s24.167 26.333 37.5 43
c34 44 57 94.333 69 151c20.667 96.667 8 198.667 -38 306c-34 76 -76.667 137 -128 183c-9.33301 12 -6 12.333 10 1l65 -54c19.333 -16.667 39.333 -31.667 60 -45c46.667 -33.333 101.334 -55 164.001 -65c16 -2.66699 18.5 -5.83398 7.5 -9.50098
s-30.833 -5.16699 -59.5 -4.5zM188.003 846.996c-8 0 -13.667 -2.33496 -17 -7.00195c-4.66699 -4 -7 -9.66699 -7 -17c0 -8 2.33301 -13.667 7 -17c3.33301 -4.66699 9 -7 17 -7c7.33301 0 13 2.33301 17 7c4.66699 4.66699 7 10.334 7 17.001s-2.33301 12.334 -7 17.001
c-4 4.66699 -9.66699 7 -17 7zM343.003 904.994c-6.66699 0 -12.334 -2.33301 -17.001 -7c-5.33301 -5.33301 -8 -11 -8 -17c0 -6.66699 2.66699 -12.667 8 -18c4.66699 -4.66699 10.334 -7 17.001 -7s12.334 2.33301 17.001 7c4.66699 5.33301 7 11.333 7 18
c0 5.33301 -2.33301 11 -7 17c-4.66699 4.66699 -10.334 7 -17.001 7zM309.003 743.994c-6 0 -11.667 -2.33203 -17 -6.99902c-4.66699 -4.66699 -7 -10.334 -7 -17.001s2.33301 -12.334 7 -17.001s10.334 -7 17.001 -7c7.33301 0 13 2.33301 17 7c5.33301 4 8 9.66699 8 17
c0 6.66699 -2.66699 12.334 -8 17.001c-4.66699 4.66699 -10.334 7 -17.001 7z" />
    <glyph glyph-name="dollar" unicode="$" horiz-adv-x="634" 
d="M395 1237c-15.333 32 -25.333 28 -30 -12c-4.66699 -30.667 -5.16699 -64.167 -1.5 -100.5s8.16699 -56.5 13.5 -60.5s10.5 -3.5 15.5 1.5s9.83301 25.333 14.5 61s0.666992 72.5 -12 110.5zM262 485c4.66699 15.333 4.00391 55.3359 -1.99609 120.003
c-0.666992 14.667 -13.334 28.667 -38.001 42c-4 1.33301 -11 5.66602 -21 12.999c-24 19.333 -48.833 37.333 -74.5 54s-47.5 22.667 -65.5 18c-37.333 -10 -36.333 6.66699 3 50c8 8.66699 18.667 19.167 32 31.5s29.666 17.5 48.999 15.5c5.33301 4 18 -3.66699 38 -23
s42.667 -39 68 -59s51.666 -34.667 78.999 -44s51.666 -1.66602 72.999 23.001c9.33301 10.667 7.83301 24.667 -4.5 42s-27.5 30.666 -45.5 39.999c-88 46.667 -160.333 89.334 -217 128.001s-72 96.334 -46 173.001c16.667 51.333 63.334 108 140.001 170
c16 12 22.667 32.333 20 61c-6.66699 58.667 -15.334 98.667 -26.001 120c-1.33301 2 17.5 22 56.5 60s55.833 45.667 50.5 23c-10.667 -46 -17.334 -107 -20.001 -183c-0.666992 -18 1.5 -26.5 6.5 -25.5s8.83301 2.16699 11.5 3.5
c26.667 7.33301 51.334 10.666 74.001 9.99902c94.667 -5.33301 125.334 -55.833 92.001 -151.5s-69.666 -160.167 -108.999 -193.5c-20 -8.66699 -35.333 2.66602 -46 33.999c-10.667 36.667 -13.5 76.834 -8.5 120.501s12.833 78.5 23.5 104.5
c5.33301 15.333 -1.66699 23 -21 23c-55.333 -1.33301 -101.333 -31.333 -138 -90c-14 -28.667 -17.5 -55.834 -10.5 -81.501s32.167 -51.167 75.5 -76.5c37.333 -22.667 79 -45.667 125 -69s80 -42 102 -56c58.667 -40.667 66 -85.834 22 -135.501s-81 -84.5 -111 -104.5
c-11.333 -8.66699 -21.333 -14.667 -30 -18c-26 -12.667 -39.333 -34.334 -40 -65.001c0 -40 -3 -69 -9 -87c-12.667 -34 -29.334 -55.667 -50.001 -65s-23.334 6.66699 -8.00098 48z" />
    <glyph glyph-name="percent" unicode="%" horiz-adv-x="1382" 
d="M40 154c53.333 -24 133.167 20.833 239.5 134.5s209.5 247.667 309.5 402s182.333 304.833 247 451.5s82 240.667 52 282c-10 11.333 -5.33301 20.333 14 27c22 8 55.5 24 100.5 48s83.5 48 115.5 72c10 7.33301 19.333 10.5 28 9.5s8.66699 -8.5 0 -22.5
c-66 -101.333 -138.167 -228.5 -216.5 -381.5l-239 -454.5c-81 -150 -161.167 -285 -240.5 -405s-152.333 -197.667 -219 -233c-37.333 -20 -75.333 -21.667 -114 -5s-65.667 33.667 -81 51c-8 8 -11.5 15 -10.5 21s5.83301 7 14.5 3zM941.001 100
c-68 15.333 -115.171 60.333 -141.504 135s-33.666 154.334 -21.999 239.001s41.334 162 89.001 232s111.5 108.667 191.5 116c102.667 8.66699 171.5 -28.166 206.5 -110.499s43.833 -172.333 26.5 -270s-57.166 -184.334 -119.499 -260.001
s-139.166 -102.834 -230.499 -81.501zM976.997 279c23.333 -86 49 -129.668 77 -131.001c30.667 -2 49 37.667 55 119s3.33301 166 -8 254c-9.33301 68 -22.5 128.167 -39.5 180.5s-36.5 78.5 -58.5 78.5s-37.5 -17.667 -46.5 -53s-13.5 -77.666 -13.5 -126.999
c-1.33301 -60 2 -121.5 10 -184.5s16 -108.5 24 -136.5zM279.997 804.999c-68 15.333 -115.167 60.333 -141.5 135s-33.833 154.334 -22.5 239.001s41 162 89 232s112 108.667 192 116c102.667 8.66699 171.667 -28.166 207 -110.499s44.166 -172.333 26.499 -270
s-57.667 -184.334 -120 -260.001s-139.166 -102.834 -230.499 -81.501zM315.997 982.999c24.667 -85.333 50.333 -128.668 77 -130.001c30.667 -2 49 37.667 55 119s3.33301 166 -8 254c-8.66699 68 -21.667 128.167 -39 180.5s-37 78.5 -59 78.5s-37.5 -17.667 -46.5 -53
s-13.5 -77.666 -13.5 -126.999c-0.666992 -60 2.83301 -121.667 10.5 -185s15.5 -109 23.5 -137z" />
    <glyph glyph-name="ampersand" unicode="&#x26;" horiz-adv-x="1365" 
d="M497 450c-24 -26 -50.832 -56.6699 -80.499 -92.0029l-88.5 -103c-30 -34 -58 -64 -84 -90s-47 -42 -63 -48c-66 -24 -111.333 -13 -136 33c-22.667 41.333 -26.334 106 -11.001 194c14.667 83.333 45 172 91 266c46 95.333 101.667 178.666 167 249.999
c7.33301 7.33301 9.66602 16.333 6.99902 27c-15.333 46.667 -25.333 93.667 -30 141c-10 87.333 4.33301 159.666 43 216.999c36 54.667 98 100.334 186 137.001c74 30.667 141.333 27 202 -11c56 -38 73.333 -79.333 52 -124c-14 -28 -48.5 -68.833 -103.5 -122.5
s-99.5 -91.167 -133.5 -112.5c-12 -7.33301 -20.833 -7.16602 -26.5 0.500977s-4.5 14.5 3.5 20.5c26.667 20 41.334 48.833 44.001 86.5s-2 72 -14 103s-29.167 52.833 -51.5 65.5s-45.5 4.33398 -69.5 -24.999c-28 -34 -41.333 -75 -40 -123
c0.666992 -45.333 11.667 -95.666 33 -150.999c19.333 -51.333 46.666 -104.666 81.999 -159.999l50.5 -76.5c16.333 -23.667 35.833 -48.5 58.5 -74.5c14 -17.333 25.667 -18 35 -2c40.667 70 78.334 122.333 113.001 157s64.334 42.667 89.001 24
c50.667 -38 104.667 -66.167 162 -84.5s103 -10.5 137 23.5c21.333 21.333 34.5 26.333 39.5 15s-0.166992 -23 -15.5 -35c-14 -10.667 -35.333 -29 -64 -55c-24.667 -24.667 -41.334 -41.667 -50.001 -51c-40.667 -44 -78.667 -67.333 -114 -70s-68.333 1 -99 11
s-59.667 20 -87 30s-53 6 -77 -12c-11.333 -9.33301 -9 -22.333 7 -39c31.333 -34 64.833 -68.167 100.5 -102.5s73.5 -65.5 113.5 -93.5s81.667 -52 125 -72s88.333 -32.333 135 -37c45.333 -5.33301 77.333 6 96 34c6 10 16.833 12.833 32.5 8.5s14.5 -13.833 -3.5 -28.5
c-6.66699 -5.33301 -20 -18.166 -40 -38.499l-71 -71.5c-54 -52.667 -111.667 -80 -173 -82c-56 -1.33301 -113.333 17 -172 55c-49.333 30 -100.333 74 -153 132c-24 25.333 -46.167 51.166 -66.5 77.499s-38.833 51.5 -55.5 75.5c-10 14.667 -20.667 15.667 -32 3z
M306.001 797.997c-37.333 -48 -65.998 -101.333 -85.998 -160c-20 -54 -30.333 -106.667 -31 -158c-1.33301 -50.667 7 -89 25 -115c18.667 -29.333 46 -41 82 -35c25.333 4 47.666 19.5 66.999 46.5s53 66.167 101 117.5c11.333 12 11.333 27.333 0 46
c-29.333 44.667 -54 86.667 -74 126c-20 37.333 -39.333 79 -58 125c-6.66699 18 -15.334 20.333 -26.001 7z" />
    <glyph glyph-name="quotesingle" unicode="'" horiz-adv-x="310" 
d="M216 1547c8 13.333 18.998 14.999 32.998 4.99902c65.333 -48 85.333 -102 60 -162s-69.666 -129 -132.999 -207c-12.667 -16 -24.667 -32.5 -36 -49.5s-24 -34.5 -38 -52.5c-8 -10 -16.833 -12.167 -26.5 -6.5s-13.5 11.834 -11.5 18.501
c2.66699 8 26.834 39.167 72.501 93.5s58.5 103.5 38.5 147.5c-13.333 27.333 -37 48 -71 62c-10.667 4 -12 13.333 -4 28s18 27 30 37l50.5 44c13.667 12 25.5 26 35.5 42z" />
    <glyph glyph-name="parenleft" unicode="(" horiz-adv-x="1687" 
d="M1186 -31c-31.333 6.66699 -50.666 14.8369 -57.999 24.5039s-29 20.834 -65 33.501l-44 -3l-43 12h-7c-56 0 -94.5 9.16699 -115.5 27.5s-59.5 30.5 -115.5 36.5l-14 7c-26 20.667 -57.333 31 -94 31c-16.667 0 -34.5 -0.833008 -53.5 -2.5s-39.833 -1.5 -62.5 0.5
c-6 -6.66699 -30.5 -8.66699 -73.5 -6s-70.5 4 -82.5 4l-20 -14h-15l-7 -7l-29 -50h-7c-19.333 0 -47.833 -5 -85.5 -15s-64.834 -19 -81.501 -27l-7 -7c-28 -6.66699 -47.333 -4.33398 -58 6.99902c14.667 28.667 58.834 59.334 132.501 92.001s105.167 55 94.5 67
c-46.667 47.333 -77.334 96.166 -92.001 146.499s-20 96.166 -16 137.499c4 40.667 13.667 74 29 100s30 38 44 36c3.33301 44.667 14.666 76 33.999 94c-2.66699 15.333 -8.5 31.166 -17.5 47.499s-10.5 39.833 -4.5 70.5c-26 -13.333 -62.667 -9.33301 -110 12
s-28 100 58 236c18 29.333 27.167 35.666 27.5 18.999s15.5 -27.334 45.5 -32.001c21.333 -3.33301 40 3.33398 56 20.001s33.167 32.5 51.5 47.5s40.333 23.833 66 26.5s59.167 -11.666 100.5 -42.999l-5 54c-12.667 6 -30.5 11.833 -53.5 17.5s-37.5 25.834 -43.5 60.501
c0 35.333 20.5 61.166 61.5 77.499l108.5 42.5c-11.333 10.667 -21.666 37 -30.999 79c-11.333 42 -13 70 -5 84c16.667 28.667 51.5 54 104.5 76s107.833 36 164.5 42c56.667 5.33301 107.334 0 152.001 -16s67 -47.667 67 -95l12 -165c78 -18 129.833 -41.833 155.5 -71.5
s34.167 -54.834 25.5 -75.501c-10 -20.667 -27 -32.667 -51 -36s-35.667 -7.33301 -35 -12c3.33301 -44 1.16602 -76.167 -6.50098 -96.5s-23.5 -50.5 -47.5 -90.5c11.333 -8 35.333 5.66699 72 41l16 31c0 8 1.5 18 4.5 30s-0.833008 24.667 -11.5 38
c-4 4 -1.33301 10.667 8 20s18 14 26 14c37.333 8 54.5 -1 51.5 -27s6.83301 -44.333 29.5 -55c4 -2.66699 7.33301 -2.5 10 0.5s3 6.5 1 10.5c-10 14 0.333008 29 31 45s61.667 24 93 24c45.333 -22 82.666 -49.333 111.999 -82s31.666 -73.334 6.99902 -122.001
c-30 -30.667 -56.667 -48.334 -80 -53.001s-48 -23 -74 -55c-6 -6 -19.333 -9.33301 -40 -10l-30.5 -84c-8.33301 -23.333 -16.166 -43.333 -23.499 -60c-16 -34 -35.333 -61.667 -58 -83c60.667 -107.333 85 -206 73 -296c-13.333 -87.333 -60 -164.666 -140 -231.999
c2 -1.33301 2.83301 -9.5 2.5 -24.5s3.83398 -23.833 12.501 -26.5c13.333 -6 27.5 -13.667 42.5 -23s25.833 -23 32.5 -41c4 -9.33301 11 -19.833 21 -31.5s7.33301 -23.167 -8 -34.5zM890 72.0029c62 -4.66699 94.8369 -4.66602 98.5039 0.000976562
s16.834 8.33398 39.501 11.001l21 26c116.667 34.667 184 102 202 202c13.333 85.333 -9.33398 180.333 -68.001 285c-4 6 -10.167 14.333 -18.5 25s-9.5 14.334 -3.5 11.001c14.667 -8.66699 45.667 16.833 93 76.5s65.666 107.834 54.999 144.501
c-1.33301 -5.33301 -15.333 6.66699 -42 36s-42.334 61 -47.001 95l-47 -52.5c-15.333 -17 -30.333 -24.5 -45 -22.5c12 -48 -23.333 -77 -106 -87s-137 -1.66699 -163 25c-98 -16 -157.667 19.333 -179 106c-76 56 -164 57 -264 3s-134 -124.333 -102 -211
c13.333 -36.667 42 -60.167 86 -70.5s70.333 -3.5 79 20.5c9.33301 24 11.833 46.5 7.5 67.5s14.834 40.833 57.501 59.5c14 0 12.667 -13.333 -4 -40s-12 -51.334 14 -74.001c17.333 -12 34.166 -21 50.499 -27s24.5 -18.667 24.5 -38
c0 -34.667 -8.16699 -48.834 -24.5 -42.501s-31.5 10.166 -45.5 11.499c-22 0 -25.333 -9 -10 -27c29.333 -33.333 36.166 -61.833 20.499 -85.5s-40.5 -38.5 -74.5 -44.5c-34.667 -6.66699 -72 -2.83398 -112 11.499s-69.333 43.5 -88 87.5
c-33.333 -38 -47 -83.667 -41 -137s22.333 -102.333 49 -147c26 -44.667 58.333 -79 97 -103s74 -25 106 -3c23.333 -1.33301 45.5 -1 66.5 1s41.167 3 60.5 3c42 0.666992 77 -10 105 -32l14 -8c49.333 -4.66699 76.166 -9.66699 80.499 -15s23.5 -19 57.5 -41z
M882.004 469.004l-14 15v7v35l-7 7v29l-7 7l-8 14l8 14l7 7h7h65l15 -7l7 -7v-7l7 -35l7 -8v-49l-7 -14l-7 -8h-7l-8 -7h-7h-43zM840.004 666.004l-8 32v7v35l-7 7v36l7 14l7 7h7h15l14 -7l44 -36v-7l7 -21l7 -7v-43l-7 -14l-14 -14h-8h-22zM889.004 901.004
c28 -12.667 66.668 -18.667 116.001 -18s80 17 92 49c3.33301 11.333 -6.33398 15.333 -29.001 12c-30.667 -4.66699 -82.667 -6 -156 -4s-125.333 30 -156 84c-13.333 21.333 -40.333 27.5 -81 18.5s-60.667 -12.833 -60 -11.5l21 -7l88 -57c2 -18 19 -34.5 51 -49.5
s70 -20.5 114 -16.5zM242.005 1014c-42 -50.667 -53.6699 -87.668 -35.0029 -111.001s43 -35 73 -35c6.66699 41.333 33.834 80.5 81.501 117.5s101.5 53.833 161.5 50.5c44 -2 46 6 6 24c-39.333 16 -72.166 17.667 -98.499 5s-49.666 -27.167 -69.999 -43.5
s-39.5 -28.166 -57.5 -35.499s-38.333 2 -61 28zM723.002 1080c40.667 -6 76.5029 -30.998 107.503 -74.998s103.833 -50 218.5 -18l21 22c30 46 45.667 83.167 47 111.5s-4.66699 57.5 -18 87.5l-101 36v-5v-4c-14.667 0 -18.334 -7.66699 -11.001 -23
c-10 -8 -20.833 -7.33301 -32.5 2s-11.5 24 0.5 44l-65 7c1.33301 -2.66699 2.66602 -6.66699 3.99902 -12c-18.667 -3.33301 -19.334 -11 -2.00098 -23c-7.33301 -12 -19.5 -14.167 -36.5 -6.5s-18.5 24.167 -4.5 49.5c-40 4.66699 -71.833 6 -95.5 4s-54.167 -5 -91.5 -9
c-38 -14.667 -60.833 -44.334 -68.5 -89.001s-3.5 -84.334 12.5 -119.001c24 4 42.167 8.33301 54.5 13s32.5 7 60.5 7zM693.005 1132c-8.66699 -10.667 -14.667 -9.66797 -18 2.99902c-6 20.667 0 40.334 18 59.001c25.333 25.333 33.333 19.333 24 -18l2 -9
c31.333 -30.667 87.333 -62.167 168 -94.5s132.667 -22.833 156 28.5c4 9.33301 6 26 6 50h7l22 -21c17.333 -28 20.5 -39 9.5 -33s-19.5 4.33301 -25.5 -5c-49.333 -78 -103.833 -101.333 -163.5 -70s-125.167 72.333 -196.5 123zM1067 1278l142 -38
c-48 56.667 -125.333 90.167 -232 100.5s-216 9.5 -328 -2.5l-84 -33c86 14 169 17.5 249 10.5s164.333 -19.5 253 -37.5zM623.005 1382c5.33301 -14.667 9.00098 -21.498 11.001 -20.498s21.167 3.5 57.5 7.5s88.666 6.83301 156.999 8.5s135.166 -5.16602 200.499 -20.499
c2.66699 5.33301 4 13 4 23c-2 18 -29.167 30.667 -81.5 38s-91.166 10.666 -116.499 9.99902c-36 -0.666992 -85.167 -4.83398 -147.5 -12.501s-90.5 -18.834 -84.5 -33.501zM916.006 1226.01c28.667 0 43 -15 43 -45s-14.333 -45 -43 -45c-29.333 0 -44 15 -44 45
s14.667 45 44 45z" />
    <glyph glyph-name="parenright" unicode=")" horiz-adv-x="1656" 
d="M420 4l-114.004 -81.0088c-15.333 11.333 -18 22.833 -8 34.5s17 22.167 21 31.5c10 26.667 35.333 48 76 64c8 2.66699 11.833 11.5 11.5 26.5s0.833984 23.167 3.50098 24.5c-81.333 68 -128.333 145.333 -141 232c-12.667 90 11.666 188.333 72.999 295
c-24 22.667 -43 50.667 -57 84c-8 16.667 -16.167 36.667 -24.5 60l-30.5 84c-21.333 0.666992 -34.333 4 -39 10c-27.333 32 -52.5 50.333 -75.5 55s-49.167 22.334 -78.5 53.001c-26 48.667 -24.333 89.334 5 122.001s67 60 113 82c30.667 0 61.334 -8 92.001 -24
s41.334 -31 32.001 -45c-10.667 -18.667 -7 -22.334 11 -11.001c22.667 10.667 32.5 29.167 29.5 55.5s14.5 35.5 52.5 27.5c7.33301 0 15.666 -4.83301 24.999 -14.5s12.333 -16.5 9 -20.5c-11.333 -13.333 -15.333 -26 -12 -38s5 -22 5 -30l16 -32
c35.333 -34.667 59 -48 71 -40c-24 40 -39.833 70.167 -47.5 90.5s-9.5 52.5 -5.5 96.5c0 4.66699 -12.167 8.66699 -36.5 12s-40.833 15.333 -49.5 36c-10 20.667 -2 45.834 24 75.501s78.333 53.5 157 71.5l12 164c0 48 22.167 80 66.5 96s94.833 21.333 151.5 16
c56 -6 110.667 -20 164 -42s88.666 -47.333 105.999 -76c6.66699 -14 5 -42 -5 -84s-20.333 -68.333 -31 -79l107 -42.5c41.333 -16.333 62 -42.166 62 -77.499c-6 -34.667 -20.5 -54.834 -43.5 -60.501s-40.5 -11.5 -52.5 -17.5l-5 -54
c40.667 31.333 73.834 45.666 99.501 42.999s47.667 -11.5 66 -26.5s35.333 -31 51 -48s34.5 -23.5 56.5 -19.5c30 4.66699 45 15.334 45 32.001s9.33301 10.334 28 -18.999c85.333 -136 104.333 -214.667 57 -236s-83.666 -25.666 -108.999 -12.999
c6 -30 4.33301 -53.167 -5 -69.5s-15 -32.166 -17 -47.499c18.667 -18 30 -49 34 -93c40 2.66699 64.333 -43 73 -137c4 -41.333 -1.5 -87.166 -16.5 -137.499s-45.5 -99.166 -91.5 -146.499c-11.333 -12 20 -34.5 94 -67.5s118.333 -63.5 133 -91.5
c-11.333 -11.333 -30.666 -13.666 -57.999 -6.99902l-7 7c-17.333 8 -44.833 17 -82.5 27s-65.5 15 -83.5 15h-8l-28 50l-8 7h-14l-21 14c-12 0 -39.5 -1.33301 -82.5 -4s-67.5 -1 -73.5 5c-22.667 -1.33301 -43.5 -1.16602 -62.5 0.500977s-36.833 2.5 -53.5 2.5
c-36.667 0 -67.667 -10.333 -93 -31l-14 -7c-56 -6 -94.667 -18.167 -116 -36.5s-60 -27.5 -116 -27.5h-7l-42 -12l-44 3c-36.667 -12.667 -58.667 -24.167 -66 -34.5s-26.666 -18.5 -57.999 -24.5zM716.996 107.991c33.333 22 52.001 35.6621 56.001 40.9951
s31 10.333 81 15l15 7c25.333 22 60.333 33 105 33c18.667 0 38.334 -1.16699 59.001 -3.5s43 -2.5 67 -0.5c32 -22 67.167 -21 105.5 3s70.833 58.333 97.5 103c26 44.667 42 93.667 48 147s-7.33301 99 -40 137c-19.333 -44 -48.833 -73.167 -88.5 -87.5
s-76.5 -18.166 -110.5 -11.499c-34.667 6 -59.834 20.833 -75.501 44.5s-8.83398 52.167 20.499 85.5c16.667 18.667 13.667 27.334 -9 26.001c-14.667 -0.666992 -30 -4.16699 -46 -10.5s-24 8.16699 -24 43.5c0 18.667 8 31 24 37s33 15 51 27
c26 22.667 30.5 47.334 13.5 74.001s-18.167 40 -3.5 40c42 -18.667 60.833 -38.5 56.5 -59.5s-1.83301 -43.5 7.5 -67.5c8.66699 -24 35 -30.833 79 -20.5s72.667 33.833 86 70.5c31.333 86 -3 156 -103 210s-187.667 53 -263 -3c-21.333 -86 -81 -120.667 -179 -104
c-26 -27.333 -80.333 -36 -163 -26s-118 39 -106 87c-15.333 -2 -30.666 5.33301 -45.999 22s-30.666 34.334 -45.999 53.001c-4.66699 -34 -20.334 -65.667 -47.001 -95s-40.667 -41.333 -42 -36c-11.333 -36.667 6.66699 -85 54 -145s79 -85.333 95 -76
c6 2.66699 4.66699 -1.16602 -4 -11.499s-14.667 -18.5 -18 -24.5c-60 -106 -82.667 -201 -68 -285c16.667 -100 84 -167.333 202 -202l21 -27c22 -2 34.667 -5.16699 38 -9.5s36.666 -4.5 99.999 -0.5zM723.997 504.986l-7 -7h-44h-7l-7 7h-7l-8 7l-7 15v49l7 7l8 36v7l7 7
l14 7h65h8l7 -7l7 -14l-7 -14l-7 -7v-29l-8 -7v-35v-7zM766.997 701.986l-43 -11h-22h-7l-14 14l-8 14v43l8 7l7 21v7l43 36l15 7h14h7l8 -7l7 -14v-36l-7 -7v-35v-8zM716.997 936.986c44 -4.66699 81.999 0.666992 113.999 16s49.333 32 52 50l88 57l20 6
c0.666992 -0.666992 -19.333 3.5 -60 12.5s-67.334 2.5 -80.001 -19.5c-31.333 -53.333 -83.666 -81 -156.999 -83s-125.333 -0.666992 -156 4c-22.667 3.33301 -32 -0.666992 -28 -12c12 -32 42.333 -48.333 91 -49s87.334 5.33301 116.001 18zM1364 1049.99
c-23.333 -26 -44.001 -35.3311 -62.001 -27.998s-37.167 19.166 -57.5 35.499s-43.5 30.666 -69.5 42.999s-58.667 10.5 -98 -5.5c-15.333 -6 -22 -11.667 -20 -17s11 -7.33301 27 -6c58.667 3.33301 111.834 -13.5 159.501 -50.5s75.5 -76.167 83.5 -117.5
c29.333 0 53.333 11.5 72 34.5s7 60.167 -35 111.5zM883.995 1115.99c27.333 0 47.168 -2.16895 59.501 -6.50195s30.5 -8.83301 54.5 -13.5c15.333 34.667 19.333 74.334 12 119.001s-30 74.334 -68 89.001c-37.333 4 -68 7 -92 9s-55.333 0.666992 -94 -4
c13.333 -26 11.5 -42.833 -5.5 -50.5s-29.167 -5.16699 -36.5 7.5c18 12 17.667 19.667 -1 23c0 2.66699 1.33301 6.66699 4 12l-65 -7c12 -20.667 12 -35.5 0 -44.5s-23 -9.5 -33 -1.5c7.33301 15.333 3.66602 23 -11.001 23v4v4l-101 -35
c-13.333 -30 -19.333 -59.167 -18 -87.5s17 -65.5 47 -111.5l21 -22c114 -32 186.5 -26 217.5 18s67.5 69 109.5 75zM913.997 1167.99l-9.99805 13c-71.333 -50.667 -136.833 -91.667 -196.5 -123s-113.834 -8 -162.501 70c-6.66699 9.33301 -15.5 11 -26.5 5
s-7.5 5 10.5 33l21 21h8c0 -8 -0.333008 -15.667 -1 -23s1.66602 -16.333 6.99902 -27c22.667 -51.333 74.167 -60.833 154.5 -28.5s136.5 63.833 168.5 94.5l3 9c-10 38 -2.33301 44 23 18c18 -19.333 24.333 -39 19 -59c-4 -12.667 -10 -13.667 -18 -3zM539.999 1313.99
c88 18 172 30.333 252 37s163 3 249 -11l-84 34c-112 12 -221.333 12.833 -328 2.5s-183.667 -43.833 -231 -100.5zM982.999 1417.99c5.33301 14.667 -23.002 25.832 -85.002 33.499s-111 11.834 -147 12.501c-25.333 0 -64.166 -3.5 -116.499 -10.5
s-79.166 -19.5 -80.499 -37.5c-1.33301 -10 -1 -16.333 1 -19s19 -0.166992 51 7.5s82.167 10.667 150.5 9s139.5 -6.5 213.5 -14.5c2.66699 -2 7 4.33301 13 19zM690.997 1261.99c28.667 0 43 -15 43 -45s-14.333 -45 -43 -45s-43 15 -43 45s14.333 45 43 45z" />
    <glyph glyph-name="asterisk" unicode="*" horiz-adv-x="1225" 
d="M133 1143l71 -133l-145 -27zM1087 1141l80 -160l-143 28zM520 175l89 118l92 -118h-181zM127 414l-75 163l146 -32zM1092 414l-68 131l143 32zM583 1007v46l-69 -51l-27 36l96 69v42l-140 100l45 26l121 -90l124 90l43 -26l-138 -98v-49l99 -64l-28 -36l-71 47v-41
c30 -63.333 79 -94.333 147 -93l45 20l-79 42l21 41l104 -55l62 37l26 162l49 -25l-28 -149l135 -71l-7 -49l-152 82l-64 -36l1 -120l-43 1l-2 93l-44 -24c-32 -54 -30 -109.333 6 -166l44 -31l2 92l42 -4l2 -109l58 -38l150 82l7 -56l-135 -68l28 -152l-43 -21l-32 166
l-55 29l-100 -64l-31 43l84 46l-42 31c-36 -2 -64.167 -9.83301 -84.5 -23.5s-43.5 -41.5 -69.5 -83.5l-1 -52l82 58l23 -38l-105 -78v-48l137 -108l-43 -27l-124 91l-121 -91l-45 27l140 108v41l-96 69l27 39l69 -48l2 57c-23.333 36 -47.333 59.333 -72 70
s-58 19.667 -100 27l-38 -22l91 -51l-21 -43l-122 64l-40 -23l-32 -166l-43 21l28 152l-135 68l5 56l152 -82l51 31l10 118h43l-7 -92l45 26c22.667 35.333 34.167 64.5 34.5 87.5s-7.16699 50.5 -22.5 82.5l-48 29l-2 -95l-41 5l-3 117l-52 30l-154 -77l-4 49l134 70
l-28 149l43 26l32 -166l61 -36l101 58l21 -42l-68 -47l37 -21c37.333 2.66699 66 10 86 22s38.667 37 56 75zM520 1352h181l-92 -120zM609 899c-11.333 -0.666992 -17.998 -9.8291 -19.998 -27.4961s-8 -28.834 -18 -33.501c-10.667 -5.33301 -24 -3.83301 -40 4.5
s-26.333 7.16602 -31 -3.50098c-6 -12.667 -1 -23.334 15 -32.001s24 -20 24 -34c-0.666992 -14 -9.16699 -26 -25.5 -36s-22.166 -21.667 -17.499 -35c3.33301 -10.667 13.166 -12.334 29.499 -5.00098s29.5 8.33301 39.5 3c10 -6 16.5 -17.5 19.5 -34.5
s10.833 -25.5 23.5 -25.5c11.333 0 17.5 8.5 18.5 25.5s6.83301 28.5 17.5 34.5s24.667 5.33301 42 -2s28.666 -5 33.999 7c5.33301 12.667 -0.5 23.667 -17.5 33s-25.5 21.333 -25.5 36c-1.33301 13.333 6 24.5 22 33.5s21.333 19.833 16 32.5
c-4.66699 10 -14.834 11 -30.501 3s-28.5 -9 -38.5 -3c-10 4.66699 -16.167 15.667 -18.5 33s-8.5 26 -18.5 26z" />
    <glyph glyph-name="plus" unicode="+" horiz-adv-x="1302" 
d="M1093 431c-44 -50 -67.8291 -63.835 -71.4961 -41.502s4.83301 39.5 25.5 51.5c56 32 74 66 54 102s-64 61.667 -132 77c-126.667 40 -260.334 41 -401.001 3c-64.667 -18 -128 -42.667 -190 -74s-122 -66 -180 -104c-12 -8 -17.333 -21.333 -16 -40
c9.33301 -108.667 33 -193.334 71 -254.001c36.667 -59.333 80 -86.333 130 -81c42.667 4 85.667 31 129 81c46.667 54 88.667 130.333 126 229c9.33301 24 20.833 30 34.5 18s18.167 -22.333 13.5 -31c-18 -33.333 -42.667 -75.833 -74 -127.5s-67 -101.167 -107 -148.5
c-40.667 -47.333 -84.5 -87.166 -131.5 -119.499s-94.167 -46.5 -141.5 -42.5c-50 4.66699 -90.333 25.334 -121 62.001s-54 81.667 -70 135s-25.5 110.5 -28.5 171.5s-2.16699 117.5 2.5 169.5c5.33301 56.667 15.333 116 30 178s35.334 118 62.001 168
c32 58 71.333 107.333 118 148s90 62 130 64c50.667 2 82.167 -19.333 94.5 -64s14.166 -86.667 5.49902 -126c-12.667 -51.333 -38 -104.666 -76 -159.999c-17.333 -24 -35.666 -47 -54.999 -69l-56 -63c-2.66699 -3.33301 -3.83398 -7 -3.50098 -11s1.83301 -5 4.5 -3
c38 24.667 99.667 58.667 185 102s176.666 80.666 273.999 111.999c96 30.667 189 47.334 279 50.001s159 -24.333 207 -81c53.333 -64 46.166 -121.333 -21.501 -172s-100.834 -87 -99.501 -109zM185.004 733.998c-7.33301 -68.667 -10.334 -132.335 -9.00098 -191.002
c0 -22 2.5 -32.333 7.5 -31s13.833 9 26.5 23c38 40.667 64 85.167 78 133.5s20 92.5 18 132.5c-2 38.667 -9.66699 69.334 -23 92.001s-28 29.334 -44 20.001c-19.333 -12 -32.666 -40 -39.999 -84s-12 -75.667 -14 -95z" />
    <glyph glyph-name="comma" unicode="," horiz-adv-x="353" 
d="M206 351c8.66699 12.667 19.666 13.9971 32.999 3.99707c65.333 -47.333 85.333 -101 60 -161s-69.333 -129 -132 -207c-12.667 -15.333 -24.667 -31.5 -36 -48.5s-24 -34.833 -38 -53.5c-8 -9.33301 -17 -11.166 -27 -5.49902s-14 11.5 -12 17.5
c2.66699 8.66699 26.834 39.834 72.501 93.501s58.5 102.834 38.5 147.501c-12.667 27.333 -36 48 -70 62c-11.333 4 -13 13.333 -5 28s18 27 30 37l50.5 44c13.667 12 25.5 26 35.5 42z" />
    <glyph glyph-name="hyphen" unicode="-" horiz-adv-x="854" 
d="M82 751c-14.667 -20 -23.6709 -23.834 -27.0039 -11.501s-2.66602 21.166 2.00098 26.499c99.333 110 187.333 168.667 264 176s145 -0.666992 205 -24l160.5 -60.5c47 -17 91.167 5.16699 132.5 66.5c10.667 16.667 18.834 22.334 24.501 17.001
s7.83398 -11.666 6.50098 -18.999c-4 -20.667 -41.167 -58.167 -111.5 -112.5s-149.166 -74.5 -236.499 -60.5c-76 12 -150.5 35 -223.5 69s-138.5 11.667 -196.5 -67z" />
    <glyph glyph-name="period" unicode="." horiz-adv-x="355" 
d="M197 370c8.66699 13.333 19.666 14.667 32.999 4c59.333 -51.333 92.333 -84.833 99 -100.5s2.33398 -31.834 -12.999 -48.501l-43 -44.5c-16.667 -17 -33 -39.167 -49 -66.5c-12.667 -21.333 -22.667 -22.666 -30 -3.99902c-22 52 -58.333 88.333 -109 109
c-11.333 4 -13 13.333 -5 28s18 27 30 37l51 44c14 12 26 26 36 42z" />
    <glyph glyph-name="slash" unicode="/" horiz-adv-x="1265" 
d="M-19 43c28 -13.333 65.002 -6.16895 111.002 21.498s96 69.5 150 125.5s110.333 122.333 169 199s115.667 157.334 171 242.001c54 84 104.667 168.833 152 254.5s86.666 165.5 117.999 239.5c30.667 73.333 51.667 137.333 63 192s9 93.334 -7 116.001
c-10 12.667 -5 22.667 15 30c24.667 9.33301 61.667 27 111 53s91.666 52.333 126.999 79c10 8 19.833 11.167 29.5 9.5s9.83398 -9.83398 0.500977 -24.501c-36 -56 -74 -119.5 -114 -190.5l-123 -226.5l-129.5 -247.5l-132.5 -250.5l-133 -236.5
c-44.667 -75.667 -88 -144.5 -130 -206.5c-91.333 -134 -171.333 -219.333 -240 -256c-40.667 -21.333 -82.334 -22.833 -125.001 -4.5s-72 36.5 -88 54.5c-8 8.66699 -11.5 16.334 -10.5 23.001s6.16699 8 15.5 4z" />
    <glyph glyph-name="zero" unicode="0" horiz-adv-x="983" 
d="M444 72c-80.667 -2 -148.001 23.498 -202.001 76.498s-97 117.833 -129 194.5c-32 76 -54.167 156 -66.5 240s-17.166 156.333 -14.499 217c6 140.667 31.833 276 77.5 406s113.167 229 202.5 297c69.333 52.667 146.333 78 231 76c88 -3.33301 159 -37.166 213 -101.499
s95 -141.166 123 -230.499s44.667 -181.333 50 -276s4 -173.667 -4 -237c-26 -189.333 -95 -350.666 -207 -483.999c-18 -20.667 -37.167 -41.5 -57.5 -62.5s-41.5 -39.833 -63.5 -56.5c-51.333 -38.667 -102.333 -58.334 -153 -59.001zM284.999 474.998
c34 -72 73.832 -129.999 119.499 -173.999s93.167 -65 142.5 -63c55.333 1.33301 100.333 24.5 135 69.5s60 102.833 76 173.5c16 70 23.333 148.333 22 235s-10 172 -26 256c-27.333 140.667 -68.333 255 -123 343c-61.333 97.333 -129.666 143.666 -204.999 138.999
c-73.333 -4 -130 -41.333 -170 -112c-36 -63.333 -57 -147 -63 -251c-8 -116 -1.16699 -234.5 20.5 -355.5s45.5 -207.833 71.5 -260.5z" />
    <glyph glyph-name="one" unicode="1" horiz-adv-x="425" 
d="M47 852c30 12 54.1699 45.998 72.5029 101.998s33.166 117.667 44.499 185c10.667 66.667 18.5 130.667 23.5 192s8.83301 103.666 11.5 126.999c2 22.667 18.333 41.167 49 55.5s55.334 33.166 74.001 56.499c19.333 23.333 27.666 22.666 24.999 -2.00098
c-7.33301 -56.667 -11.833 -160 -13.5 -310s-1.5 -304 0.5 -462c1.33301 -158.667 3.66602 -300.167 6.99902 -424.5s6.66602 -189.166 9.99902 -194.499c1.33301 -2 1.5 -7.16699 0.5 -15.5s-11.5 -12.833 -31.5 -13.5c-12.667 -0.666992 -34.167 -5.66699 -64.5 -15
s-50.5 -19.666 -60.5 -30.999c-19.333 -22 -31.333 -33.333 -36 -34c-6 -1.33301 -9 3 -9 13l4 96l7 176c2 68.667 4.5 144.334 7.5 227.001s6.5 165.667 10.5 249c0 22 -3.66699 32 -11 30c-22 -6.66699 -43.667 -13.667 -65 -21s-43.333 -21 -66 -41
c-8 -7.33301 -23.167 -6.16602 -45.5 3.50098s-3.83301 26.834 55.5 51.501z" />
    <glyph glyph-name="two" unicode="2" horiz-adv-x="937" 
d="M233 174c-31.333 -44 -68.8311 -66.8311 -112.498 -68.498s-75.167 1.5 -94.5 9.5c-12 4.66699 -12 12 0 22c70 58.667 141 127.5 213 206.5s137 162.5 195 250.5c58 86.667 105.5 175 142.5 265s56.5 175.333 58.5 256c2.66699 140 -31 238.667 -101 296
c-64 52 -135 58.667 -213 20c-71.333 -36.667 -110.166 -94 -116.499 -172s5.16699 -149.333 34.5 -214c28.667 -65.333 67.667 -110.333 117 -135s94.666 -2 135.999 68c16 27.333 29.167 39.5 39.5 36.5s15.5 -8.5 15.5 -16.5
c-1.33301 -12.667 -16.666 -33.334 -45.999 -62.001c-113.333 -110.667 -209.5 -161.334 -288.5 -152.001s-130.833 50.833 -155.5 124.5s-16.834 166.167 23.499 277.5s123.833 214 250.5 308c79.333 58.667 163 86 251 82c100.667 -4 171 -52 211 -144
c35.333 -81.333 37.666 -174.5 6.99902 -279.5s-75 -210.5 -133 -316.5c-58.667 -106 -122 -206.167 -190 -300.5l-162 -230.5c-10.667 -16.667 -6 -21.667 14 -15c40.667 14 80.5 17.667 119.5 11s78.5 -16.667 118.5 -30l125.5 -44.5c43.667 -15 91.167 -24.5 142.5 -28.5
c33.333 -3.33301 61.666 0 84.999 10c24.667 10.667 43.667 29 57 55c14 27.333 26.333 37.333 37 30s12.667 -16.666 6 -27.999c-69.333 -122.667 -140.166 -206 -212.499 -250s-132.5 -54 -180.5 -30c-16 8 -37.5 26.667 -64.5 56s-56.5 59 -88.5 89
c-32.667 29.333 -66.667 53 -102 71s-69 19.667 -101 5c-16.667 -8.66699 -29.334 -19.334 -38.001 -32.001z" />
    <glyph glyph-name="three" unicode="3" horiz-adv-x="977" 
d="M246 783c-13.333 -13.333 -28.3311 -17.834 -44.998 -13.501s-24.334 15.5 -23.001 33.5c0.666992 22.667 38.334 85.334 113.001 188.001c33.333 46 71.166 95.167 113.499 147.5s86.5 102.833 132.5 151.5c12.667 13.333 13.667 24 3 32
c-34.667 24.667 -95.834 32 -183.501 22s-169.5 -49 -245.5 -117c-16 -14 -28 -26.667 -36 -38s-18.333 -21.666 -31 -30.999c-18.667 -14 -29.834 -11.333 -33.501 8s1.5 32.666 15.5 39.999c12 5.33301 26.5 22 43.5 50l54.5 93l57 99.5c19.333 32.333 37 55.833 53 70.5
c46 41.333 91.167 59.666 135.5 54.999s88.5 -15.667 132.5 -33c44 -18 88.167 -34.833 132.5 -50.5s89.5 -13.5 135.5 6.5c26.667 11.333 50 26.333 70 45c30 26 43.333 24 40 -6c-2.66699 -14 -12.667 -33 -30 -57c-22 -30 -49 -58.667 -81 -86
c-108 -92.667 -197 -175.334 -267 -248.001c-65.333 -66.667 -120.666 -131.667 -165.999 -195c-17.333 -25.333 -13.666 -31.666 11.001 -18.999c94.667 53.333 190 81.333 286 84c102.667 2 177 -26.333 223 -85c50 -66 61 -148.5 33 -247.5s-75 -197.5 -141 -295.5
c-66 -98.667 -140.667 -188.834 -224 -270.501s-154 -139.167 -212 -172.5c-78.667 -44 -128.834 -53.5 -150.501 -28.5s-1.5 47.5 60.5 67.5c67.333 21.333 137 60.333 209 117s133.333 122.334 184 197.001c50 74 83 152.667 99 236s2 163 -42 239
c-42 69.333 -106 105.833 -192 109.5s-164 -29.166 -234 -98.499z" />
    <glyph glyph-name="four" unicode="4" horiz-adv-x="927" 
d="M162 495c-10.667 -9.33301 -32.333 -26.1699 -65 -50.5029s-60 -34.833 -82 -31.5c-19.333 2.66699 -28.833 11.834 -28.5 27.501s8.5 26.834 24.5 33.501c32 13.333 74.5 66.333 127.5 159s101.5 193.334 145.5 302.001c43.333 108.667 74.333 209.667 93 303
s10 147.333 -26 162c-22 7.33301 -16.333 22.333 17 45c30 19.333 66.333 57 109 113c18 24 35 48 51 72l44 65c9.33301 14.667 15.333 9.66699 18 -15c4 -51.333 -5.33301 -120.166 -28 -206.499s-52.834 -178.833 -90.501 -277.5s-79.5 -197.667 -125.5 -297
s-90.333 -187 -133 -263c-15.333 -28 -9.66602 -32.667 17.001 -14c28 20 55.667 37 83 51c61.333 28.667 125.333 42 192 40c12.667 0 19.667 7.66699 21 23c6.66699 109.333 9.83398 206.333 9.50098 291s-7.83301 133.667 -22.5 147c-12 10 0.5 26 37.5 48
s65.167 45 84.5 69c19.333 23.333 27.666 22.666 24.999 -2.00098c-6 -51.333 -10 -130.166 -12 -236.499s-2 -217.166 0 -332.499c0 -18.667 7 -30 21 -34c70 -20 130.5 -38 181.5 -54s88.167 -2.66699 111.5 40c10 20 20.167 25.333 30.5 16s10.5 -23.666 0.5 -42.999
c-7.33301 -14.667 -34 -36.667 -80 -66c-38 -25.333 -78.667 -57.833 -122 -97.5s-85 -59.834 -125 -60.501c-9.33301 -1.33301 -13 -8.66602 -11 -21.999c2 -71.333 4.16699 -129.5 6.5 -174.5s4.83301 -69.167 7.5 -72.5c0.666992 -2 0.5 -7.16699 -0.5 -15.5
s-11.5 -12.833 -31.5 -13.5c-12 0 -33.167 -4.83301 -63.5 -14.5s-50.833 -20.167 -61.5 -31.5c-18.667 -21.333 -31.334 -32.333 -38.001 -33c-4.66699 -0.666992 -7 3.33301 -7 12c1.33301 23.333 5.83301 73.166 13.5 149.499s15.834 163.166 24.501 260.499
c2 17.333 -3 28.666 -15 33.999c-51.333 22 -106.833 36.667 -166.5 44s-113.5 -9 -161.5 -49z" />
    <glyph glyph-name="five" unicode="5" horiz-adv-x="845" 
d="M125 774c-12 -14 -25.001 -18.8271 -39.001 -14.4941s-20.333 14.166 -19 29.499c1.33301 16 5 52.667 11 110s10 121 12 191c2 69.333 0.166992 138 -5.5 206s-18.5 120.333 -38.5 157c-8 13.333 -3.33301 26.333 14 39l48 33c19.333 13.333 35 26 47 38
c15.333 15.333 22 13 20 -7c-2.66699 -16 -5 -39 -7 -69c0 -20.667 6.33301 -23.334 19 -8.00098c12.667 13.333 24.667 24 36 32c48.667 32 104.334 47.667 167.001 47c76.667 -0.666992 147.167 -12.334 211.5 -35.001s106.5 -9 126.5 41c9.33301 24 18.166 26 26.499 6
s1.5 -40.333 -20.5 -61c-30 -28 -69.667 -76 -119 -144s-89 -91 -119 -69c-63.333 46 -129.666 68 -198.999 66c-37.333 -1.33301 -73 -9.33301 -107 -24c-15.333 -6 -22.333 -18.333 -21 -37c1.33301 -34.667 3.16602 -68.834 5.49902 -102.501
s4.16602 -66.5 5.49902 -98.5c3.33301 -72 2 -129 -4 -171c-3.33301 -23.333 6 -27 28 -11c87.333 60 182.333 92.333 285 97c44 1.33301 88.667 -4.83398 134 -18.501s82.333 -38.834 111 -75.501c47.333 -62 59.333 -144 36 -246c-21.333 -88 -67.333 -185 -138 -291
c-32 -48.667 -67 -95.834 -105 -141.501s-76 -87.5 -114 -125.5c-78.667 -78 -148.667 -134.667 -210 -170c-53.333 -30 -96.666 -42.667 -129.999 -38c-22 4 -30.667 14.833 -26 32.5s26.334 32.5 65.001 44.5c67.333 20.667 136 58.334 206 113.001
c72 57.333 130.667 120.333 176 189c51.333 76 82.333 152.333 93 229c10 84 -5.66699 162.333 -47 235c-41.333 68 -107 105 -197 111c-91.333 6.66699 -164 -23 -218 -89z" />
    <glyph glyph-name="six" unicode="6" horiz-adv-x="1019" 
d="M694 163c-90.667 -65.333 -185 -95.6689 -283 -91.002c-83.333 2.66699 -154.666 31.667 -213.999 87c-65.333 58.667 -111 143 -137 253c-24.667 106 -29.667 225.667 -15 359c14.667 143.333 48.667 276.333 102 399c19.333 44 43.333 89.667 72 137s62 91 100 131
c36.667 40 77.667 73.333 123 100s94 42 146 46c50 2.66699 97.333 -12.666 142 -45.999s80.667 -92.666 108 -177.999c14.667 -46 11.667 -80.167 -9 -102.5s-40 -40.5 -58 -54.5l-69.5 -54c-15.667 -12 -40.5 -36 -74.5 -72
c-10.667 -11.333 -19.167 -11.666 -25.5 -0.999023s-6.5 18.667 -0.5 24c22 20 29.5 59.333 22.5 118s-24.833 110 -53.5 154c-29.333 44 -67.833 67.167 -115.5 69.5s-100.834 -43.167 -159.501 -136.5c-48.667 -76.667 -79.334 -170.334 -92.001 -281.001
c-11.333 -93.333 -8.33301 -196.666 9 -309.999c6 -42 20 -44 42 -6c34 61.333 83.667 115.666 149 162.999c69.333 49.333 137.333 77 204 83c80.667 6 152 -16.333 214 -67s102.667 -116 122 -196c18.667 -80 10.334 -167.5 -24.999 -262.5s-110 -183.5 -224 -265.5z
M694 237.997c60.667 62 89.5 134.666 86.5 217.999s-25.167 157 -66.5 221c-41.333 62.667 -95 105.167 -161 127.5s-131.667 3.5 -197 -56.5c-61.333 -56.667 -89.5 -126.667 -84.5 -210s29.167 -157 72.5 -221c42 -65.333 95.833 -110.166 161.5 -134.499
s128.5 -5.83301 188.5 55.5z" />
    <glyph glyph-name="seven" unicode="7" horiz-adv-x="875" 
d="M58 1277c-16 -34 -28.335 -41.501 -37.002 -22.501s-9.33398 32.5 -2.00098 40.5c72 84 134.5 151.167 187.5 201.5s99.167 75.166 138.5 74.499c44 -0.666992 92.833 -7.16699 146.5 -19.5s105.5 -22.833 155.5 -31.5c50 -10 95.333 -14.667 136 -14
s71 13.334 91 38.001c22 28 35.333 32.333 40 13s-1 -33.333 -17 -42c-27.333 -15.333 -70.666 -57.666 -129.999 -126.999l-89 -110.5s-67 -93.5 -101 -151.5s-66.167 -124 -96.5 -198s-54.833 -157.333 -73.5 -250c-16 -76.667 -16.667 -145.834 -2 -207.501
s37.667 -108.834 69 -141.501c30.667 -33.333 66 -48.833 106 -46.5s77.333 28.833 112 79.5c12 17.333 28.5 24.333 49.5 21s-2.5 -36.333 -70.5 -99c-58 -53.333 -97.667 -104.166 -119 -152.499s-59.666 -80.166 -114.999 -95.499
c-26.667 -7.33301 -71.334 12 -134.001 58s-90 141 -82 285c4.66699 84.667 21.334 173.667 50.001 267c24 78.667 58.667 163 104 253c36.667 74.667 80 149.667 130 225c40 61.333 83 121 129 179c8.66699 12 9.16699 20.667 1.5 26s-17.834 7 -30.501 5
c-63.333 -13.333 -125.666 -18.333 -186.999 -15s-115 10 -161 20c-41.333 8 -78.666 13 -111.999 15s-62.333 -23.667 -87 -77z" />
    <glyph glyph-name="eight" unicode="8" horiz-adv-x="967" 
d="M521 109c-63.333 -27.333 -122.671 -40.334 -178.004 -39.001c-83.333 0.666992 -153 32 -209 94c-52 56.667 -82.667 130 -92 220c-10 90 4.66699 179.333 44 268c42.667 94.667 109.334 173.334 200.001 236.001c14 9.33301 14.667 18.333 2 27
c-66.667 38 -114.667 82.667 -144 134c-28 48 -38.667 98.667 -32 152c4.66699 49.333 24 100.666 58 153.999c31.333 50 74 97.333 128 142c64.667 55.333 142.334 83 233.001 83c83.333 0 154 -24.667 212 -74c63.333 -54.667 95 -127.667 95 -219
c0.666992 -60 -17.666 -118.333 -54.999 -175c-35.333 -54 -82 -98.333 -140 -133c-19.333 -11.333 -17.333 -23.666 6 -36.999c112 -68 186 -143.667 222 -227c33.333 -77.333 34 -159.333 2 -246c-63.333 -167.333 -180.666 -287.333 -351.999 -360zM349.995 1469
c-31.333 -18 -48.502 -47.1689 -51.502 -87.502s1.16699 -76.166 12.5 -107.499c14.667 -44 45 -91.667 91 -143c38.667 -42 83.334 -81 134.001 -117c32 -23.333 64 -21 96 7c38.667 34 56.667 78.167 54 132.5s-17.667 106.5 -45 156.5c-28 50 -64 92.5 -108 127.5
s-87.667 50.833 -131 47.5c-19.333 -1.33301 -36.666 -6.66602 -51.999 -15.999zM257.993 814.997c-52 -54 -77.8311 -113.332 -77.498 -177.999s16.5 -126.334 48.5 -185.001c31.333 -58.667 73.166 -110.334 125.499 -155.001s104.166 -73.667 155.499 -87
c26 -7.33301 52 -8.33301 78 -3c74.667 16 117 67 127 153c7.33301 66.667 -18.667 145.334 -78 236.001c-51.333 78.667 -113.333 147.667 -186 207c-48.667 39.333 -88 57.333 -118 54c-24 -2 -49 -16 -75 -42z" />
    <glyph glyph-name="nine" unicode="9" horiz-adv-x="976" 
d="M127 1364c48.667 80 104 136.499 166 169.499s123.667 49.833 185 50.5c82 0.666992 152.167 -17.166 210.5 -53.499s105.833 -83.833 142.5 -142.5c36 -60 61.5 -127.167 76.5 -201.5s20.833 -149.166 17.5 -224.499c-6 -108 -29.333 -217.833 -70 -329.5
s-96 -214.167 -166 -307.5c-66 -96 -136.833 -177.667 -212.5 -245s-140.5 -111.333 -194.5 -132c-46 -26 -84.333 -39 -115 -39c-30 0 -44.167 9.5 -42.5 28.5s23.834 35.5 66.501 49.5c99.333 30.667 182.166 76 248.499 136s120.5 126.333 162.5 199
c40.667 72 71.167 146.667 91.5 224s34.5 149 42.5 215c4 56 -11 66 -45 30c-116.667 -122.667 -231 -182.667 -343 -180c-70 0.666992 -131 24.5 -183 71.5s-90 107.167 -114 180.5s-30.833 154.166 -20.5 242.499s42.5 174.5 96.5 258.5zM290 1456
c-39.333 -24 -67.834 -55.5 -85.501 -94.5s-27.5 -80.167 -29.5 -123.5c-4 -87.333 14 -172 54 -254c30 -63.333 69.333 -116.5 118 -159.5s99.334 -64.833 152.001 -65.5c50.667 -1.33301 97.334 19.667 140.001 63c59.333 60 86.166 134 80.499 222
s-29.834 169 -72.501 243c-44 74 -99.167 130.167 -165.5 168.5s-130.166 38.5 -191.499 0.5z" />
    <glyph glyph-name="colon" unicode=":" horiz-adv-x="379" 
d="M203 356c8 14 18.9971 15.3359 32.9971 4.00293c59.333 -51.333 92.333 -84.833 99 -100.5s2.33398 -31.834 -12.999 -48.501c-11.333 -12.667 -25.5 -27.5 -42.5 -44.5s-33.5 -39.167 -49.5 -66.5c-12 -22.667 -22 -24.334 -30 -5.00098
c-21.333 51.333 -57.666 87.666 -108.999 108.999c-11.333 4 -13 13.5 -5 28.5s18 27.5 30 37.5l50.5 44c13.667 12 25.834 26 36.501 42zM217.997 1149c9.33301 14 20.332 15.334 32.999 4.00098c60 -51.333 93.333 -84.833 100 -100.5s2.33398 -31.834 -12.999 -48.501
l-43 -44.5c-16.667 -17 -33 -39.167 -49 -66.5c-12.667 -21.333 -22.667 -23 -30 -5c-22 51.333 -58.667 88 -110 110c-10.667 4 -12 13.333 -4 28s18 27 30 37l50.5 44c13.667 12 25.5 26 35.5 42z" />
    <glyph glyph-name="semicolon" unicode=";" horiz-adv-x="405" 
d="M232 1130c9.33301 14 20.334 15.334 33.001 4.00098c59.333 -51.333 92.5 -84.833 99.5 -100.5s2.83301 -31.834 -12.5 -48.501l-43 -44c-16.667 -16.667 -33 -39 -49 -67c-13.333 -20 -23.333 -21.333 -30 -4c-22.667 52 -59.334 88.333 -110.001 109
c-10.667 4 -12 13.333 -4 28s18 27 30 37l50.5 44c13.667 12 25.5 26 35.5 42zM255.001 364.001c8 12.667 18.9971 14 32.9971 4c65.333 -47.333 85.333 -101 60 -161s-69.666 -129 -132.999 -207c-12.667 -15.333 -24.667 -31.5 -36 -48.5s-24 -34.5 -38 -52.5
c-8 -10 -16.833 -12.167 -26.5 -6.5s-13.5 11.5 -11.5 17.5c2.66699 8.66699 26.834 40 72.501 94s58.5 103 38.5 147c-13.333 27.333 -37 48 -71 62c-10.667 4 -12 13.5 -4 28.5s18 27.5 30 37.5c44.667 36.667 73.334 65 86.001 85z" />
    <glyph glyph-name="less" unicode="&#x3c;" horiz-adv-x="922" 
d="M345 507c-7.33301 -121.333 4.99414 -225.002 36.9941 -311.002c29.333 -80 70 -136.667 122 -170c50.667 -30.667 102.667 -36 156 -16c54.667 22 101.334 71 140.001 147c20.667 42 34.167 78.5 40.5 109.5s14.5 65.167 24.5 102.5c8 28.667 18.667 35.334 32 20.001
s17 -38 11 -68c-23.333 -122 -80.666 -223.667 -171.999 -305c-87.333 -76 -178.333 -112 -273 -108c-88.667 4 -153.667 37.333 -195 100s-66 136.334 -74 221.001c-8 84 -2 169.333 18 256s47 155 81 205c10.667 16 7 20 -11 12c-17.333 -8 -39.333 -12 -66 -12
c-21.333 0 -41.333 2.66699 -60 8c-7.33301 2 -11 -2 -11 -12c0.666992 -60 1 -119.667 1 -179s-1.33301 -114 -4 -164c-8 -112 -25.667 -184.333 -53 -217c-25.333 -29.333 -54.166 -46.166 -86.499 -50.499s-38.166 4.16699 -17.499 25.5c10.667 12 23.5 57.5 38.5 136.5
s26.5 167.5 34.5 265.5c8 97.333 10.667 192.5 8 285.5s-16 159.5 -40 199.5c-6 9.33301 -5.33301 16.666 2 21.999l51.5 36c23 16 41.833 31 56.5 45c10 10 15.167 4 15.5 -18s-0.666992 -48.667 -3 -80s-4 -62 -5 -92s3.16699 -48.333 12.5 -55
c21.333 -18 45.333 -32.333 72 -43c26.667 -12 54.334 -19.333 83.001 -22s52.334 4 71.001 20c13.333 11.333 21.333 9.5 24 -5.5s-0.333008 -35.167 -9 -60.5c-30.667 -86 -48 -162 -52 -228z" />
    <glyph glyph-name="equal" unicode="=" horiz-adv-x="612" 
d="M-46 -202c-32.667 -18.667 -32.833 -39.3311 -0.5 -61.998s78.333 -40.334 138 -53.001s122.667 -16.834 189 -12.501s116.833 23.833 151.5 58.5c16 18 12.667 30 -10 36c-70 20 -150 39.5 -240 58.5s-166 10.5 -228 -25.5zM362.001 553.003
c24 26 52.835 48.167 86.502 66.5s58.167 39.5 73.5 63.5c12.667 19.333 23 25 31 17c7.33301 -9.33301 7 -20.333 -1 -33c-33.333 -62.667 -43 -130.5 -29 -203.5s31.333 -147.5 52 -223.5c13.333 -52.667 24.5 -105.5 33.5 -158.5s9.16699 -104.833 0.5 -155.5
c-3.33301 -17.333 5.66699 -29 27 -35c41.333 -12 82.166 -25 122.499 -39l119.5 -43l116 -42c38 -14 75.667 -27 113 -39c80.667 -26.667 151.334 -42.667 212.001 -48c72 -6 137 1 195 21c40.667 15.333 75.5 39.166 104.5 71.499s47.167 62.833 54.5 91.5
c6.66699 30 18.667 39 36 27s21.333 -27.667 12 -47c-19.333 -34.667 -44.666 -67.667 -75.999 -99c-40.667 -41.333 -89.667 -76 -147 -104c-68.667 -32.667 -145 -53.334 -229 -62.001c-100.667 -8.66699 -206.334 0.666016 -317.001 27.999
c-40.667 10 -95.334 26 -164.001 48l-222 68c-20.667 6 -37.334 1.66699 -50.001 -13c-55.333 -62 -125.5 -105.333 -210.5 -130s-167.5 -37.334 -247.5 -38.001c-75.333 0 -143.333 8.5 -204 25.5s-101 40.5 -121 70.5s-12.833 64.833 21.5 104.5
s108.5 81.834 222.5 126.501c154 61.333 308.667 82 464 62c23.333 -1.33301 34.333 6.33398 33 23.001c-4.66699 36.667 -12.5 72.334 -23.5 107.001s-22.5 69 -34.5 103l-37.5 102c-12.333 34 -21.5 69 -27.5 105c-5.33301 27.333 -16 29.666 -32 6.99902
c-31.333 -42 -60.333 -90.167 -87 -144.5s-48 -92.833 -64 -115.5c-9.33301 -13.333 -24.333 -22.333 -45 -27s-43.334 24 -68.001 86c-30 73.333 -41.667 157.833 -35 253.5s31 184.167 73 265.5c22.667 44 53.667 91.833 93 143.5s80.333 96.167 123 133.5
s83.5 61.833 122.5 73.5s69.5 -0.166016 91.5 -35.499c14 -24 18.333 -54.5 13 -91.5s-13 -69.5 -23 -97.5c-12 -34 -34.667 -68.833 -68 -104.5l-81 -85.5c-41.333 -42 -69.333 -55.333 -84 -40c-11.333 10.667 -5 21 19 31c18.667 7.33301 33 19 43 35
c14 24 20 59.667 18 107s-21 79.333 -57 96c-33.333 14.667 -70.666 -14 -111.999 -86c-11.333 -20 -21.5 -57.5 -30.5 -112.5s-13.833 -110.167 -14.5 -165.5s4.83301 -101.833 16.5 -139.5s32.5 -49.5 62.5 -35.5c14 6.66699 35.667 41.834 65 105.501
s53.333 105.5 72 125.5z" />
    <glyph glyph-name="greater" unicode="&#x3e;" horiz-adv-x="877" 
d="M106 188c-48 -24 -59.832 -50.667 -35.499 -80s56.166 -44.666 95.499 -45.999c50 -2.66699 86.667 15.666 110 54.999c5.33301 8 3.33301 15.333 -6 22c-28.667 16 -57.667 30.833 -87 44.5s-55 15.167 -77 4.5zM203.001 1023
c-22 -50.667 -19.5039 -103.507 7.49609 -158.507s58.5 -113.5 94.5 -175.5s66.833 -127.833 92.5 -197.5s26.167 -144.167 1.5 -223.5c-3.33301 -9.33301 0.333984 -15.666 11.001 -18.999c24 -6.66699 48 -14.167 72 -22.5l69 -24.5c56 -20 105.5 -33 148.5 -39
s72.5 10.333 88.5 49c8 20.667 17.5 25.667 28.5 15s11.5 -23 1.5 -37c-43.333 -62 -93.333 -111 -150 -147c-70.667 -43.333 -133 -54.666 -187 -33.999c-18 6.66699 -39.167 18.334 -63.5 35.001l-78.5 52c-8 4.66699 -14.667 2.33398 -20 -6.99902
c-15.333 -23.333 -30.333 -43.666 -45 -60.999c-43.333 -60.667 -97.666 -94.667 -162.999 -102c-42.667 -4.66699 -79 3.5 -109 24.5s-44 50.5 -42 88.5c2.66699 37.333 22.667 78.333 60 123c72 82 160 119.333 264 112c8.66699 -1.33301 12.334 3.33398 11.001 14.001
c-6 20.667 -12.333 39.667 -19 57c-11.333 27.333 -24.166 54.333 -38.499 81l-44.5 80c-55.333 94 -97.5 187.5 -126.5 280.5s11.833 192.5 122.5 298.5c28 26 60 43.167 96 51.5s40 -10.5 12 -56.5c-12 -20 -26.833 -26.167 -44.5 -18.5s-34.167 -5.16602 -49.5 -38.499z
" />
    <glyph glyph-name="question" unicode="?" horiz-adv-x="887" 
d="M413 348c8.66699 12.667 19.666 14.0049 32.999 4.00488c59.333 -50.667 92.5 -83.834 99.5 -99.501s2.5 -31.834 -13.5 -48.501c-11.333 -12.667 -25.5 -27.334 -42.5 -44.001s-33.5 -38.334 -49.5 -65.001c-12 -22.667 -22 -24.334 -30 -5.00098
c-21.333 51.333 -57.666 87.333 -108.999 108c-10.667 4 -12 13.333 -4 28s18 27 30 37l50.5 43c13.667 12 25.5 26 35.5 42zM634.999 1237c-19.333 94.667 -59.332 159.336 -119.999 194.003c-57.333 30.667 -117.333 30.334 -180 -0.999023
c-72 -36 -112.833 -87.333 -122.5 -154s-1.5 -126.334 24.5 -179.001c25.333 -53.333 62 -88.333 110 -105s94.333 7 139 71c17.333 26 30.833 37.833 40.5 35.5s14.167 -7.83301 13.5 -16.5c-1.33301 -12.667 -16.333 -33.334 -45 -62.001
c-106 -104 -201 -159.333 -285 -166c-75.333 -6.66699 -125 25 -149 95c-24.667 70 -14.667 153 30 249c50 108 134.667 206.667 254 296c79.333 58 163 85.333 251 82c100 -4 170.333 -52.333 211 -145c25.333 -60.667 29.666 -126 12.999 -196
c-16 -60.667 -47.333 -124.334 -94 -191.001c-21.333 -30 -44.5 -59.167 -69.5 -87.5l-74.5 -81.5c-25.333 -26 -50 -50.167 -74 -72.5l-65 -60.5c-23.333 -22 -31.666 -41 -24.999 -57c9.33301 -24 26.166 -48.5 50.499 -73.5s41.5 -39.167 51.5 -42.5c30 -10 52 -9 66 3
s34.667 25 62 39c4.66699 2 11 -1.33301 19 -10s-1.33301 -20 -28 -34c-56 -30 -98.833 -65.667 -128.5 -107s-67.5 -51 -113.5 -29c-25.333 12 -47.666 31.5 -66.999 58.5l-51 70.5c-10.667 14 -22.334 25 -35.001 33s-21.667 16 -27 24
c-10.667 15.333 8.33301 36.666 57 63.999c53.333 30 104.333 64.5 153 103.5s90.667 81.833 126 128.5c76.667 102.667 104 210.667 82 324z" />
    <glyph glyph-name="at" unicode="@" horiz-adv-x="1414" 
d="M345 1361c55.333 -14 116.838 -15.6768 184.505 -5.00977s122.834 -6 165.501 -50l50 19c21.333 8 37.333 10.333 48 7c6.66699 -2 10.667 -5.66699 12 -11s5.66602 -8.66602 12.999 -9.99902c9.33301 -0.666992 19.333 -1.33398 30 -2.00098
s24.334 -4.33398 41.001 -11.001c4.66699 -2 7.16699 -7.16699 7.5 -15.5s2.83301 -13.833 7.5 -16.5c22 -9.33301 35.333 -20.666 40 -33.999c3.33301 -9.33301 3.33301 -18.666 0 -27.999s-2 -17.333 4 -24c16 -19.333 22.667 -41 20 -65s-3.33398 -38 -2.00098 -42
c31.333 -3.33301 69.333 14.667 114 54l35.5 31c6.33301 5.33301 10.166 -6 11.499 -34c0.666992 -24 -0.833008 -51.167 -4.5 -81.5s-9.5 -54.166 -17.5 -71.499c-4 -10 0.666992 -12.667 14 -8c19.333 4 45.5 3.33301 78.5 -2s60.833 -14.5 83.5 -27.5s34.5 -29 35.5 -48
s-20.5 -40.167 -64.5 -63.5c76 -18 112.667 -34.667 110 -50s-35.334 -35.666 -98.001 -60.999c40 -2 66 -31.667 78 -89s-19.667 -96 -95 -116c20 -47.333 28.667 -86.166 26 -116.499s-43 -40.5 -121 -30.5c-4 -39.333 -14 -64.833 -30 -76.5
s-47.333 -13.834 -94 -6.50098c10 -32.667 7.5 -55.667 -7.5 -69s-47.833 -15.333 -98.5 -6c-2 -27.333 -11.333 -49.666 -28 -66.999s-60.334 -10 -131.001 22c-14 -62 -51.5 -85.5 -112.5 -70.5s-126.5 46.5 -196.5 94.5c-26 -67.333 -54 -87 -84 -59s-62 76.333 -96 145
c-50 -49.333 -84.167 -71.833 -102.5 -67.5s-28.333 20 -30 47s1 57.333 8 91s10.5 55.5 10.5 65.5c-43.333 -20 -68.833 -21.167 -76.5 -3.5s-6.33398 42.334 3.99902 74.001s25.666 64.334 45.999 98.001s37.5 56.5 51.5 68.5c-30 20 -49.667 37.667 -59 53
c-30.667 42.667 -23 59.334 23 50.001c14 -2.66699 19.167 -1 15.5 5s-10.167 12 -19.5 18c-34 21.333 -48.167 33.5 -42.5 36.5s8.5 16.5 8.5 40.5c0 10 -3.66699 18.333 -11 25s-10 15 -8 25c2 14 8.16699 26.333 18.5 37s19.5 22 27.5 34c4 6 5.33301 13.5 4 22.5
s0 17.5 4 25.5c4.66699 10 11.5 17.667 20.5 23s16.833 10.333 23.5 15c-18 30 -14.667 71.833 10 125.5s28 94.834 10 123.501c-13.333 -11.333 -26.333 -10.333 -39 3c-27.333 -10 -44.833 -11.5 -52.5 -4.5s-14.5 15.167 -20.5 24.5c-32 -8 -48.833 0.5 -50.5 25.5
s1.5 51.5 9.5 79.5c-8 8.66699 -5.66699 24.667 7 48c6.66699 18 13.5 27.333 20.5 28s21.167 3.66699 42.5 9c8.66699 26 20.167 39 34.5 39s34.166 -3 59.499 -9c34 -2 61.833 -2.16699 83.5 -0.5s37.834 -15.5 48.501 -51.5l-16 -60
c14 -15.333 23.167 -26.166 27.5 -32.499s-2.16699 -18.166 -19.5 -35.499zM287.005 1313.99c12 -28.667 6.16895 -59.501 -17.498 -92.501s-27.5 -81.5 -11.5 -145.5l53 82l63 23c20.667 24.667 39.167 38.834 55.5 42.501s39.166 9.5 68.499 17.5l36 35l73 3
c-7.33301 26.667 -47.833 36.167 -121.5 28.5s-139.834 -5.5 -198.501 6.5zM241.007 608.989c-36 -36 -60.333 -69.498 -73 -100.498s-9.16699 -44.5 10.5 -40.5s38.5 8.83301 56.5 14.5s25 1.16699 21 -13.5c-28 -56.667 -43.333 -102.834 -46 -138.501
s25.333 -30.167 84 16.5c11.333 -43.333 30.166 -81.5 56.499 -114.5s54.833 -13.5 85.5 58.5c19.333 -12 44.5 -28.5 75.5 -49.5s59.833 -37.833 86.5 -50.5s47 -16.834 61 -12.501s13.667 26.5 -1 66.5c149.333 -62.667 203.666 -52.334 162.999 30.999
c56.667 -19.333 99.834 -25.666 129.501 -18.999s28.5 38 -3.5 94c66.667 -13.333 110.834 -15.5 132.501 -6.5s31.5 45.167 29.5 108.5c72 -22 104.667 -17.833 98 12.5s-26.334 64.5 -59.001 102.5c102 -20 138 -1.83301 108 54.5s-68.667 90.166 -116 101.499
c88 17.333 123 32 105 44s-63 23 -135 33c62.667 22.667 98.167 42.834 106.5 60.501s3.33301 31.5 -15 41.5s-42.666 15.333 -72.999 16s-51.833 -4.66602 -64.5 -15.999c-28 -32 -60.333 -57.333 -97 -76s-95 -33.334 -175 -44.001
c-34 -126.667 -105.333 -161.667 -214 -105c-23.333 -47.333 -59.333 -80.5 -108 -99.5s-125 -8.83301 -229 30.5zM345.007 747.991c-45.333 -45.333 -99 -64.334 -161 -57.001c109.333 -52.667 194.333 -68 255 -46s106.667 56.333 138 103
c36.667 62.667 21.167 93.334 -46.5 92.001s-129.5 -32 -185.5 -92zM670.007 884.99c-10 -30 10.333 -45.333 61 -46s111 16.333 181 51c44 22 83 49.333 117 82s51.667 69 53 109c-36 -26.667 -63 -44.5 -81 -53.5s-53 -13.5 -105 -13.5
c-50 -0.666992 -91.333 -10 -124 -28s-66.667 -51.667 -102 -101zM201.007 990.99c-7.33301 -10 -9.49902 -17.6699 -6.49902 -23.0029s2.5 -12 -1.5 -20c-6 -10.667 -14.333 -19.167 -25 -25.5s-16.667 -14.5 -18 -24.5c-1.33301 -6.66699 1.66699 -13 9 -19
s12.666 -13 15.999 -21c3.33301 -8.66699 3.33301 -16.334 0 -23.001s-2 -15 4 -25c8.66699 -16.667 23 -32 43 -46s41.333 -18.333 64 -13c0 0.666992 -1.5 9.16699 -4.5 25.5s-5.16699 33.5 -6.5 51.5c1.33301 17.333 3.33301 33.833 6 49.5s3.66699 23.5 3 23.5
c-33.333 8 -50.166 14 -50.499 18s23.167 11.667 70.5 23c6 2 1.66699 9.33301 -13 22s-10.334 17.334 12.999 14.001s41.166 -4.66602 53.499 -3.99902s13.833 7.83398 4.5 21.501s-13 24.167 -11 31.5c30 -2 59.667 -8.16699 89 -18.5s46 -11.833 50 -4.5
c11.333 22.667 29.666 40.334 54.999 53.001c10 4.66699 23.833 7.66699 41.5 9s31.5 1.66602 41.5 0.999023c7.33301 7.33301 11 11.333 11 12c-1.33301 10 1.66699 24.167 9 42.5s14.666 29.5 21.999 33.5s10.666 -1.66699 9.99902 -17s3 -19.666 11 -12.999
c6.66699 6 12.667 14 18 24s13 19.333 23 28c4.66699 4 8.16699 -1.5 10.5 -16.5s6.5 -21.5 12.5 -19.5c10 3.33301 22.667 14.333 38 33s23 21.334 23 8.00098c0.666992 -10.667 0.166992 -20.5 -1.5 -29.5s-0.833984 -13.833 2.49902 -14.5
c18.667 -4 35.334 -10.167 50.001 -18.5s30.334 -22.166 47.001 -41.499c5.33301 -6 7.66602 -1.33301 6.99902 14c-1.33301 41.333 -15.666 69.333 -42.999 84c2 19.333 4.66699 31.5 8 36.5s1 8.83301 -7 11.5c-10 5.33301 -18.167 9.16602 -24.5 11.499
s-7.16602 9.16602 -2.49902 20.499c-11.333 6.66699 -22.833 7.5 -34.5 2.5s-22.167 -6.5 -31.5 -4.5c2 29.333 -32 28 -102 -4c-41.333 6 -75.333 2 -102 -12c-7.33301 -4 -16.166 -10.5 -26.499 -19.5l-25.5 -22.5c-23.333 1.33301 -43 -4.16699 -59 -16.5l-66 -48.5
c-41.333 -10 -67.166 -23.5 -77.499 -40.5s-19.5 -30.5 -27.5 -40.5c-6 -8 -19.5 -13.167 -40.5 -15.5s-40.5 -16.833 -58.5 -43.5zM151.008 1474.99c-40 1.33301 -57.333 -17.335 -52 -56.002c-26 -45.333 -17.667 -69.333 25 -72c10.667 -14.667 26.667 -14.667 48 0
c13.333 -23.333 28.166 -27.666 44.499 -12.999l54.5 47c30.667 -4.66699 45.167 -1.5 43.5 9.5s-6.83398 27.5 -15.501 49.5c6.66699 32.667 7.33398 51.334 2.00098 56.001s-28 8 -68 10c-65.333 13.333 -92.666 3 -81.999 -31zM285.008 778.986
c18.667 38 43.833 63.833 75.5 77.5s55.834 26.5 72.501 38.5c18 14 17.667 33 -1 57c-14 16.667 -46.833 11.5 -98.5 -15.5s-67.834 -79.5 -48.501 -157.5zM854.007 1052.99l-25.999 23.998c-34.667 20.667 -73.5 25.334 -116.5 14.001s-60.5 -28.666 -52.5 -51.999
c7.33301 -7.33301 12.5 -14.166 15.5 -20.499s5.5 -14.833 7.5 -25.5c27.333 24 55.166 40.167 83.499 48.5s57.833 12.166 88.5 11.499zM578.008 1028.98c-54.667 2 -85.667 -22.334 -93 -73.001c-5.33301 -49.333 19.334 -76 74.001 -80
c47.333 -1.33301 77.333 23.334 90 74.001c7.33301 50 -16.334 76.333 -71.001 79zM583.008 737.983c12.667 -22 36.002 -31 70.002 -27s53 26 57 66c1.33301 16 -8.83398 26 -30.501 30s-34.5 1.66699 -38.5 -7c-4.66699 -9.33301 -15.334 -16 -32.001 -20
c-26 -8 -34.667 -22 -26 -42z" />
    <glyph glyph-name="A" unicode="A" horiz-adv-x="1421" 
d="M509 557c0 9.33301 -4.66699 15.001 -14 17.001c-39.333 6 -81.5 7.16699 -126.5 3.5s-81.5 -20.834 -109.5 -51.501c-48 -52.667 -73 -130 -75 -232c-2.66699 -92.667 13.333 -177.667 48 -255c34.667 -79.333 74.667 -119.666 120 -120.999
c52.667 -0.666992 100.667 55 144 167c10 27.333 16.667 67.666 20 120.999s3.33301 110.333 0 171c-4.66699 73.333 -7 133.333 -7 180zM723 522.001c-10.667 1.33301 -15.9951 -4.00098 -15.9951 -16.001c-4 -88 -27.333 -181 -70 -279
c-37.333 -82.667 -87 -165.334 -149 -248.001c-91.333 -120 -176.666 -180.667 -255.999 -182c-69.333 0 -123.333 42 -162 126c-36.667 81.333 -48.334 174 -35.001 278c15.333 114.667 56.666 208.334 123.999 281.001l68.5 72c22.333 22.667 48.166 44 77.499 64
c59.333 41.333 123.666 69.333 192.999 84c8 0.666992 12.667 6.66699 14 18c10 212.667 41.833 381.834 95.5 507.501s120.834 212.834 201.501 261.501c55.333 33.333 106.666 55 153.999 65c62 12 117.333 4.33301 166 -23c49.333 -29.333 81.666 -39.666 96.999 -30.999
c22 12.667 37.833 13 47.5 1s3.5 -23.333 -18.5 -34c-42 -20.667 -77.333 -58.334 -106 -113.001c-28 -52.667 -49 -116.667 -63 -192c-14 -70.667 -22.333 -150.334 -25 -239.001c-2.66699 -85.333 0.333008 -170.666 9 -255.999c1.33301 -10.667 6 -16 14 -16
c59.333 -2 115 8.5 167 31.5s99 69.833 141 140.5c16.667 28.667 27.834 38.667 33.501 30s8.5 -18.667 8.5 -30c-1.33301 -28 -34 -66.667 -98 -116c-30.667 -23.333 -66.667 -46.5 -108 -69.5s-86 -42.833 -134 -59.5c-8 -3.33301 -11.333 -11 -10 -23
c12 -80.667 28 -152.334 48 -215.001c18.667 -65.333 41.334 -119.666 68.001 -162.999c27.333 -45.333 55.666 -73.333 84.999 -84c32 -12.667 64.667 -5.66699 98 21c20 16 32.833 24.333 38.5 25s1.5 -13 -12.5 -41c-16.667 -34 -52.834 -84.5 -108.501 -151.5
s-123.834 -79.5 -204.501 -37.5c-48.667 25.333 -85 96 -109 212c-24 106.667 -35.333 237.667 -34 393c0 12.667 -5 18 -15 16c-77.333 -16.667 -149 -19.334 -215 -8.00098zM940.005 668c10.667 -2 16.6689 3 18.002 15c6.66699 123.333 21 242.333 43 357
c21.333 114.667 48.666 210 81.999 286c4.66699 8.66699 5 17 1 25c-29.333 48.667 -75.666 81.334 -138.999 98.001c-60 16 -104.333 12.667 -133 -10c-68 -58 -104.667 -141.667 -110 -251c-2.66699 -48 -2.33398 -113.333 0.999023 -196
c1.33301 -38 2.66602 -79.333 3.99902 -124s2.33301 -93 3 -145c0 -10.667 5.33301 -16.334 16 -17.001c36 -4.66699 72 -10.667 108 -18s71.333 -14 106 -20z" />
    <glyph glyph-name="B" unicode="B" horiz-adv-x="1500" 
d="M1031 1541c1.33301 0.666992 2.33105 1 2.99805 1c1.33301 -0.666992 2.33301 -1 3 -1c107.333 -28 186.833 -67.667 238.5 -119s76.5 -108 74.5 -170s-31.167 -125.5 -87.5 -190.5s-138.833 -124.167 -247.5 -177.5c-18.667 -9.33301 -17.334 -15.666 3.99902 -18.999
c118 -23.333 218 -74.333 300 -153c73.333 -74 121.666 -160.667 144.999 -260c22.667 -98 18.667 -191.333 -12 -280c-28 -80.667 -84.667 -153 -170 -217c-68.667 -51.333 -125.334 -74.5 -170.001 -69.5s-82.5 21.5 -113.5 49.5s-58 59.333 -81 94
s-46.5 56.334 -70.5 65.001c-8 2.66699 -12 -2 -12 -14c2.66699 -68.667 5.33398 -104.667 8.00098 -108c0.666992 -2 0.5 -7.16699 -0.5 -15.5s-11.833 -12.833 -32.5 -13.5c-13.333 0 -35.666 -5 -66.999 -15s-52 -21 -62 -33c-21.333 -22 -34.666 -33 -39.999 -33
c-8 -2 -10.333 2 -7 12c2 16 4.66699 44 8 84s7 88.667 11 146c8.66699 127.333 16 265.333 22 414c2 76 3.83301 152.667 5.5 230s2.16699 151.666 1.5 222.999c-0.666992 70 -2.66699 135.167 -6 195.5s-8.33301 111.166 -15 152.499c-3.33301 20 7.66699 37 33 51l76 44
c14 7.33301 12.667 12 -4 14c-58.667 2 -106 0.666992 -142 -4c-92 -11.333 -181.167 -39.5 -267.5 -84.5s-144.5 -116.5 -174.5 -214.5c-20.667 -66.667 -14 -132 20 -196c31.333 -58.667 76.333 -94 135 -106c64 -13.333 127.667 6.33398 191 59.001
c19.333 16 35.166 37 47.499 63s20.5 40.333 24.5 43c8.66699 5.33301 15.167 3.66602 19.5 -5.00098s4.83301 -19 1.5 -31c-3.33301 -11.333 -15.5 -27.666 -36.5 -48.999l-45.5 -47c-81.333 -87.333 -156.666 -147.5 -225.999 -180.5s-124 -40.833 -164 -23.5
c-46 19.333 -78.667 55.666 -98 108.999c-19.333 52.667 -23.333 112.667 -12 180c10 70 36 140 78 210c46.667 76 105.667 141.333 177 196c42.667 32.667 90 64.5 142 95.5s109 56.5 171 76.5c60.667 20 126.334 32.833 197.001 38.5s146.334 0.166992 227.001 -16.5z
M849.998 1421c-10 0.666992 -15.334 -4.66992 -16.001 -16.0029c-4 -51.333 -6.83301 -121.666 -8.5 -210.999s-2.5 -186.333 -2.5 -291c0 -13.333 6 -18.666 18 -15.999c102 24.667 181.333 64.667 238 120c51.333 50.667 76.666 106.334 75.999 167.001
c-1.33301 60.667 -27.666 113 -78.999 157c-55.333 47.333 -130.666 77.333 -225.999 90zM847.997 194.996c12 11.333 24.3291 20.334 36.9961 27.001c36 19.333 72.667 19.666 110 0.999023c16 -8.66699 31.667 -20 47 -34l47 -44l45.5 -47.5
c15.667 -15.667 32.167 -28.834 49.5 -39.501c16.667 -11.333 35.667 -21.333 57 -30s41 -5.66699 59 9c22.667 18.667 35.334 43.834 38.001 75.501s2.66699 62.834 0 93.501c-7.33301 59.333 -31.666 120.666 -72.999 183.999c-42 62 -98.667 120.333 -170 175
c-73.333 55.333 -157.666 102.333 -252.999 141c-12 4 -18 -2.33301 -18 -19c0 -89.333 0.666992 -176 2 -260s3 -159 5 -225c0.666992 -14 6.33398 -16.333 17.001 -7z" />
    <glyph glyph-name="C" unicode="C" horiz-adv-x="960" 
d="M976 382c-28 -35.333 -59.999 -78.1631 -95.999 -128.496s-75 -99.833 -117 -148.5c-43.333 -49.333 -89.833 -93.333 -139.5 -132s-102.5 -64.334 -158.5 -77.001c-88.667 -19.333 -169.667 3.66699 -243 69c-79.333 69.333 -137.333 179 -174 329
c-24.667 100 -31.667 207.167 -21 321.5s35.667 226.5 75 336.5c38.667 109.333 90.334 211.5 155.001 306.5s139 173.5 223 235.5c90 66 172.667 101 248 105c85.333 5.33301 146.666 -32 183.999 -112c19.333 -41.333 27.5 -92.833 24.5 -154.5
s-14.167 -123.5 -33.5 -185.5c-20 -62.667 -46.167 -121 -78.5 -175s-67.833 -94 -106.5 -120c-23.333 -16 -43.166 -21.833 -59.499 -17.5s-30.5 29.5 -42.5 75.5c-22.667 80 -28.334 166.5 -17.001 259.5s36 176.833 74 251.5c5.33301 11.333 3.66602 19.333 -5.00098 24
c-37.333 17.333 -75.333 20.666 -114 9.99902c-40 -11.333 -76.667 -34.333 -110 -69c-33.333 -33.333 -65 -77.333 -95 -132c-34 -62 -63 -132.667 -87 -212c-26 -87.333 -42.167 -182.5 -48.5 -285.5s-0.5 -200.5 17.5 -292.5c17.333 -92 47.5 -171.833 90.5 -239.5
s100.833 -109.167 173.5 -124.5c68 -15.333 127.167 -10.5 177.5 14.5s94.166 58.833 131.499 101.5c36.667 42 68.334 87.333 95.001 136s50.667 89 72 121c45.333 68 77 95.667 95 83s19 -39.334 3 -80.001c-5.33301 -12 -19 -27.667 -41 -47
c-26 -20.667 -43.333 -36.334 -52 -47.001zM737.001 983.003c25.333 24 37.001 86.334 35.001 187.001c-0.666992 43.333 -5.83398 86.833 -15.501 130.5s-24.5 79.5 -44.5 107.5c-10 11.333 -16 10.333 -18 -3c-4.66699 -25.333 -8 -64.5 -10 -117.5
s-1.66699 -104.5 1 -154.5c2 -50.667 7.16699 -92.334 15.5 -125.001s20.5 -41 36.5 -25z" />
    <glyph glyph-name="D" unicode="D" horiz-adv-x="1547" 
d="M1098 -85c-26.667 -23.333 -55.9961 -36.1611 -87.9961 -38.4941s-64.667 24.5 -98 80.5c-20 34 -32.167 61.5 -36.5 82.5s-16.5 21.833 -36.5 2.5c-18 -16.667 -20.333 -40.667 -7 -72c14.667 -30.667 4.66699 -47 -30 -49c-24 -0.666992 -49 -6.66699 -75 -18
c-26.667 -11.333 -51.667 -26.333 -75 -45c-20.667 -15.333 -29.667 -23 -27 -23c-5.33301 -0.666992 -8 3.66602 -8 12.999c0.666992 16 2.66699 45 6 87l12 151l13.5 198.5c5 73 9.5 148.5 13.5 226.5c3.33301 77.333 6 155.333 8 234s2.33301 153.667 1 225
c-2 70.667 -6 135.834 -12 195.501s-14.667 109.5 -26 149.5c-6 19.333 8.16699 35.666 42.5 48.999s65.833 28.333 94.5 45c16.667 9.33301 15.334 15.666 -3.99902 18.999c-50.667 6.66699 -99.334 9 -146.001 7c-44 -2 -85 -8 -123 -18
c-36.667 -10 -70.334 -23.667 -101.001 -41c-27.333 -14.667 -54.333 -33.667 -81 -57c-65.333 -60 -106.5 -130.833 -123.5 -212.5s-15.5 -153.167 4.5 -214.5c20 -62 56.333 -103.167 109 -123.5s116.667 1.5 192 65.5c19.333 16 34.666 37.5 45.999 64.5
s19 41.833 23 44.5c8.66699 5.33301 14.667 1 18 -13s3.66602 -27 0.999023 -39c-5.33301 -18.667 -19.333 -40 -42 -64s-41.334 -42.667 -56.001 -56c-120.667 -105.333 -222.334 -159 -305.001 -161c-72.667 -2 -121 35 -145 111c-24.667 72 -20.667 160.333 12 265
c32.667 110 88.667 209.333 168 298c78 88 176 157 294 207c112.667 47.333 229.334 69.666 350.001 66.999c124.667 -4.66699 236.667 -35.334 336 -92.001c108 -62 191.667 -150.667 251 -266c66 -128.667 90 -278.334 72 -449.001c-17.333 -158 -65.333 -314 -144 -468
c-78 -150.667 -170.667 -273.334 -278 -368.001zM848.004 1413c-14.667 2.66699 -22.3311 -3.99902 -22.998 -19.999c-7.33301 -77.333 -13 -192.333 -17 -345c-2 -72 -3.33301 -148.333 -4 -229s-0.666992 -160 0 -238c0.666992 -80.667 2.16699 -158 4.5 -232
s5.16602 -139.667 8.49902 -197c1.33301 -23.333 10 -23 26 1c32.667 49.333 59 80.333 79 93c21.333 13.333 39.166 3.33301 53.499 -30l45.5 -107c16 -38 35.167 -67.667 57.5 -89s52.5 -13.333 90.5 24c89.333 88.667 150.333 206 183 352
c30 137.333 30.667 278.666 2 423.999c-30.667 146.667 -88 272.667 -172 378c-90.667 112 -202 183.667 -334 215z" />
    <glyph glyph-name="E" unicode="E" horiz-adv-x="1512" 
d="M465 -149c-20.667 -34 -30.8359 -39.0049 -30.5029 -15.0049s3.83301 40.333 10.5 49c51.333 71.333 104.333 126.666 159 165.999c9.33301 6.66699 14 16 14 28l7 138.5l9 171.5c2 60 4.5 122.833 7.5 188.5s5.5 130.834 7.5 195.501
c1.33301 64.667 2.5 127.334 3.5 188.001s1.16699 116.334 0.5 167.001c-1.33301 106 -6.33301 178.667 -15 218c-4.66699 16.667 8 33.667 38 51c12 8 25.5 15.667 40.5 23s28.5 15 40.5 23c11.333 8.66699 10.333 13 -3 13c-86 6 -161.833 1.5 -227.5 -13.5
s-113.5 -33.167 -143.5 -54.5c-91.333 -64.667 -149.333 -146 -174 -244c-22 -86.667 -14.667 -167.334 22 -242.001c30 -64 72.667 -100.667 128 -110c52.667 -10.667 105.334 6.33301 158.001 51c19.333 16 35 37 47 63s20 40 24 42c9.33301 5.33301 15.666 1 18.999 -13
s3.33301 -27 0 -39c-4 -12.667 -19.5 -32.167 -46.5 -58.5s-53.833 -48.5 -80.5 -66.5c-122 -91.333 -225.333 -127.666 -310 -108.999c-75.333 16.667 -121 70.667 -137 162c-16 90.667 2.33301 188.667 55 294c26 52 60.667 103 104 153s96 95 158 135
c118.667 77.333 259.334 124.333 422.001 141c88.667 8.66699 182.667 8 282 -2c105.333 -12 215.333 -34.667 330 -68c18.667 -5.33301 40.334 -4 65.001 4s36.334 7 35.001 -3c-5.33301 -30 -35.666 -70.833 -90.999 -122.5s-94 -72.5 -116 -62.5
c-71.333 41.333 -149 76.333 -233 105c-74.667 24 -149.334 41.333 -224.001 52c-8.66699 0.666992 -13.334 -4 -14.001 -14c-5.33301 -61.333 -8.33301 -153.666 -9 -276.999c-1.33301 -58 -2 -120 -2 -186s0.333008 -132.333 1 -199c0 -18 6.33301 -19.333 19 -4
c37.333 47.333 91 71.833 161 73.5s131.333 -2.5 184 -12.5c8 -2 18.167 -0.833008 30.5 3.5s21.833 5.83301 28.5 4.5c4 -1.33301 -8.33301 -24.833 -37 -70.5s-52.667 -73.5 -72 -83.5c-22.667 -10.667 -52 -9 -88 5c-33.333 12 -70.5 18.333 -111.5 19
s-74.833 -8 -101.5 -26c-8 -5.33301 -12 -13.333 -12 -24c0 -54 0.5 -106.667 1.5 -158s2.16699 -99 3.5 -143c2 -95.333 4 -166.666 6 -213.999c0.666992 -15.333 8.33398 -23.333 23.001 -24c32 -2 63.333 -7.33301 94 -16s61 -18.667 91 -30l86.5 -35
c28.333 -11.333 56.5 -21 84.5 -29c61.333 -16 114 -16.333 158 -1c54 20 102.333 67.333 145 142c16.667 28.667 28.5 38 35.5 28s9.5 -21 7.5 -33c-8.66699 -48 -69 -106 -181 -174c-51.333 -32 -108.333 -58 -171 -78s-124.667 -25 -186 -15
c-30 5.33301 -59.833 13 -89.5 23l-91.5 30c-32 10 -64.667 18.333 -98 25s-69 8.33398 -107 5.00098c-54.667 -3.33301 -102.667 -40.333 -144 -111z" />
    <glyph glyph-name="F" unicode="F" horiz-adv-x="1355" 
d="M1113 685c-22.667 -10.667 -52.3408 -9.00293 -89.0078 4.99707c-34.667 12 -74 18.167 -118 18.5s-78 -9.83398 -102 -30.501c-6 -5.33301 -9 -13.333 -9 -24c0 -87.333 0.666992 -171.5 2 -252.5s3 -152.833 5 -215.5c2.66699 -136.667 6 -208 10 -214
c1.33301 -2 1.5 -7.5 0.5 -16.5s-11.5 -13.5 -31.5 -13.5c-25.333 0 -51 -6.33301 -77 -19c-25.333 -12 -47 -28.667 -65 -50c-6.66699 -8 -13.667 -13 -21 -15c-7.33301 -0.666992 -9.33301 3.66602 -6 12.999c0.666992 16 2.33398 47.833 5.00098 95.5l10 175.5
c3.33301 68 6.83301 143.667 10.5 227l11.5 254c2.66699 86 4.83398 170 6.50098 252s2.5 156.333 2.5 223c-1.33301 146 -8.66602 229.667 -21.999 251c-9.33301 12.667 -0.666016 28.334 26.001 47.001c11.333 7.33301 24.333 14.666 39 21.999s28 15 40 23
s10.333 12 -5 12c-160 6 -280 -19.667 -360 -77c-90.667 -63.333 -146 -141.333 -166 -234c-18 -78.667 -8.66699 -156.334 28 -233.001c30.667 -63.333 73.667 -100.333 129 -111c52.667 -9.33301 105.334 7.66699 158.001 51c18.667 16 34.167 37 46.5 63
s20.5 40.333 24.5 43c8.66699 4.66699 14.834 0.166992 18.501 -13.5s3.83398 -26.5 0.500977 -38.5c-4 -13.333 -19.667 -32.666 -47 -57.999s-54 -47.666 -80 -66.999c-121.333 -88.667 -223.666 -125 -306.999 -109c-74.667 14.667 -121 65.667 -139 153
c-17.333 87.333 -2.33301 182.333 45 285c53.333 114 135 209.667 245 287c54.667 38.667 117.667 71.667 189 99c70.667 26.667 150.334 45.667 239.001 57c90.667 10 187.334 10.333 290.001 1c110 -12 224 -35 342 -69c18 -6 39.5 -4.83301 64.5 3.5s36.5 7.5 34.5 -2.5
c-4.66699 -30 -36 -71.833 -94 -125.5s-98 -74.5 -120 -62.5c-78.667 42 -157.667 76 -237 102c-72.667 24.667 -146.334 41.334 -221.001 50.001c-4.66699 0.666992 -8 -0.333008 -10 -3c-3.33301 -2.66699 -5 -5.66699 -5 -9c-4 -62 -7 -155.333 -9 -280
c-0.666992 -58 -1.16699 -120 -1.5 -186s-0.166016 -133 0.500977 -201c0 -21.333 6 -23 18 -5c39.333 52.667 97.166 78.834 173.499 78.501s135.166 -4.16602 176.499 -11.499c11.333 -2 23.5 0.5 36.5 7.5s20.5 7.16699 22.5 0.5c0.666992 -4 -12.333 -28.167 -39 -72.5
s-49.667 -71.166 -69 -80.499z" />
    <glyph glyph-name="G" unicode="G" horiz-adv-x="974" 
d="M683 438c-86 -116.667 -172.337 -194.007 -259.004 -232.007c-88.667 -38 -169.667 -20.333 -243 53c-77.333 76 -121.333 193.333 -132 352c-8 130 15 259 69 387c60.667 144.667 155.667 270.334 285 377.001c52 42 105.833 79.167 161.5 111.5s108.5 54.5 158.5 66.5
c112 26.667 182 -5 210 -95c14.667 -48 11.334 -117.5 -9.99902 -208.5s-49.666 -174.167 -84.999 -249.5c-36 -76 -73.333 -129.667 -112 -161s-68.334 -11.666 -89.001 59.001c-21.333 74.667 -28.333 156.334 -21 245.001c7.33301 95.333 29.666 180.333 66.999 255
c6.66699 15.333 2.66699 25 -12 29c-36.667 8.66699 -77 4.33398 -121 -12.999c-44.667 -18.667 -85 -47.667 -121 -87c-59.333 -66 -103.166 -136.833 -131.499 -212.5s-46.166 -150.5 -53.499 -224.5c-8 -74 -7.66699 -144 1 -210s20.667 -121.667 36 -167
c46 -142 117 -200.5 213 -175.5s160.333 94.833 193 209.5c16 56.667 51.833 103.5 107.5 140.5s91.5 70.833 107.5 101.5c8 14.667 15.333 17.167 22 7.5s8.33398 -18.5 5.00098 -26.5c-18 -40 -27.667 -82.667 -29 -128s1.33398 -92.333 8.00098 -141
c6 -49.333 14.667 -99.666 26 -150.999s21.666 -103 30.999 -155c8.66699 -52 14.167 -103.333 16.5 -154s-1.5 -100.667 -11.5 -150c-23.333 -105.333 -82 -194 -176 -266c-127.333 -96 -262.666 -132 -405.999 -108c-68 12 -129.5 41.333 -184.5 88s-95.5 113 -121.5 199
c-4.66699 16 -6.66699 33.333 -6 52s8 33.334 22 44.001c26 22 51.833 53.333 77.5 94s45.167 67.334 58.5 80.001c14.667 14 22.5 14.833 23.5 2.5s0.5 -21.166 -1.5 -26.499c-30 -78 -19.667 -155.5 31 -232.5s114 -134.167 190 -171.5
c75.333 -36.667 149.5 -44.167 222.5 -22.5s117.167 91.834 132.5 210.501c5.33301 42 5 85.167 -1 129.5s-14.333 86.833 -25 127.5c-14.667 53.333 -30.667 108.666 -48 165.999s-33.333 116.333 -48 177c-5.33301 19.333 -14.333 20.666 -27 3.99902zM700.996 1387.99
c-6.66699 -20 -10.834 -52.833 -12.501 -98.5s-0.5 -91.834 3.5 -138.501c2.66699 -47.333 8 -89 16 -125s18.667 -54.667 32 -56c14 -2 24.5 13.833 31.5 47.5s10.5 73.5 10.5 119.5s-4.16699 92.5 -12.5 139.5s-21.166 83.5 -38.499 109.5
c-14 20.667 -24 21.334 -30 2.00098z" />
    <glyph glyph-name="H" unicode="H" horiz-adv-x="1351" 
d="M468 912c18 22 30.167 43.165 36.5 63.498s12.5 33.833 18.5 40.5c8 7.33301 15.833 8 23.5 2s11.167 -15 10.5 -27c-1.33301 -12.667 -14.166 -32.5 -38.499 -59.5s-46.5 -52.833 -66.5 -77.5c-101.333 -121.333 -191.333 -192.666 -270 -213.999
c-72 -20 -123 1.66699 -153 65c-33.333 66 -33 156.333 1 271c16 56 40.667 115.5 74 178.5s77 126.5 131 190.5c70.667 84 140.5 142.667 209.5 176s131.167 44 186.5 32c120.667 -28 185.667 -134.667 195 -320c2 -58 1.66699 -118.667 -1 -182
c-3.33301 -68 -8.33301 -138.667 -15 -212c-8.66699 -86.667 -17 -161.667 -25 -225c-1.33301 -15.333 3.66699 -23.666 15 -24.999c22.667 -2 45.5 -4.66699 68.5 -8l68.5 -10c12 -2.66699 18.667 4.33301 20 21c10 168.667 34 329.334 72 482.001
c39.333 155.333 85 266.666 137 333.999c6 8.66699 19.167 15.667 39.5 21s53.166 37.333 98.499 96c26 32.667 41.5 41 46.5 25s-0.5 -29 -16.5 -39c-42 -24.667 -78.833 -69.834 -110.5 -135.501s-57.5 -142.167 -77.5 -229.5
c-20.667 -88 -35.834 -182.167 -45.501 -282.5s-13.5 -197.5 -11.5 -291.5c0 -14 6 -21.333 18 -22c79.333 -7.33301 144.666 -2.66602 195.999 14.001c62.667 18.667 116.334 59.334 161.001 122.001c13.333 18 24 25.667 32 23s11.333 -10 10 -22
c-2 -26.667 -41.333 -63.334 -118 -110.001c-83.333 -51.333 -175.666 -90 -276.999 -116c-12 -3.33301 -17.333 -11 -16 -23c10.667 -143.333 33.667 -247.666 69 -312.999c39.333 -74 89 -87.667 149 -41c22 16.667 41.167 21.167 57.5 13.5s12.5 -17.834 -11.5 -30.501
c-16 -8.66699 -33.333 -24 -52 -46s-39 -44.667 -61 -68c-22 -22 -45.5 -41.333 -70.5 -58s-51.5 -23.667 -79.5 -21c-48 6 -85 61 -111 165c-24 96.667 -35.333 221.667 -34 375c0 13.333 -4.66699 20 -14 20c-26.667 -1.33301 -46.667 -1.66602 -60 -0.999023
c-30.667 0.666992 -63 4.33398 -97 11.001c-12 1.33301 -18.667 -5 -20 -19c-18.667 -118.667 -35.667 -219.334 -51 -302.001c-16 -83.333 -27 -129.666 -33 -138.999c-19.333 -30 -40.666 -48.667 -63.999 -56s-43 -20.333 -59 -39c-13.333 -14 -22 -26.667 -26 -38
s-9.33301 -15 -16 -11s-6 12.667 2 26c12.667 24 30 92 52 204c21.333 117.333 39.666 245.666 54.999 384.999c1.33301 14.667 -4 23.334 -16 26.001c-66 9.33301 -126 10 -180 2c-34 -5.33301 -69 -21.166 -105 -47.499s-65.333 -55.166 -88 -86.499
c-20.667 -28 -31.667 -32.833 -33 -14.5s1.33398 31.166 8.00098 38.499c66.667 75.333 134.667 129.166 204 161.499s139 51.5 209 57.5c10 1.33301 15 8.66602 15 21.999c10 128.667 14.667 252.667 14 372s-12.667 214 -36 284
c-30.667 86.667 -83.667 131.334 -159 134.001c-71.333 2 -133.333 -30.333 -186 -97c-57.333 -72.667 -89.833 -147.334 -97.5 -224.001s1.16602 -139.334 26.499 -188.001c24.667 -49.333 61.667 -76.5 111 -81.5s103 27.833 161 98.5z" />
    <glyph glyph-name="I" unicode="I" horiz-adv-x="780" 
d="M227 1334c-44.667 -68 -64.332 -135.162 -58.999 -201.495s23.666 -119.833 54.999 -160.5c30.667 -41.333 68 -64 112 -68s83 22.667 117 80c10.667 18.667 18.167 38.167 22.5 58.5s7.83301 31.833 10.5 34.5c8 6.66699 15 3.5 21 -9.5s8.66699 -25.5 8 -37.5
c-0.666992 -12.667 -10.667 -32 -30 -58l-58 -75c-74 -92.667 -145 -141 -213 -145c-62 -4.66699 -109 24.666 -141 87.999c-30 58 -39 134 -27 228s54 185.667 126 275c71.333 88.667 140 150.334 206 185.001c59.333 32 115 42.667 167 32c46 -10 86 -36.333 120 -79
c30.667 -40 51.334 -89 62.001 -147c9.33301 -54 14.666 -147 15.999 -279c0.666992 -122.667 -2 -258.334 -8 -407.001c-6.66699 -156 -14.667 -288 -24 -396c-10 -124.667 -19.667 -206.334 -29 -245.001c-4 -13.333 -11.333 -24.333 -22 -33l-44 -34.5
c-18.667 -15 -35 -29.5 -49 -43.5c-9.33301 -8.66699 -16.333 -18.334 -21 -29.001s-7.33398 -16 -8.00098 -16c-8 -3.33301 -12.833 -2 -14.5 4s-2.16699 9.33301 -1.5 10c12 27.333 23.333 95 34 203c10 104.667 17.667 228.667 23 372c4.66699 134 6 274.333 4 421
c-3.33301 145.333 -10.666 262.666 -21.999 351.999c-17.333 124.667 -65 196.667 -143 216c-74 17.333 -137.333 -14.334 -190 -95.001z" />
    <glyph glyph-name="J" unicode="J" horiz-adv-x="1020" 
d="M345 228c-30.667 0.666992 -63.333 -23.667 -98 -73c-29.333 -42 -48.333 -80.667 -57 -116c-20 -69.333 -21.333 -136.666 -4 -201.999s48 -119 92 -161c44 -40.667 98.167 -64.667 162.5 -72s134.166 12 209.499 58c43.333 27.333 79.333 74.666 108 141.999
c28 71.333 43 149.333 45 234c1.33301 57.333 -0.5 113.333 -5.5 168s-11.167 108.334 -18.5 161.001c-8 52.667 -16.5 104.834 -25.5 156.501s-16.833 103.5 -23.5 155.5c-6.66699 51.333 -11.5 102.833 -14.5 154.5s-2.16699 104.167 2.5 157.5
c9.33301 114 37.666 224 84.999 330c6.66699 15.333 3.66699 28.666 -9 39.999c-66.667 52 -136.667 68.833 -210 50.5s-122 -39.5 -146 -63.5c-58 -57.333 -88.667 -116.333 -92 -177s7.16699 -114 31.5 -160s55.5 -80.5 93.5 -103.5s69.667 -24.833 95 -5.5
c6 4.66699 13.833 12.667 23.5 24s16.167 7 19.5 -13c2 -12.667 -19.333 -52.167 -64 -118.5s-91 -101.833 -139 -106.5c-47.333 -5.33301 -84.333 6.5 -111 35.5s-44 68.167 -52 117.5c-18 103.333 0 220.666 54 351.999c25.333 61.333 58.333 119.166 99 173.499
s88.667 98.5 144 132.5c54 32.667 114.833 51.834 182.5 57.501s141.167 -9.16602 220.5 -44.499c11.333 -6 15 -11.833 11 -17.5s-7.33301 -11.834 -10 -18.501c-30 -68 -50.833 -133.5 -62.5 -196.5s-17.5 -124.5 -17.5 -184.5s4.66699 -118.833 14 -176.5
s20.333 -114.5 33 -170.5c24.667 -112.667 46.167 -224.167 64.5 -334.5s15.5 -225.5 -8.5 -345.5c-20.667 -100.667 -59 -189.667 -115 -267s-121.667 -141 -197 -191c-84 -54 -162 -89.667 -234 -107s-136 -20.666 -192 -9.99902
c-112.667 22.667 -187 87.334 -223 194.001c-26.667 84 -18 177.333 26 280c48 108.667 126.667 200.667 236 276c72 49.333 135.167 69.666 189.5 60.999s95.5 -33 123.5 -73c28 -41.333 41.5 -91.5 40.5 -150.5s-20.167 -114.167 -57.5 -165.5
c-4 -6 -29.333 -28.167 -76 -66.5s-84 -65.166 -112 -80.499c-21.333 -12 -35.666 -12.5 -42.999 -1.5s-0.333008 18.5 21 22.5c26.667 5.33301 46.167 31.166 58.5 77.499s17.833 96.166 16.5 149.499s-9.16602 102 -23.499 146s-34.5 66 -60.5 66z" />
    <glyph glyph-name="K" unicode="K" horiz-adv-x="1490" 
d="M478 964c16 20 24.166 40.665 24.499 61.998s12.5 35 36.5 41c22 4.66699 25.333 -6.66602 10 -33.999l-32 -56c-12.667 -20.667 -23.667 -37 -33 -49c-94 -130 -181.167 -198.667 -261.5 -206s-136.5 22 -168.5 88c-31.333 64.667 -29.5 146 5.5 244
s85.833 189 152.5 273c64.667 83.333 133 147 205 191c77.333 46.667 143.666 59.667 198.999 39c62 -24 106 -68.833 132 -134.5s42 -141.5 48 -227.5c5.33301 -86 4.5 -176.5 -2.5 -271.5s-12.167 -182.833 -15.5 -263.5c-1.33301 -26 5.33398 -27.333 20.001 -4
c38 62.667 79.5 138.334 124.5 227.001l126.5 257c39.333 82.667 72.333 154.667 99 216s41 96.333 43 105c2.66699 17.333 38.834 36.166 108.501 56.499s117.834 42.5 144.501 66.5c30 28 45.833 33.5 47.5 16.5s-2.5 -27.833 -12.5 -32.5
c-6 -3.33301 -17.167 -13.333 -33.5 -30s-28.833 -30.667 -37.5 -42c-34.667 -45.333 -77.667 -105.666 -129 -180.999l-158 -239l-153 -248c-48 -81.333 -86 -150.333 -114 -207c-10 -18 -13.333 -31 -10 -39c23.333 -66 65 -137.667 125 -215
c60.667 -80 129 -151.333 205 -214c83.333 -68.667 162.333 -114.667 237 -138c84.667 -26 157.334 -21.667 218.001 13c44.667 26.667 55.667 24 33 -8l-69.5 -94c-24.333 -33.333 -50.833 -63.333 -79.5 -90c-68 -60 -140 -80.667 -216 -62
c-50 12.667 -100.667 45 -152 97s-100 111 -146 177c-46.667 66 -89.334 132.833 -128.001 200.5l-96 167.5c-10.667 16.667 -16.667 17 -18 1c-10.667 -94 -21.334 -178.167 -32.001 -252.5s-20 -127.5 -28 -159.5c-4.66699 -16.667 -8.33398 -26.667 -11.001 -30
c-32.667 -36.667 -56.5 -57 -71.5 -61s-30.5 -15.333 -46.5 -34c-12 -12.667 -18 -21.667 -18 -27s-3 -9 -9 -11c-14.667 -4 -18.667 0 -12 12c12.667 26 26.334 91.333 41.001 196c12 92.667 23 212 33 358c4 66 7.33301 134 10 204s4.66699 138 6 204
c2 136.667 -1 253 -9 349c-10.667 117.333 -53 189.5 -127 216.5s-148.333 1.16699 -223 -77.5c-42 -44 -64.833 -99.333 -68.5 -166s6.5 -124 30.5 -172c24 -48.667 58.667 -78.167 104 -88.5s96 18.5 152 86.5z" />
    <glyph glyph-name="L" unicode="L" horiz-adv-x="840" 
d="M489 924c23.333 21.333 42.4961 66.835 57.4961 136.502s23.333 138.5 25 206.5s-5.16602 122.167 -20.499 162.5s-41.333 41.833 -78 4.5c-30 -30 -49.167 -73.333 -57.5 -130s-10.833 -116.667 -7.5 -180c2.66699 -63.333 8.83398 -124.833 18.501 -184.5l23.5 -141.5
c8.66699 -52 15.834 -106.167 21.501 -162.5s7.83398 -111.5 6.50098 -165.5c-4.66699 -122.667 -29 -217.667 -73 -285c-10 -14.667 -8 -22.334 6 -23.001c75.333 -4 155.5 -37.833 240.5 -101.5s166.833 -106.167 245.5 -127.5
c80.667 -21.333 140.334 0.333984 179.001 65.001c9.33301 16 18.833 21.667 28.5 17s14.167 -10.334 13.5 -17.001c-5.33301 -28.667 -25.333 -65.167 -60 -109.5s-74.667 -85.5 -120 -123.5c-46 -38 -92.5 -67 -139.5 -87s-85.5 -20.333 -115.5 -1
c-23.333 15.333 -51.833 44.5 -85.5 87.5s-69.167 86.167 -106.5 129.5c-38 44 -76 80.667 -114 110s-73 38.333 -105 27c-25.333 -9.33301 -55.833 -31.5 -91.5 -66.5s-74.5 -52.5 -116.5 -52.5c-45.333 0 -53.333 18.333 -24 55s55.333 66.334 78 89.001
c42.667 44 90 74.667 142 92c11.333 3.33301 19.333 14.333 24 33c12 48 17.667 104.333 17 169s-3 113.667 -7 147c-15.333 109.333 -31.5 207.666 -48.5 294.999s-23.833 170 -20.5 248c2.66699 77.333 21.167 152.833 55.5 226.5s95.5 151.167 183.5 232.5
c66 60.667 121.167 77.834 165.5 51.501s78.5 -69.5 102.5 -129.5c23.333 -60.667 36.166 -125.334 38.499 -194.001s-5.5 -115 -23.5 -139c-4.66699 -6.66699 -37.667 -33.167 -99 -79.5s-107.333 -77.166 -138 -92.499c-9.33301 -4.66699 -16 -5.33398 -20 -2.00098
s-4.33301 6.66602 -1 9.99902z" />
    <glyph glyph-name="M" unicode="M" horiz-adv-x="1825" 
d="M36 240c46 87.333 100.167 137.832 162.5 151.499s108.5 47.5 138.5 101.5c10.667 19.333 22.667 21.833 36 7.5s3.33301 -33.5 -30 -57.5c-58 -43.333 -90.833 -101.333 -98.5 -174s0.5 -136 24.5 -190s59.833 -86.833 107.5 -98.5s98.834 21.5 153.501 99.5
c50 72 90 168 120 288c28 112 45.667 231 53 357c8 120.667 5.66699 235 -7 343c-11.333 104 -31 183.333 -59 238c-6.66699 14 5.33301 33.667 36 59c33.333 27.333 68.833 53.166 106.5 77.499s71.834 57.833 102.501 100.5c17.333 24.667 31.333 35.5 42 32.5
s14 -13.5 10 -31.5c-2.66699 -8.66699 -7.5 -18.167 -14.5 -28.5s-11.167 -18.166 -12.5 -23.499c-6.66699 -25.333 -4.16699 -83.666 7.5 -174.999s27.834 -193.666 48.501 -306.999c20 -114 42.5 -227.667 67.5 -341s47.5 -204.666 67.5 -273.999c6 -24 12.333 -24 19 0
c24 86 47.167 174.5 69.5 265.5s41.5 177.5 57.5 259.5c14.667 82 25 156 31 222s4.66699 117.333 -4 154c-4 14 16.667 36.5 62 67.5l130 88.5c27.333 18.667 56.666 48.334 87.999 89.001c24 32 39.5 35.5 46.5 10.5s-2.16699 -44.5 -27.5 -58.5
c-36 -22 -58.167 -93.5 -66.5 -214.5s-5.5 -255.833 8.5 -404.5c10 -106.667 25 -212.667 45 -318s44 -196.333 72 -273c28.667 -79.333 58.334 -130 89.001 -152s83.334 1 158.001 69c20 18.667 35 21.667 45 9s3.66699 -25.334 -19 -38.001
c-30.667 -17.333 -76.834 -71.833 -138.501 -163.5s-121.5 -132.834 -179.5 -123.501c-32 5.33301 -62.167 38.166 -90.5 98.499s-51.5 133.5 -69.5 219.5c-18.667 86.667 -33.334 182.334 -44.001 287.001c-11.333 91.333 -19 196 -23 314
c-0.666992 18 -3.83398 25 -9.50098 21s-10.167 -12 -13.5 -24l-67 -232.5l-63 -215.5l-54 -178.5c-16 -52.333 -29 -92.5 -39 -120.5c-9.33301 -24.667 -24 -50.667 -44 -78c-16 -22 -35 -46 -57 -72s-41.667 -40 -59 -42c-14.667 -1.33301 -19 6 -13 22
c6.66699 22.667 8 65 4 127s-11 135.333 -21 220c-11.333 84 -25 174.333 -41 271l-49 282c-2 11.333 -5 17.5 -9 18.5s-6.66699 -4.5 -8 -16.5c-8 -76 -18 -151.667 -30 -227s-28 -147 -48 -215c-20.667 -68.667 -46.834 -132.834 -78.501 -192.501
s-71.167 -112.167 -118.5 -157.5c-54 -51.333 -117.167 -92.333 -189.5 -123s-145.5 -26 -219.5 14c-58 32 -97.667 81.333 -119 148s-13 136 25 208z" />
    <glyph glyph-name="N" unicode="N" horiz-adv-x="1528" 
d="M225 1223c-42 -58.667 -64.332 -117.17 -66.999 -175.503s7.66602 -106.833 30.999 -145.5c25.333 -44 62.333 -68.667 111 -74s98.667 22.667 150 84c18 22 32.333 49.833 43 83.5s24 41.5 40 23.5c10.667 -12.667 9 -28.667 -5 -48s-23.667 -33.666 -29 -42.999
c-58 -91.333 -116.333 -156 -175 -194s-112.667 -56.667 -162 -56c-74.667 1.33301 -124.167 37 -148.5 107s-12 158.833 37 266.5s132.167 210.834 249.5 309.501c65.333 54 130.333 90.333 195 109s123.667 7.33398 177 -33.999
c31.333 -25.333 54.666 -60.333 69.999 -105s26 -93 32 -145c4.66699 -53.333 6.33398 -111.5 5.00098 -174.5s-3.33301 -117.5 -6 -163.5c-2 -20.667 0.333008 -29.5 7 -26.5s12.334 11.833 17.001 26.5c25.333 80 53.333 163.667 84 251s62.667 166.666 96 237.999
c24.667 62 62.834 130 114.501 204s98.167 118.667 139.5 134c34.667 14.667 57.667 15.334 69 2.00098c4.66699 -8 0.666992 -37 -12 -87c-30 -124.667 -51.167 -262.5 -63.5 -413.5s-14.666 -293.667 -6.99902 -428s25.167 -257.666 52.5 -369.999s63 -191.833 107 -238.5
c45.333 -38.667 108.666 -20 189.999 56c20 18 35.667 20.5 47 7.5s5.66602 -25.5 -17.001 -37.5c-30 -16.667 -73.167 -69.5 -129.5 -158.5s-112.5 -136.167 -168.5 -141.5c-133.333 0 -216 169.333 -248 508c-16 148.667 -18.833 307.667 -8.5 477s31.833 335 64.5 497
c8.66699 39.333 8.5 59.5 -0.5 60.5s-21.167 -7.5 -36.5 -25.5c-46.667 -74.667 -90 -166 -130 -274c-26 -71.333 -48.5 -140.5 -67.5 -207.5s-36.833 -135.167 -53.5 -204.5c-36 -144 -65 -284.833 -87 -422.5s-38.333 -227.167 -49 -268.5c-6 -20.667 -10 -32 -12 -34
c-7.33301 -15.333 -27.833 -33.5 -61.5 -54.5s-58.834 -42.5 -75.501 -64.5c-6.66699 -8.66699 -12 -16 -16 -22c-6.66699 -6.66699 -12.834 -6.66699 -18.501 0s-4.5 17 3.5 31c17.333 27.333 35.333 121.333 54 282l22 280.5c6.66699 88.333 11.667 176.166 15 263.499
c3.33301 108 3.33301 209 0 303s-11.666 167.667 -24.999 221c-23.333 94 -73.5 137.333 -150.5 130s-141.5 -47 -193.5 -119z" />
    <glyph glyph-name="O" unicode="O" horiz-adv-x="1135" 
d="M789 83c-50.667 -70.667 -99.999 -125.667 -147.999 -165c-53.333 -42 -105.666 -61.333 -156.999 -58c-133.333 10.667 -240 80.667 -320 210c-38 60 -67.667 128.833 -89 206.5s-35.333 159.167 -42 244.5c-14 170 0.833008 339.667 44.5 509s112.5 298.333 206.5 387
c46 44 90.667 73.667 134 89s81.333 23 114 23c13.333 0 23.166 1.5 29.499 4.5l27.5 13.5c66 28.667 133 30.167 201 4.5s126 -89.834 174 -192.501c62.667 -134.667 93 -286 91 -454c-1.33301 -28.667 9.66699 -33.334 33 -14.001c46 38 89.5 82.833 130.5 134.5
s69.167 106.5 84.5 164.5c10 39.333 25.167 48.333 45.5 27s14.5 -55 -17.5 -101c-77.333 -112.667 -164.333 -207.667 -261 -285c-12 -9.33301 -19.333 -28.666 -22 -57.999c-13.333 -126 -43 -249.667 -89 -371c-46.667 -121.333 -103.334 -227.666 -170.001 -318.999z
M498.001 1314c-20.667 -54 -25.501 -114.168 -14.501 -180.501s34.167 -127.5 69.5 -183.5c34 -56 78.5 -101.5 133.5 -136.5s115.833 -47.5 182.5 -37.5c22.667 2.66699 32.334 16.334 29.001 41.001c-18 143.333 -54 268.333 -108 375
c-58 108.667 -122.333 169.667 -193 183c-46.667 8 -79.667 -12.333 -99 -61zM875 709.999c-137.333 -66 -256.335 -87.3311 -357.002 -63.998c-90.667 19.333 -158 70.666 -202 153.999c-42 77.333 -56 169.333 -42 276c13.333 109.333 53.666 210.666 120.999 303.999
c20.667 26.667 15 34.667 -17 24c-26 -8.66699 -48.667 -22.5 -68 -41.5s-37 -39.167 -53 -60.5c-35.333 -46.667 -60.666 -104.167 -75.999 -172.5s-22.666 -141.5 -21.999 -219.5c2 -161.333 31 -320 87 -476c30 -82 63.667 -152 101 -210
c40.667 -63.333 83.334 -109.333 128.001 -138c103.333 -65.333 203.666 -39.333 300.999 78c54 65.333 90.333 144.666 109 237.999s26.667 188.333 24 285c-1.33301 24.667 -12.666 32.334 -33.999 23.001z" />
    <glyph glyph-name="P" unicode="P" horiz-adv-x="1418" 
d="M1034 1539c139.333 -34 244 -91.6689 314 -173.002c65.333 -78 90.333 -164.667 75 -260c-17.333 -97.333 -74.333 -187.666 -171 -270.999c-106 -90 -245.667 -157.667 -419 -203c-10 -3.33301 -15 -11.666 -15 -24.999c0.666992 -174 3.33398 -327.333 8.00098 -460
c2.66699 -132.667 6 -202.667 10 -210c1.33301 -2 1.33301 -7.16699 0 -15.5s-12 -13.166 -32 -14.499c-54.667 -1.33301 -104 -24 -148 -68c-10 -10 -17.333 -15 -22 -15c-4.66699 -0.666992 -7 3.66602 -7 12.999c4.66699 31.333 11.167 110 19.5 236s15.5 267 21.5 423
s8.66699 310.333 8 463s-7.66699 271.334 -21 356.001c-3.33301 19.333 6 35.666 28 48.999l69 41c23.333 13.333 20.666 20.666 -8.00098 21.999c-90.667 2.66699 -175.667 -6 -255 -26c-70 -19.333 -123 -42.666 -159 -69.999c-87.333 -66 -139 -137.667 -155 -215
s-9 -144 21 -200c28.667 -56 73.5 -92.333 134.5 -109s124.833 3.66602 191.5 60.999c19.333 16.667 35 38.334 47 65.001s20 41 24 43c9.33301 6 16 4.5 20 -4.5s4.66699 -19.5 2 -31.5c-3.33301 -11.333 -15.5 -28 -36.5 -50l-46.5 -49
c-79.333 -86.667 -154.333 -148 -225 -184c-68.667 -34.667 -123.334 -42.667 -164.001 -24c-46 20 -78.667 57 -98 111s-23.666 115.667 -12.999 185c10 68.667 36.167 140 78.5 214s101.5 141 177.5 201c117.333 92 234.333 155 351 189c128 36 259.667 38 395 6z
M877 1415c-32 4 -48.668 -4.66406 -50.001 -25.9971c-4 -66 -7 -158.333 -9 -277c-0.666992 -56.667 -1.16699 -116.834 -1.5 -180.501s-0.166016 -128.167 0.500977 -193.5c0 -20.667 6.33301 -29.334 19 -26.001c127.333 23.333 227.333 70.666 300 141.999
c64.667 63.333 97.667 136.333 99 219c0.666992 80 -29.333 151.667 -90 215c-66.667 66 -156 108.333 -268 127z" />
    <glyph glyph-name="Q" unicode="Q" horiz-adv-x="1028" 
d="M677 255c-139.333 -136 -263.668 -188.336 -373.001 -157.003c-50 14 -93.333 43.5 -130 88.5s-66.334 99.5 -89.001 163.5c-48 130.667 -65.333 275.334 -52 434.001c6 74 19.333 145.167 40 213.5s49.334 126.833 86.001 175.5c44 58 113 137.833 207 239.5
s184 153.834 270 156.501c108 4 194 -20.5 258 -73.5s110.333 -122.5 139 -208.5c63.333 -196 61.666 -403.667 -5.00098 -623c-34 -110.667 -86 -222.167 -156 -334.5s-159.333 -221.833 -268 -328.5c-14.667 -12.667 -13.667 -23 3 -31
c74.667 -34.667 155.5 -82.167 242.5 -142.5s172.833 -114.5 257.5 -162.5c84 -47.333 163.5 -78.666 238.5 -93.999s138.167 4 189.5 58c12 14 20.333 26 25 36s17 11 37 3c32.667 -14 21.167 -38.167 -34.5 -72.5l-179.5 -105.5c-52.667 -30 -106.834 -46 -162.501 -48
s-111.5 5 -167.5 21c-56 16.667 -111.5 40.334 -166.5 71.001s-108.167 63.334 -159.5 98.001c-52 36 -101.167 71.833 -147.5 107.5s-89.166 67.167 -128.499 94.5c-88 61.333 -147.667 85 -179 71c-66 -27.333 -85.5 -21.833 -58.5 16.5s81.5 66.833 163.5 85.5
c16 4 29.333 6.83301 40 8.5s23.667 6.5 39 14.5c186.667 92 321.667 221.333 405 388c78.667 157.333 101.667 327 69 509c-19.333 106 -53.333 200 -102 282c-45.333 73.333 -99 128 -161 164c-60.667 33.333 -121 44.666 -181 33.999
c-63.333 -13.333 -117.666 -49 -162.999 -107c-60.667 -76.667 -98 -177.334 -112 -302.001c-13.333 -111.333 -5.66602 -227.333 23.001 -348c26.667 -116.667 66.667 -213 120 -289c57.333 -82 117.333 -124.333 180 -127c62 -4 107 16.667 135 62c20.667 32 36 44 46 36
c10 -8.66699 7.16699 -22.5 -8.5 -41.5z" />
    <glyph glyph-name="R" unicode="R" horiz-adv-x="1520" 
d="M1051 1546c131.333 -32 232.998 -86.3311 304.998 -162.998c66.667 -73.333 96 -155.333 88 -246c-8 -92.667 -52 -179.667 -132 -261c-88 -88 -207.667 -158.333 -359 -211c-14.667 -4.66699 -20.667 -12 -18 -22c28.667 -96.667 75 -192 139 -286
c61.333 -92.667 132.333 -172.667 213 -240c82.667 -70.667 162.667 -117 240 -139c84 -24.667 157.667 -20.334 221 12.999c10 5.33301 16.667 12 20 20s8 13.333 14 16c10.667 4.66699 18.834 3.5 24.501 -3.5s-0.5 -21.167 -18.5 -42.5
c-11.333 -12 -26.833 -33.833 -46.5 -65.5s-44.5 -62.834 -74.5 -93.501c-30 -30 -65.667 -54.833 -107 -74.5s-89 -23.834 -143 -12.501c-52.667 12.667 -107.834 49.834 -165.501 111.501s-112.5 132.5 -164.5 212.5c-52.667 80.667 -100 163.667 -142 249
s-73.333 158.333 -94 219c-8 24 -12 23.667 -12 -1c0.666992 -78 1.66699 -151.833 3 -221.5s3 -131.167 5 -184.5c2.66699 -115.333 5.66699 -175.333 9 -180c1.33301 -2 1.5 -7.16699 0.5 -15.5s-11.833 -13.166 -32.5 -14.499c-13.333 0 -35.666 -5 -66.999 -15
s-52.333 -21 -63 -33c-20 -22 -33 -33.667 -39 -35c-8 -0.666992 -10.333 3.66602 -7 12.999c5.33301 44 11.666 134.667 18.999 272c4 69.333 7.83301 145.833 11.5 229.5s6.5 168.5 8.5 254.5s3 169.667 3 251s-1 155 -3 221c-2.66699 64.667 -7 118.5 -13 161.5
s-14 68.5 -24 76.5c-16 12 -7.5 27.5 25.5 46.5l95.5 55.5c24 13.333 23.333 20.666 -2 21.999c-91.333 2.66699 -178.666 -6.66602 -261.999 -27.999c-71.333 -18.667 -126.666 -42.667 -165.999 -72c-86.667 -66 -138 -137.667 -154 -215s-9.33301 -144 20 -200
s74.5 -92.333 135.5 -109s124.833 3.66602 191.5 60.999c18.667 16.667 34.167 38.334 46.5 65.001s20.5 41 24.5 43c8.66699 6 15.167 4.5 19.5 -4.5s4.83301 -19.5 1.5 -31.5s-15.333 -28.833 -36 -50.5l-46 -48.5c-81.333 -89.333 -156.5 -150.833 -225.5 -184.5
s-123.833 -41.5 -164.5 -23.5c-46 20 -78.5 57 -97.5 111s-23.167 115.667 -12.5 185c10 68.667 36 140 78 214s101.333 141 178 201c114.667 90 231.667 153.333 351 190c132.667 40 266 44.333 400 13zM871.998 1424c-16 1.33301 -24.334 -6.99902 -25.001 -24.999
c-4 -64 -7 -157.333 -9 -280c-0.666992 -58 -1 -119.5 -1 -184.5v-197.5c0 -16.667 6.33301 -23.334 19 -20.001c135.333 26 238 75.333 308 148c64 66 93.333 140.333 88 223c-4.66699 80.667 -40 152.334 -106 215.001c-71.333 65.333 -162.666 105.666 -273.999 120.999z
" />
    <glyph glyph-name="S" unicode="S" horiz-adv-x="1150" 
d="M387 1194c-50.667 -92.667 -67.3311 -175.667 -49.998 -249c16.667 -76.667 69 -141.667 157 -195l146.5 -86l151.5 -85l136.5 -78c42.333 -24 76.5 -45 102.5 -63c72 -50 110 -100.167 114 -150.5s-9.66699 -97.833 -41 -142.5c-32 -44.667 -72.833 -84.667 -122.5 -120
s-92.5 -64 -128.5 -86c-25.333 -15.333 -57.333 -31.166 -96 -47.499s-80 -28.166 -124 -35.499c-44.667 -6.66699 -90.167 -6 -136.5 2s-89.833 28.667 -130.5 62c-30.667 26 -58.834 52.333 -84.501 79l-71.5 73c-52.667 50 -96.334 74.333 -131.001 73
c-10.667 -0.666992 -20.167 -6.16699 -28.5 -16.5s-14.833 -15.166 -19.5 -14.499c-13.333 1.33301 -17 9.33301 -11 24s16.667 29 32 43c18 17.333 42.833 37 74.5 59s58.834 37 81.501 45c48 16 92 3.16699 132 -38.5s82 -87.834 126 -138.501
s92.833 -93.334 146.5 -128.001s118.5 -37.334 194.5 -8.00098c60 23.333 99.333 72 118 146s-6 129.333 -74 166l-135.5 69.5l-131.5 65.5l-124.5 63c-39.667 20.667 -76.834 41.667 -111.501 63c-70 42 -127.333 86.833 -172 134.5s-68.667 101.834 -72 162.501
c-4 52.667 7 106.167 33 160.5s60 106.5 102 156.5c40.667 50 85.834 96.5 135.501 139.5s96.5 80.167 140.5 111.5c57.333 40 115.666 74 174.999 102s115 45.667 167 53c114.667 15.333 186.667 -23.667 216 -117c18 -62 23 -125.167 15 -189.5s-22 -125.5 -42 -183.5
c-21.333 -58 -45.333 -110.667 -72 -158s-49.334 -85 -68.001 -113c-30 -44 -57.667 -70.333 -83 -79s-47.666 20.666 -66.999 87.999c-24.667 84.667 -35.834 180.167 -33.501 286.5s24.5 199.833 66.5 280.5c8 16 5 26.333 -9 31
c-59.333 17.333 -129.666 3.5 -210.999 -41.5s-142 -103.5 -182 -175.5zM823.003 1360c-6 -27.333 -9.50098 -66.667 -10.501 -118s0.833008 -102.333 5.5 -153c4 -52 10.833 -97.167 20.5 -135.5s22.167 -58.166 37.5 -59.499c15.333 -2 25.333 16.333 30 55
s5.33398 84.667 2.00098 138c-4 52 -11.667 104.667 -23 158s-25 93.666 -41 120.999c-10 15.333 -17 13.333 -21 -6z" />
    <glyph glyph-name="T" unicode="T" horiz-adv-x="1140" 
d="M780 -146c1.33301 16.667 3.66992 50.002 7.00293 100.002l12 180c4 70.667 8 148.834 12 234.501s7.66699 172.5 11 260.5c3.33301 87.333 5.66602 172.666 6.99902 255.999s1 158.333 -1 225c-2 66 -5.83301 121 -11.5 165s-13.5 70 -23.5 78
c-14.667 10 -6.66699 22.667 24 38l85 43c12 6 15.5 11 10.5 15s-11.5 6.33301 -19.5 7c-94 8 -185.333 3 -274 -15c-76 -16.667 -135.333 -40.667 -178 -72c-85.333 -60.667 -145.666 -138 -180.999 -232c-31.333 -82 -39.666 -161.667 -24.999 -239
c12.667 -74 40.667 -123 84 -147c45.333 -27.333 94.333 -14 147 40c18.667 18.667 32.5 38.667 41.5 60s15.5 33.333 19.5 36c9.33301 6 15.833 1.5 19.5 -13.5s3.83398 -28.833 0.500977 -41.5c-4 -14 -20.833 -34.5 -50.5 -61.5s-58.5 -50.833 -86.5 -71.5
c-116 -86 -205.333 -113.5 -268 -82.5s-96 90.5 -100 178.5s23.5 190 82.5 306s153.167 216.333 282.5 301c132 86.667 286.667 140 464 160c93.333 10 195.5 9.5 306.5 -1.5s231.167 -35.5 360.5 -73.5c20 -6 43.167 -4.83301 69.5 3.5s38.833 7.5 37.5 -2.5
c-2.66699 -16 -13.5 -36.333 -32.5 -61s-40.5 -48 -64.5 -70c-24.667 -22.667 -48.834 -40.834 -72.501 -54.501s-41.167 -17.5 -52.5 -11.5c-64 34 -131.667 64.667 -203 92c-70.667 24.667 -136.334 43 -197.001 55c-22.667 4 -34.334 -4.66699 -35.001 -26
c-3.33301 -43.333 -5.83301 -97 -7.5 -161s-2.5 -134 -2.5 -210c-0.666992 -76 -0.833984 -155 -0.500977 -237s1.16602 -163 2.49902 -243c0.666992 -80 1.66699 -156 3 -228s3 -135.333 5 -190c2.66699 -118.667 6 -181 10 -187c1.33301 -2 1.5 -7.33301 0.5 -16
s-12.5 -13.334 -34.5 -14.001c-54 -2 -106.333 -27.667 -157 -77c-20.667 -18.667 -29.667 -17 -27 5z" />
    <glyph glyph-name="U" unicode="U" horiz-adv-x="1385" 
d="M1154 -149c-15.333 14 -28.4971 47.665 -39.4971 100.998s-19.833 119 -26.5 197c-2.66699 26.667 -13.334 29.334 -32.001 8.00098c-56.667 -63.333 -114.334 -117.333 -173.001 -162c-70 -54.667 -134 -90.334 -192 -107.001c-69.333 -19.333 -128.666 -12 -177.999 22
c-58 39.333 -101.667 113.333 -131 222c-56 202 -46.167 423.5 29.5 664.5s164.5 426.5 266.5 556.5c13.333 16.667 13.666 31.334 0.999023 44.001c-49.333 45.333 -109.666 67.666 -180.999 66.999c-68.667 0 -130.334 -19.667 -185.001 -59
c-62 -44.667 -94 -90.5 -96 -137.5s10.333 -84.667 37 -113s59.334 -41.833 98.001 -40.5s68 28 88 80c12 32 26.167 43.833 42.5 35.5s10.5 -31.5 -17.5 -69.5c-78.667 -104.667 -158 -173.334 -238 -206.001c-71.333 -29.333 -125.333 -25.333 -162 12
c-34 34 -40.333 90.667 -19 170s86 168 194 266c79.333 72 170.666 119.667 273.999 143c120 26.667 231.333 11 334 -47c15.333 -8.66699 21.5 -14.834 18.5 -18.501s-9.16699 -9.5 -18.5 -17.5c-74 -58.667 -137.667 -146 -191 -262c-54 -115.333 -91 -238.333 -111 -369
c-20.667 -139.333 -20.334 -264.666 0.999023 -375.999c22 -124 68.333 -220.667 139 -290c98 -95.333 181.333 -110.666 250 -45.999s115 143.667 139 237c-6 116 -8.5 238 -7.5 366s5.16699 246 12.5 354c6.66699 108 16.667 199 30 273s29.666 115 48.999 123
c47.333 18 88.666 58.333 123.999 121c6.66699 12.667 14 16.334 22 11.001s10.333 -11 7 -17c-21.333 -41.333 -38.333 -94.666 -51 -159.999s-22 -137.333 -28 -216c-6 -79.333 -9 -162.666 -9 -249.999s2.66699 -173.333 8 -258c10 -170 27 -319 51 -447
c24.667 -128.667 50.334 -193.334 77.001 -194.001c18.667 -2 20.667 -10.333 6 -25c-12.667 -12.667 -36.167 -31.5 -70.5 -56.5s-62.166 -48.5 -83.499 -70.5c-22.667 -22 -35.5 -39.667 -38.5 -53s-9.5 -15.333 -19.5 -6z" />
    <glyph glyph-name="V" unicode="V" horiz-adv-x="1318" 
d="M476 1142c6.66699 13.333 16.334 17.1709 29.001 11.5039s16.667 -16.5 12 -32.5c-27.333 -64.667 -69.833 -121.167 -127.5 -169.5s-126.667 -75.833 -207 -82.5s-134.166 20.666 -161.499 81.999c-20 60 -10.667 133.667 28 221c41.333 92 108.333 176.333 201 253
c69.333 58 133.666 96.5 192.999 115.5s113 24.5 161 16.5c90.667 -16 157.334 -69.667 200.001 -161c16 -34.667 32.167 -88.5 48.5 -161.5s32.166 -155.5 47.499 -247.5c30.667 -192 55.334 -385.667 74.001 -581c1.33301 -18 4.66602 -27.333 9.99902 -28
s9.66602 7 12.999 23c20 116 42.833 231.167 68.5 345.5s54.834 222.166 87.501 323.499c32 101.333 67.833 193.166 107.5 275.499s83.5 150.166 131.5 203.499c15.333 16 51.333 26.667 108 32s98.667 20 126 44c10 8.66699 17.833 7 23.5 -5s6.16699 -20 1.5 -24
c-66 -55.333 -135 -149.666 -207 -282.999c-34.667 -63.333 -68.167 -131.666 -100.5 -204.999s-62.5 -148.333 -90.5 -225c-59.333 -163.333 -103.666 -316.333 -132.999 -459c-32.667 -152.667 -45 -275.667 -37 -369c0 -2 -16.833 -19 -50.5 -51
s-57.834 -55.667 -72.501 -71c-13.333 -13.333 -23.166 -26.333 -29.499 -39l-22.5 -43c-6.66699 -11.333 -13.5 -15.333 -20.5 -12s-9.16699 9 -6.5 17c9.33301 31.333 10.333 101 3 209c-6.66699 95.333 -21.334 216.666 -44.001 363.999
c-24 145.333 -52.333 284.333 -85 417c-18 68 -36.833 133.5 -56.5 196.5s-40.5 120.5 -62.5 172.5c-43.333 100.667 -97.5 169.5 -162.5 206.5s-129.833 23.833 -194.5 -39.5c-26 -26 -46 -61.167 -60 -105.5s-19.667 -87.5 -17 -129.5
c1.33301 -46 9.83301 -82.667 25.5 -110s35.5 -45 59.5 -53s51 -6.66699 81 4s54.167 29.667 72.5 57s30.166 59.666 35.499 96.999z" />
    <glyph glyph-name="W" unicode="W" horiz-adv-x="1980" 
d="M1217 -40c-63.333 55.333 -113.336 140.663 -150.003 255.996c-7.33301 20 -17.333 21.667 -30 5c-52 -73.333 -113.667 -145.166 -185 -215.499s-139.333 -104.5 -204 -102.5c-39.333 1.33301 -75.833 20.5 -109.5 57.5s-61.5 99.5 -83.5 187.5
c-24 94 -35.333 194.833 -34 302.5s12 214.167 32 319.5c41.333 216 106.333 396.667 195 542c12.667 20.667 12 38.334 -2 53.001c-49.333 48 -107 76.333 -173 85c-67.333 8 -125.666 -6 -174.999 -42c-60 -44 -90.5 -90.833 -91.5 -140.5s11.833 -90.334 38.5 -122.001
s59 -48.5 97 -50.5s66.667 23 86 75c9.33301 24.667 19.333 36.834 30 36.501s17 -3.83301 19 -10.5c0.666992 -10 -9 -29.667 -29 -59c-55.333 -79.333 -108.5 -137.166 -159.5 -173.499s-95.833 -56.166 -134.5 -59.499c-90.667 -8 -133.667 40.333 -129 145
c1.33301 46 17.833 100 49.5 162s82.834 127 153.501 195c75.333 72 163.333 119.333 264 142c114.667 25.333 222.334 9.66602 323.001 -47.001c16 -10 23.167 -17.167 21.5 -21.5s-6.16699 -9.83301 -13.5 -16.5c-62 -60 -112.667 -149.333 -152 -268
s-65 -243.667 -77 -375c-12 -140 -8 -266.667 12 -380c20 -123.333 57.333 -217 112 -281c12.667 -16 27.834 -31 45.501 -45s36.834 -22.333 57.501 -25c46.667 -6 86.167 20 118.5 78s57.833 121 76.5 189c5.33301 22.667 5.33301 52.667 0 90
c-14.667 106 -21 214.333 -19 325s9 212.334 21 305.001c12 92 27.833 169.333 47.5 232s40.5 98 62.5 106c43.333 16.667 82 57 116 121c6 12 15.333 16.833 28 14.5s13 -16.5 1 -42.5c-38.667 -86 -64.334 -198.333 -77.001 -337c-12 -128 -12 -266.333 0 -415
c12 -142 33 -273.667 63 -395c31.333 -125.333 68 -218.333 110 -279c28 -42.667 61.333 -59.334 100 -50.001c34 7.33301 70.333 37 109 89c62.667 85.333 104 199.333 124 342c17.333 128 16 261.333 -4 400c-18.667 130.667 -50 241 -94 331
c-45.333 92.667 -94.333 139 -147 139c-6 0 -8.66699 3.5 -8 10.5s5 12.5 13 16.5c12 4.66699 35.167 30.834 69.5 78.501s60.5 97.5 78.5 149.5c3.33301 8.66699 11 9 23 1c83.333 -64.667 146.666 -168 189.999 -310c40 -134 57.667 -281.667 53 -443
c-5.33301 -165.333 -31.333 -317.333 -78 -456c-50 -148 -117.667 -262.667 -203 -344c-56 -51.333 -116.5 -91.333 -181.5 -120s-130.5 -13.667 -196.5 45z" />
    <glyph glyph-name="X" unicode="X" horiz-adv-x="1490" 
d="M1498 350c6 34 17.502 44.6699 34.502 32.0029s18.167 -38.334 3.5 -77.001c-54 -142.667 -105 -244.667 -153 -306s-93 -96.666 -135 -105.999c-46.667 -10 -92.334 10.833 -137.001 62.5s-85 114.167 -121 187.5c-36 72.667 -66.833 145.667 -92.5 219
s-43.167 126.333 -52.5 159c-12.667 41.333 -31 42 -55 2l-131 -211.5l-125 -203.5l-118.5 -177.5c-37.667 -54.333 -72.5 -100.5 -104.5 -138.5c-37.333 -42 -77 -62.667 -119 -62s-85 -9 -129 -29s-70.5 -26.333 -79.5 -19s9.16699 30 54.5 68
c54.667 45.333 116 104.333 184 177c60.667 64.667 123.667 137.334 189 218.001l184 241l87.5 122.5l83.5 121.5c18 26 22 59 12 99c-6.66699 22.667 -14.834 52 -24.501 88l-32.5 117c-13.333 42 -28 85.667 -44 131s-34 89 -54 131c-44 92 -90.333 157 -139 195
c-59.333 43.333 -120.666 45.666 -183.999 6.99902c-68.667 -43.333 -105 -109.333 -109 -198c-4 -78 15.333 -154.333 58 -229c35.333 -62 79.5 -102.333 132.5 -121s99.833 10 140.5 86c16 30 29.5 43.5 40.5 40.5s16.167 -9.5 15.5 -19.5
c-2 -20.667 -17.667 -46.334 -47 -77.001c-96.667 -102.667 -186.667 -159.667 -270 -171c-76 -12 -135.667 12 -179 72c-51.333 70 -62.666 172.667 -33.999 308s116 261.666 262 378.999c42 34 88.167 60 138.5 78s99.5 22 147.5 12c53.333 -12 97.5 -45.167 132.5 -99.5
s64.167 -116.5 87.5 -186.5c24 -70 43.667 -140.667 59 -212s30.333 -130 45 -176c8 -26 18.667 -26.667 32 -2c68 122.667 117.333 232.334 148 329.001c31.333 102 39 182.333 23 241c-1.33301 4 -9.83301 9.5 -25.5 16.5s4.83301 28.5 61.5 64.5
c40 25.333 72.667 52.666 98 81.999s44 40.333 56 33c19.333 -14 24.166 -46.5 14.499 -97.5s-30.167 -114.5 -61.5 -190.5c-32 -77.333 -72.333 -164 -121 -260s-102.334 -195.667 -161.001 -299c-15.333 -27.333 -19.333 -52 -12 -74
c34.667 -100.667 75.667 -201 123 -301c20 -44.667 39.667 -85.667 59 -123l54 -101c62.667 -113.333 121.167 -142.833 175.5 -88.5s92.5 133.166 114.5 236.499z" />
    <glyph glyph-name="Y" unicode="Y" horiz-adv-x="1393" 
d="M182 1139c-14 -46 -15.001 -87.999 -3.00098 -125.999c9.33301 -36 28 -63.333 56 -82c26.667 -19.333 57.334 -25.666 92.001 -18.999c36.667 6.66699 70.667 27 102 61c15.333 16.667 25.5 32.834 30.5 48.501s10.5 26.167 16.5 31.5
c21.333 18 30.666 11.333 27.999 -20c-1.33301 -8.66699 -9.66602 -25.334 -24.999 -50.001c-17.333 -25.333 -34 -46.666 -50 -63.999c-78 -84.667 -150 -136.667 -216 -156c-60 -18 -106.333 -8.33301 -139 29c-32.667 36 -45.334 88.333 -38.001 157
c7.33301 73.333 37 149 89 227c33.333 50 74.666 103.667 123.999 161s97.333 104.666 144 141.999c60.667 48 132 74.333 214 79s132 -48.333 150 -159c10 -66.667 11.5 -135.5 4.5 -206.5s-16.167 -142.5 -27.5 -214.5c-12 -72 -22.833 -143.167 -32.5 -213.5
s-11.834 -138.166 -6.50098 -203.499c7.33301 -102 55.5 -150.667 144.5 -146s173.167 106 252.5 304c5.33301 14.667 8 33 8 55c-1.33301 110 6 209.667 22 299c18.667 101.333 50.334 193.333 95.001 276c8.66699 16 38.334 44.833 89.001 86.5s67.667 49.5 51 23.5
c-76 -120.667 -113.5 -252.167 -112.5 -394.5s13.5 -286.166 37.5 -431.499c14 -87.333 29.667 -177.333 47 -270s26 -183.667 26 -273c-0.666992 -88 -14.834 -172.833 -42.501 -254.5s-79.5 -155.5 -155.5 -221.5c-71.333 -62 -140.666 -109.333 -207.999 -142
s-131 -54.334 -191 -65.001c-114.667 -19.333 -216.667 -4.33301 -306 45c-80.667 44.667 -133.667 107 -159 187s-11.333 153 42 219c18.667 23.333 56.5 50.166 113.5 80.499s93.833 52.5 110.5 66.5c30 26.667 48.833 30.334 56.5 11.001s-7.5 -36.333 -45.5 -51
c-55.333 -38 -85.666 -83.667 -90.999 -137c-4 -45.333 11.333 -95.666 46 -150.999c32.667 -52.667 79.5 -97.334 140.5 -134.001s123.5 -54 187.5 -52s123 28.5 177 79.5s91 137.167 111 258.5c18 114 19.5 235.5 4.5 364.5s-26.833 251.167 -35.5 366.5
c-0.666992 7.33301 -3 14.5 -7 21.5s-9.33301 5.5 -16 -4.5c-90 -142.667 -171.667 -254.334 -245 -335.001c-74.667 -80.667 -135.334 -124.334 -182.001 -131.001c-48.667 -7.33301 -80.667 20 -96 82s-22.333 135.667 -21 221c1.33301 84 7 168.5 17 253.5
s16 146.5 18 184.5c4 92 3.83301 177.333 -0.5 256s-20.5 140.334 -48.5 185.001c-20 31.333 -47 49.666 -81 54.999s-67.333 2 -100 -10c-39.333 -15.333 -74.333 -42 -105 -80c-14 -18 -26 -37 -36 -57c-11.333 -22.667 -19.666 -43.334 -24.999 -62.001z" />
    <glyph glyph-name="Z" unicode="Z" horiz-adv-x="1110" 
d="M122 1255c-20 -38 -35.999 -46.4971 -47.999 -25.4971s-11.333 38.167 2 51.5c44 43.333 79 85.5 105 126.5s56 74.5 90 100.5c65.333 52 131.166 76.333 197.499 73s132.5 -14.333 198.5 -33c74 -22 147.333 -41.167 220 -57.5s143.334 -1.83301 212.001 43.5
c43.333 28.667 63 28.667 59 0c-3.33301 -20.667 -17.833 -57.5 -43.5 -110.5s-58.5 -116.167 -98.5 -189.5l-138 -245l-161 -273l-206 -342l-97 -157.5l-86 -140.5c-14 -22 -9.66699 -29.667 13 -23c74.667 22 150.667 31.167 228 27.5s154 -13.5 230 -29.5
c67.333 -14.667 133.833 -31.834 199.5 -51.501l192.5 -56.5c17.333 -4.66699 50.666 -12.334 99.999 -23.001s101.166 -18.5 155.499 -23.5s104.666 -4.66699 150.999 1s75.833 22.167 88.5 49.5c8 18 19.833 27.833 35.5 29.5s23.5 -1.5 23.5 -9.5
c0 -18 -26.167 -47.667 -78.5 -89s-115.166 -80.333 -188.499 -117c-74 -36.667 -151.167 -64.5 -231.5 -83.5s-148.166 -15.5 -203.499 10.5c-17.333 8 -39.833 21.167 -67.5 39.5l-92.5 60.5l-109 68.5c-38.667 23.667 -78 45.5 -118 65.5
c-48 24 -94.833 42.833 -140.5 56.5s-87.167 17.834 -124.5 12.501c-48 -8 -89.333 -28 -124 -60s-56 -51.333 -64 -58c-26.667 -20.667 -78.5 -28.834 -155.5 -24.501s-101.5 16.833 -73.5 37.5c102 98 212 224 330 378c116.667 151.333 224.667 305.666 324 462.999
c88 138.667 155.333 256.667 202 354c51.333 106.667 75.333 179.667 72 219c-1.33301 16.667 -12.333 22 -33 16c-64 -21.333 -128.5 -27 -193.5 -17s-127.833 22 -188.5 36c-78 18 -149.167 27.167 -213.5 27.5s-114.833 -35.5 -151.5 -107.5z" />
    <glyph glyph-name="bracketleft" unicode="[" horiz-adv-x="1098" 
d="M56 86c-5.33301 369.333 4.66895 650.997 30.002 844.997c24 192 64.5 341.333 121.5 448s134.5 228 232.5 364c10 14.667 36 22.834 78 24.501s40.333 -12.5 -5 -42.5c-72.667 -48.667 -135.167 -118 -187.5 -208s-89.833 -217.333 -112.5 -382
c-19.333 -136 -27 -299.667 -23 -491c0.666992 -56 2.66699 -108 6 -156c1.33301 -24 6 -25.333 14 -4c29.333 74 65.666 150 108.999 228c45.333 80 83.333 133.333 114 160c14 11.333 28.833 20.5 44.5 27.5s21.5 -3.16699 17.5 -30.5
c-9.33301 -59.333 -14.666 -131 -15.999 -215c-1.33301 -46 -1 -94 1 -144s6 -99.333 12 -148c6 -49.333 14.833 -96.166 26.5 -140.499s27.167 -83.166 46.5 -116.499c40.667 -73.333 94.667 -110.666 162 -111.999c44 0 82.333 13.167 115 39.5s60.334 59.5 83.001 99.5
c22 38.667 39.833 79.834 53.5 123.501s23.834 81.5 30.501 113.5c8 29.333 18.5 36.166 31.5 20.499s16.5 -38.5 10.5 -68.5c-23.333 -116.667 -76.333 -214.667 -159 -294c-80 -74 -165.667 -113.333 -257 -118c-94 -4 -164.833 21.667 -212.5 77
s-79.5 123.666 -95.5 204.999c-16 80.667 -19.5 165.5 -10.5 254.5s23.5 164.833 43.5 227.5c2 6 2 10.167 0 12.5s-5 0.5 -9 -5.5c-10.667 -18 -22.834 -47.5 -36.501 -88.5s-26.5 -84.167 -38.5 -129.5c-12.667 -46 -23.834 -89.167 -33.501 -129.5
s-15.834 -68.833 -18.501 -85.5c-0.666992 -5.33301 -1.66699 -12.666 -3 -21.999c0.666992 -9.33301 1.66699 -15 3 -17c0.666992 -2.66699 0.666992 -9.33398 0 -20.001s-9.33398 -16 -26.001 -16c-46 -3.33301 -85 -29.333 -117 -78
c-4 -6.66699 -9.16699 -13.5 -15.5 -20.5s-9.5 -2.83301 -9.5 12.5z" />
    <glyph glyph-name="backslash" unicode="\" horiz-adv-x="1101" 
d="M53 78c0 44 0.333008 103.504 1 178.504s0.666992 149.5 0 223.5s-2.83398 140.167 -6.50098 198.5s-9.83398 92.833 -18.501 103.5c-14.667 18 8.83301 40.833 70.5 68.5s103.5 57.167 125.5 88.5s30.667 30.666 26 -2.00098c-4 -32 -7.33301 -65.333 -10 -100
s-5 -69 -7 -103c-2 -35.333 -3.83301 -70.333 -5.5 -105s-3.16699 -68 -4.5 -100c-0.666992 -18 -0.166992 -32.5 1.5 -43.5s8.16699 -1.5 19.5 28.5c32 88 70.5 176 115.5 264s81.833 144.667 110.5 170c13.333 11.333 27.833 20.666 43.5 27.999s21.834 -3 18.501 -31
c-10 -70.667 -16.667 -153 -20 -247c-2 -50 -2.33301 -101.833 -1 -155.5s5 -106.167 11 -157.5c13.333 -115.333 38 -205 74 -269c40.667 -77.333 97.667 -116.333 171 -117c42 -0.666992 79 12.333 111 39s59.333 60 82 100c22 39.333 39.833 80.666 53.5 123.999
s23.834 80.333 30.501 111c6 29.333 16.167 36 30.5 20s18.833 -39 13.5 -69c-24.667 -122 -81.667 -223.333 -171 -304c-86 -76 -176.667 -112 -272 -108c-88.667 4 -157.334 37 -206.001 99c-41.333 54 -68 129 -80 225c-6 42.667 -8.5 87.167 -7.5 133.5
s3.5 91.5 7.5 135.5s8.83301 86.167 14.5 126.5s11.5 76.5 17.5 108.5c4 26 -1 26.667 -15 2c-11.333 -18 -26.5 -52.833 -45.5 -104.5s-37 -106.667 -54 -165s-30.333 -113 -40 -164s-10.167 -84.833 -1.5 -101.5c1.33301 -2.66699 1.33301 -9.33398 0 -20.001
s-12.666 -16.334 -33.999 -17.001c-26 -1.33301 -49 -12.666 -69 -33.999l-54 -58h-26z" />
    <glyph glyph-name="bracketright" unicode="]" horiz-adv-x="1083" 
d="M218 240c0.666992 -2.66699 0.664062 -9.33398 -0.00292969 -20.001s-9.33398 -16.334 -26.001 -17.001c-19.333 -1.33301 -38.333 -7.33301 -57 -18c-22 -13.333 -42.333 -34 -61 -62c-16 -23.333 -24 -25 -24 -5c-4.66699 284 0 509.667 14 677
c12 164.667 35 304 69 418c30 103.333 70 194 120 272s111 167.333 183 268c10.667 14.667 36.834 22.834 78.501 24.501s39.834 -12.5 -5.49902 -42.5c-53.333 -36 -98.333 -78.333 -135 -127c-42.667 -56 -77 -122.333 -103 -199
c-29.333 -80.667 -51.333 -178.667 -66 -294c-14.667 -121.333 -21 -259 -19 -413c0 -12.667 1.66699 -18 5 -16s6.33301 7.66699 9 17c14 44.667 31.833 88.667 53.5 132s47.167 80.666 76.5 111.999c54 58.667 97.167 91.334 129.5 98.001s53.833 -1.66602 64.5 -24.999
c10.667 -24 11.334 -56.833 2.00098 -98.5s-28 -81.167 -56 -118.5c-24.667 -33.333 -48.334 -63 -71.001 -89l-68 -82l-17.5 -21.5c-7 -8.33301 -9.16699 -17.166 -6.5 -26.499c11.333 -48.667 32.666 -106.334 63.999 -173.001c30.667 -66 66.667 -129 108 -189
c46 -65.333 91.667 -115.333 137 -150c52.667 -40 103.334 -59 152.001 -57c72 3.33301 130.667 45 176 125c19.333 34 34.666 71.333 45.999 112s20 79 26 115c4.66699 29.333 14.834 36 30.501 20s20.167 -39 13.5 -69c-28.667 -121.333 -81.667 -220.333 -159 -297
c-79.333 -76.667 -166 -115 -260 -115c-68 0 -126.667 18.333 -176 55s-91 82 -125 136c-34.667 54 -62.5 112.333 -83.5 175s-37.5 120 -49.5 172c-3.33301 13.333 -6.16602 17.5 -8.49902 12.5s-3.5 -13.167 -3.5 -24.5c0.666992 -29.333 3.33398 -65.833 8.00098 -109.5
s9.66699 -71.167 15 -82.5zM213.997 569c36 41.333 70.498 85.832 103.498 133.499s43.167 84.5 30.5 110.5c-23.333 46 -49.166 34.5 -77.499 -34.5s-51.833 -135.5 -70.5 -199.5c-5.33301 -23.333 -0.666016 -26.666 14.001 -9.99902z" />
    <glyph glyph-name="asciicircum" unicode="^" horiz-adv-x="489" 
d="M217 525c5.33301 20 6.66895 47.666 4.00195 82.999c-1.33301 16.667 -11 24.667 -29 24c-52.667 12.667 -88.834 43.834 -108.501 93.501s-28.667 105.334 -27 167.001s11.167 122.5 28.5 182.5s36.666 106.667 57.999 140c21.333 32.667 44.666 60.667 69.999 84
c8.66699 8 12.334 20.667 11.001 38c-7.33301 63.333 -16.333 106.333 -27 129c-1.33301 2 17.5 21.833 56.5 59.5s56.167 45.167 51.5 22.5c-11.333 -48.667 -18.333 -109.667 -21 -183c0 -12 5.66699 -16.333 17 -13c8.66699 2.66699 18.334 4 29.001 4
c36 -1.33301 61.333 -23 76 -65c10 -31.333 14.333 -58.833 13 -82.5s-3 -39.167 -5 -46.5c-4 -12 -16.833 -25.167 -38.5 -39.5s-38.834 -26.5 -51.501 -36.5c-36 -28 -54.667 -40.333 -56 -37s2 16.333 10 39c25.333 71.333 29.5 122.166 12.5 152.499
s-36.5 39.5 -58.5 27.5c-56 -32 -81 -107 -75 -225s32.333 -197.667 79 -239c30 -26.667 65 -31.834 105 -15.501s67.667 59.833 83 130.5c7.33301 18.667 16 23.334 26 14.001s13.667 -17.333 11 -24c-44 -103.333 -100.333 -188.333 -169 -255
c-6.66699 -6.66699 -11.334 -21.334 -14.001 -44.001c-2 -15.333 -2.5 -27.166 -1.5 -35.499s0.5 -18.5 -1.5 -30.5c-11.333 -55.333 -28.666 -87.333 -51.999 -96s-25.333 17 -6 77z" />
    <glyph glyph-name="underscore" unicode="_" horiz-adv-x="650" 
d="M-50 -225c-26 -21.333 -3.83398 -43.668 66.499 -67.001s146.5 -34.666 228.5 -33.999c36 0 80.5 4.33301 133.5 13s87.833 33.334 104.5 74.001c2.66699 8.66699 -3.33301 15 -18 19c-38 11.333 -80.167 22.166 -126.5 32.499s-93.166 16.833 -140.499 19.5
c-48 4 -93.5 2 -136.5 -6s-80.167 -25 -111.5 -51zM370.999 461.998c7.33301 18.667 9.99902 46.6582 7.99902 83.9912c-2 54 1.16699 112.5 9.5 175.5s17.5 100.167 27.5 111.5c23.333 26 53.5 45.833 90.5 59.5s62.833 31.834 77.5 54.501
c10 14.667 17.667 16.834 23 6.50098s6 -18.833 2 -25.5c-17.333 -27.333 -29.5 -75.166 -36.5 -143.499s-10.5 -122.166 -10.5 -161.499c0 -55.333 5.16699 -111.166 15.5 -167.499l30.5 -168.5c10 -56.667 17.333 -112.667 22 -168s1.33398 -109 -9.99902 -161
c-2.66699 -15.333 2.33301 -24.333 15 -27c42 -8 83.5 -17.5 124.5 -28.5s81.5 -22.5 121.5 -34.5l117.5 -34c38.333 -11.333 76.166 -21.666 113.499 -30.999c85.333 -20 157 -30.667 215 -32c72.667 -2 138.667 10 198 36c40 18 74.667 44.333 104 79
s47.666 66.667 54.999 96c6.66699 29.333 17.667 37.333 33 24s20 -26 14 -38c-15.333 -27.333 -41 -62 -77 -104s-85 -81 -147 -117c-62 -35.333 -137.833 -62.166 -227.5 -80.499s-195.5 -17.5 -317.5 2.5c-20 3.33301 -43.333 8 -70 14l-88 20l-102.5 25
c-36.333 8.66699 -73.5 17 -111.5 25c-17.333 4 -30.333 -0.333008 -39 -13c-68 -97.333 -170.833 -159.166 -308.5 -185.499s-255.5 -28.5 -353.5 -6.5s-149.667 63 -155 123s90 127.333 286 202c167.333 64 318.333 90.667 453 80c16.667 -0.666992 24.334 8 23.001 26
c-5.33301 38.667 -12 74.5 -20 107.5s-16.667 65.5 -26 97.5c-10 31.333 -19.5 63 -28.5 95s-16.5 66.667 -22.5 104c-4 24 -12.333 22.667 -25 -4c-12 -26 -39.333 -81.167 -82 -165.5s-85.667 -122.833 -129 -115.5c-34.667 6 -60.667 38.167 -78 96.5
s-28 123.5 -32 195.5c-4.66699 72 -4.5 141 0.5 207s12.167 110 21.5 132c10 24 39.5 48.5 88.5 73.5s84.5 53.167 106.5 84.5c7.33301 11.333 14.833 15.833 22.5 13.5s10.167 -7.5 7.5 -15.5c-1.33301 -2 -10.166 -21.167 -26.499 -57.5s-29.5 -81.833 -39.5 -136.5
c-14 -76 -21.333 -159.667 -22 -251s16.333 -135 51 -131c24.667 2 47.167 23.833 67.5 65.5s33.833 70.834 40.5 87.501z" />
    <glyph glyph-name="grave" unicode="`" horiz-adv-x="1110" 
d="M829 -13c69.333 8 127.67 61.666 175.003 160.999c20 42 33.167 78.5 39.5 109.5s14.5 65.167 24.5 102.5c8 28.667 18.833 35.167 32.5 19.5s17.5 -38.5 11.5 -68.5c-24 -118.667 -76 -215.667 -156 -291s-162 -116 -246 -122c-61.333 -4 -114.333 8.33301 -159 37
c-50.667 32.667 -88.667 84 -114 154c-32 91.333 -42.667 207 -32 347c0 2 -0.5 7 -1.5 15s-5.5 8 -13.5 0c-32.667 -34 -64.834 -91.333 -96.501 -172s-57.167 -133.334 -76.5 -158.001c-17.333 -22 -38.666 -16 -63.999 18s-40 55 -44 63
c-43.333 78.667 -66.333 164.667 -69 258c-2.66699 90 15.666 166.333 54.999 229c33.333 54.667 81.833 109.5 145.5 164.5s117.834 34.167 162.501 -62.5c8.66699 -18 12 -17 10 3c-2 38 -4.16699 75.5 -6.5 112.5l-6.5 106.5c-4.66699 64 -9.33398 118 -14.001 162
s-8.33398 68 -11.001 72c-2 1.33301 -2.33301 5.33301 -1 12s12.666 10.334 33.999 11.001c12 0 38.167 13.667 78.5 41s65.5 47.333 75.5 60c18 22.667 31.5 33.834 40.5 33.501s7.16699 -22.833 -5.5 -67.5c-23.333 -79.333 -39 -191 -47 -335
c-2 -24 -4.16699 -57.333 -6.5 -100s-3.83301 -90.667 -4.5 -144c-1.33301 -54 -1 -111.333 1 -172s6.33301 -120.334 13 -179.001s16.5 -114.667 29.5 -168s30.5 -99.666 52.5 -138.999c48 -85.333 112.667 -123 194 -113zM405.004 579.999
c-20 44 -55.499 96.332 -106.499 156.999s-84.5 67 -100.5 19c-5.33301 -15.333 -8.33301 -43.666 -9 -84.999s2.16602 -83.5 8.49902 -126.5s16.5 -80.167 30.5 -111.5s33 -44.333 57 -39c10 2 29.667 23.167 59 63.5s50.333 70.833 63 91.5c4.66699 8 4 18.333 -2 31z" />
    <glyph glyph-name="a" unicode="a" horiz-adv-x="551" 
d="M344 623c-16.667 -15.333 -34.1689 -27.832 -52.502 -37.499s-26.5 -5.83398 -24.5 11.499c2 12.667 9.16699 18.167 21.5 16.5s24.5 7.83301 36.5 28.5c10 18 14.5 51 13.5 99s-17.833 78 -50.5 90c-16 6 -31.333 6 -46 0c-14.667 -6.66699 -27 -17.334 -37 -32.001
c-18 -25.333 -32.167 -61.166 -42.5 -107.499s-16.5 -87.833 -18.5 -124.5c-7.33301 -100.667 -0.666016 -168.667 20.001 -204c22 -35.333 43 -41.666 63 -18.999c6.66699 6 21 32.833 43 80.5l55 116.5c4 8 9 14.167 15 18.5s31 30.5 75 78.5
c24.667 26.667 38.667 37.667 42 33s3.33301 -25 0 -61c-2 -21.333 -2.33301 -61 -1 -119s7 -108.333 17 -151c12 -54.667 27.667 -76.334 47 -65.001s37 33.666 53 66.999c12.667 26 22.334 53.5 29.001 82.5s13.667 57.5 21 85.5c8 30 18.167 36.833 30.5 20.5
s13.5 -38.5 3.5 -66.5c-4 -10.667 -15 -37.667 -33 -81s-39.5 -89 -64.5 -137s-51.667 -91.167 -80 -129.5s-54.5 -57.833 -78.5 -58.5c-18.667 0 -34.334 12.333 -47.001 37c-11.333 18.667 -21 47.667 -29 87c-5.33301 27.333 -9.66602 60 -12.999 98
c-2 28.667 -3 50.667 -3 66c0 41.333 -8.66699 44.333 -26 9c-22 -46 -41.5 -93.667 -58.5 -143s-31.833 -82.333 -44.5 -99c-7.33301 -9.33301 -16 -13.333 -26 -12c-20.667 0.666992 -38.334 12 -53.001 34s-26.667 48 -36 78c-10 28.667 -17.333 58.167 -22 88.5
s-7 54.5 -7 72.5c-1.33301 84.667 10 165 34 241c25.333 79.333 63.333 151 114 215c8.66699 11.333 25.334 29.333 50.001 54s52 47.334 82 68.001c34 22 64.333 35.333 91 40c31.333 4 56.333 -5.33301 75 -28c18 -22 25 -50.333 21 -85
c-4 -29.333 -15.667 -61.333 -35 -96c-15.333 -28 -36.333 -59 -63 -93c-22.667 -28.667 -43 -51 -61 -67z" />
    <glyph glyph-name="b" unicode="b" horiz-adv-x="575" 
d="M191 123c-8 5.33301 -16.3291 12.3301 -24.9961 20.9971c-12.667 12 -25.667 13.333 -39 4c-27.333 -20 -49 -35 -65 -45c-14.667 -10 -24.667 -15 -30 -15c-6.66699 0.666992 -6.33398 10.334 0.999023 29.001c6.66699 15.333 10.834 31.833 12.501 49.5
s3.5 34.834 5.5 51.501c9.33301 108.667 12.666 220.334 9.99902 335.001c-2 51.333 -4.5 101 -7.5 149s-6.16699 94 -9.5 138c-4 44 -7.33301 86.167 -10 126.5s-4.33398 78.833 -5.00098 115.5c-1.33301 79.333 4.33398 145.666 17.001 198.999c6 24 39.667 53.667 101 89
s99.333 54.333 114 57c20 2.66699 21.333 -7.33301 4 -30c-32.667 -44 -57.667 -135.667 -75 -275s-24 -278 -20 -416c0 -18 2.66699 -29.167 8 -33.5s12 4.5 20 26.5c72 211.333 151 318.333 237 321c46 1.33301 83.333 -32.667 112 -102s38.334 -162 29.001 -278
c-2.66699 -28 -12.834 -71.833 -30.501 -131.5s-40.834 -119.667 -69.501 -180s-61.834 -113.166 -99.501 -158.499s-77.834 -68 -120.501 -68c-23.333 0 -45 7 -65 21zM222.004 552.997c10 -57.333 32.499 -106 67.499 -146s68.5 -61 100.5 -63
c26 -3.33301 46 8.66699 60 36c30.667 64 26.834 147.333 -11.499 250s-81.5 150 -129.5 142c-36.667 -6 -65 -49.667 -85 -131c-8 -28.667 -8.66699 -58 -2 -88z" />
    <glyph glyph-name="c" unicode="c" 
d="M146 676c-3.33301 -116.667 12.5 -204.506 47.5 -263.506s75.5 -87.5 121.5 -85.5c37.333 0.666992 74.833 26.334 112.5 77.001s66.167 119.667 85.5 207c6 26 15.5 32.5 28.5 19.5s17.833 -24.167 14.5 -33.5c-6.66699 -17.333 -22.334 -54.666 -47.001 -111.999
s-54.167 -117.166 -88.5 -179.499s-71.5 -118.166 -111.5 -167.499s-78.667 -74.333 -116 -75c-53.333 -1.33301 -96.333 50.334 -129 155.001c-33.333 106 -45.833 217 -37.5 333s39.5 223.333 93.5 322c31.333 57.333 67 103.833 107 139.5s77 53.167 111 52.5
c41.333 -1.33301 70.666 -30.666 87.999 -87.999c12 -42 17.333 -79.333 16 -112s-3.66602 -54 -6.99902 -64c-4.66699 -16 -19.5 -33.833 -44.5 -53.5s-44.833 -36.5 -59.5 -50.5c-42 -38.667 -63.833 -55.5 -65.5 -50.5s2.5 22.833 12.5 53.5
c13.333 44.667 21.333 86.667 24 126c1.33301 31.333 -1.66699 59 -9 83c-7.33301 20 -17.333 33.333 -30 40c-13.333 6 -26.333 4.66699 -39 -4c-25.333 -17.333 -44.166 -50 -56.499 -98s-19.5 -105 -21.5 -171z" />
    <glyph glyph-name="d" unicode="d" horiz-adv-x="624" 
d="M368 454c-36 -31.333 -69.5 -88.335 -100.5 -171.002s-56.167 -136.667 -75.5 -162c-5.33301 -8 -13 -10.667 -23 -8c-27.333 4.66699 -55.666 34.334 -84.999 89.001c-43.333 81.333 -66 167 -68 257c-2.66699 90.667 15.666 167.334 54.999 230.001
c78 127.333 149 189.666 213 186.999c38.667 -3.33301 70.334 -32 95.001 -86c6.66699 -15.333 10 -14.333 10 3c-2 38 -4.16699 75.667 -6.5 113l-6.5 107c-4.66699 64 -9.5 117.833 -14.5 161.5s-8.5 67.5 -10.5 71.5c-2 1.33301 -2.5 5.5 -1.5 12.5
s12.167 10.5 33.5 10.5c12.667 0 39 13.833 79 41.5s65 47.5 75 59.5c18.667 23.333 35.334 33.666 50.001 30.999s10 -24 -14 -64c-16 -26 -28 -86.667 -36 -182s-15.667 -231.666 -23 -408.999c-0.666992 -12 -0.666992 -47.833 0 -107.5s4.16699 -118.667 10.5 -177
s16.666 -103.5 30.999 -135.5s34.833 -26 61.5 18c22 36.667 38.333 68.167 49 94.5s19.667 62.5 27 108.5c4.66699 30 14 36.833 28 20.5s16 -38.5 6 -66.5c-4 -10.667 -15.833 -40.5 -35.5 -89.5s-42.834 -100.5 -69.501 -154.5
c-27.333 -54.667 -55.833 -104.167 -85.5 -148.5s-56.5 -66.833 -80.5 -67.5c-28 -1.33301 -47.833 16.167 -59.5 52.5s-18.5 77.833 -20.5 124.5c-2.66699 46.667 -3 92 -1 136s3 73.667 3 89c0 12.667 -3.33301 16.334 -10 11.001zM381 579.998
c-10 22 -25 47.998 -45 77.998s-40.667 56.333 -62 79c-22 22 -42.167 36.5 -60.5 43.5s-31.5 -1.5 -39.5 -25.5c-14.667 -44 -15.334 -109.667 -2.00098 -197c6 -53.333 15 -95.666 27 -126.999s32.667 -44 62 -38c10 2 29.5 23.333 58.5 64s49.833 71.334 62.5 92.001
c4.66699 8.66699 4.33398 19 -0.999023 31z" />
    <glyph glyph-name="e" unicode="e" 
d="M205 500c53.333 81.333 73.835 167.833 61.502 259.5s-28.5 131.5 -48.5 119.5c-20.667 -13.333 -34.834 -58.5 -42.501 -135.5s-8.83398 -151.833 -3.50098 -224.5c1.33301 -18 3.5 -31.167 6.5 -39.5s11.833 -1.5 26.5 20.5zM101.002 774
c28 60.667 62.833 112.004 104.5 154.004s80.5 64 116.5 66c40 2 68.333 -24 85 -78c17.333 -60.667 14.666 -120.334 -8.00098 -179.001s-51 -112 -85 -160c-18 -26 -36.333 -49.833 -55 -71.5l-50 -56.5c-15.333 -17.333 -18.666 -36.666 -9.99902 -57.999
c24.667 -66.667 60 -99.334 106 -98.001c35.333 1.33301 71.666 26.166 108.999 74.499s68.333 120.166 93 215.499c6 26 15.5 32.5 28.5 19.5s17.5 -24.167 13.5 -33.5c-18 -50.667 -49.667 -119.667 -95 -207s-94.666 -158 -147.999 -212c-52 -54 -101.667 -74 -149 -60
c-44 12.667 -77.667 51 -101 115c-29.333 80 -38.333 176.333 -27 289c10 103.333 34 196.666 72 279.999z" />
    <glyph glyph-name="f" unicode="f" horiz-adv-x="325" 
d="M189 835c34 2 68.3281 1.16895 102.995 -2.49805s66 -8.5 94 -14.5c18.667 -4.66699 35.334 -3.33398 50.001 3.99902c20.667 11.333 31 11.5 31 0.5s-5.66699 -20.5 -17 -28.5c-24 -18 -43.667 -44 -59 -78s-30 -55 -44 -63c-22.667 -12.667 -54 -12.334 -94 0.999023
c-24.667 8 -53 14.333 -85 19c-14 1.33301 -20.333 -5.33398 -19 -20.001c4.66699 -51.333 10.334 -102.5 17.001 -153.5s13 -102.167 19 -153.5c6 -52 11.5 -103.5 16.5 -154.5s8.5 -102.167 10.5 -153.5c4 -86 -0.166992 -167 -12.5 -243s-40.5 -145.667 -84.5 -209
c-26.667 -37.333 -62.667 -74.666 -108 -111.999c-43.333 -34 -88.666 -60.667 -135.999 -80c-46 -18 -90.167 -19.5 -132.5 -4.5s-82.166 33.833 -119.499 56.5c-36 23.333 -69.833 44 -101.5 62s-60.167 21 -85.5 9c-9.33301 -4 -16 -10.333 -20 -19
s-8 -13.334 -12 -14.001c-44 -6 -42.667 13.667 4 59s98 76 154 92c37.333 10.667 70.666 5.83398 99.999 -14.499s57 -43.833 83 -70.5c26.667 -26 53 -49 79 -69s54.333 -25 85 -15c27.333 9.33301 49.166 29 65.499 59s29.5 63.667 39.5 101
c10 38 17.167 75.833 21.5 113.5l10.5 92.5c6.66699 76 9 166.667 7 272c-2 75.333 -5.33301 150.333 -10 225s-8.66699 150 -12 226l-4 41.5c-1.33301 13.667 -2.33301 27.167 -3 40.5c-1.33301 10.667 -5.66602 14 -12.999 10c-20 -12 -28.667 1 -26 39
c3.33301 34.667 12 60 26 76c4.66699 6.66699 7 15 7 25c0 52 0.833008 108.167 2.5 168.5s4.83398 120.5 9.50098 180.5c8.66699 96.667 21.334 172.167 38.001 226.5s40.667 101.5 72 141.5c49.333 62.667 82 105.5 98 128.5s33 21.167 51 -5.5
c40.667 -63.333 67.167 -129.5 79.5 -198.5s13.833 -154.5 4.5 -256.5c-24.667 -136.667 -85.667 -243.667 -183 -321c-16 -12.667 -15 -18 3 -16zM151.995 866.002c25.333 31.333 45.833 72.3311 61.5 122.998s24.834 102.334 27.501 155.001
c3.33301 154.667 -12.334 258 -47.001 310c-12 16.667 -22.333 22.334 -31 17.001s-17 -32.666 -25 -81.999c-10.667 -62.667 -15 -158.334 -13 -287.001c0 -80 4 -157 12 -231c2 -13.333 7 -15 15 -5z" />
    <glyph glyph-name="g" unicode="g" horiz-adv-x="612" 
d="M355 634c-40.667 -40.667 -68.333 -53.6689 -83 -39.002c-12 11.333 -6 21.333 18 30c42 16 64 58.833 66 128.5s-18.333 106.5 -61 110.5c-31.333 4 -58.666 -14 -81.999 -54s-40 -87 -50 -141s-12.333 -106.167 -7 -156.5s12.666 -86.166 21.999 -107.499
c12.667 -31.333 27.667 -42.833 45 -34.5s34.333 24.666 51 48.999s31.834 50.5 45.501 78.5s23.834 46 30.501 54c23.333 30 52.5 53.667 87.5 71s60.5 38 76.5 62c12 18.667 22 24.334 30 17.001s8 -18.333 0 -33c-22 -40 -33 -83.833 -33 -131.5s5 -95.5 15 -143.5
c6 -32 13.167 -62.833 21.5 -92.5l24.5 -89.5c13.333 -52 23.166 -99.833 29.499 -143.5s8.83301 -92.5 7.5 -146.5c-2.66699 -120.667 -40 -222.334 -112 -305.001c-40.667 -46 -88.667 -75.667 -144 -89s-110.333 -14 -165 -2c-56 12.667 -107.167 37 -153.5 73
s-81.166 80 -104.499 132c-28 63.333 -23.833 109.166 12.5 137.499s67.5 65.5 93.5 111.5c3.33301 6.66699 9.33301 9.33398 18 8.00098s12 -7.33301 10 -18c-7.33301 -48.667 7 -106 43 -172c32.667 -60.667 75.334 -112 128.001 -154c53.333 -43.333 102 -62.333 146 -57
c49.333 8 82 48.667 98 122c13.333 61.333 8.66602 137.333 -14.001 228c-10 40 -19.5 73.833 -28.5 101.5l-31.5 98.5l-35.5 118c-11.667 40.667 -21.834 81.667 -30.501 123c-5.33301 20.667 -13.333 23.334 -24 8.00098c-32 -42 -61.833 -90.833 -89.5 -146.5
s-49.5 -95.167 -65.5 -118.5c-10 -20 -25 -29.667 -45 -29s-43 30 -69 88c-36 88.667 -47 185.334 -33 290.001c22 154 85.333 290.333 190 409c27.333 32 69.166 71 125.499 117s110.5 53.667 162.5 23c40.667 -24.667 56.667 -66 48 -124
c-8 -50 -32.167 -97.333 -72.5 -142z" />
    <glyph glyph-name="h" unicode="h" horiz-adv-x="562" 
d="M49 82c-4 268.667 -0.00683594 489.998 11.9932 663.998c12.667 172 34 312 64 420c26.667 101.333 67 199 121 293c25.333 44 53.5 88.5 84.5 133.5l102.5 145.5c10 14.667 36 22.834 78 24.501s40.333 -12.5 -5 -42.5c-52.667 -35.333 -98.667 -79 -138 -131
c-42 -56 -77 -125 -105 -207c-29.333 -83.333 -50.666 -185.666 -63.999 -306.999c-14.667 -128 -20 -273.333 -16 -436c0.666992 -35.333 2.33398 -79.333 5.00098 -132c0.666992 -41.333 8.66699 -43 24 -5c30.667 74 66.334 146 107.001 216
c42.667 73.333 78.334 123 107.001 149c14 11.333 29.333 20.5 46 27.5s22 -3.16699 16 -30.5c-5.33301 -25.333 -10 -71.666 -14 -138.999c-4.66699 -73.333 -6.33398 -148 -5.00098 -224c2 -88 8.33301 -150.667 19 -188c11.333 -49.333 30 -61.666 56 -36.999
c27.333 28.667 49.333 68.334 66 119.001c6 22 11.333 44.167 16 66.5s10 44.5 16 66.5c8 28.667 17.833 35.334 29.5 20.001s12.834 -37 3.50098 -65l-33 -93c-17.333 -49.333 -39 -100 -65 -152c-26.667 -52 -56.5 -95.833 -89.5 -131.5s-70.833 -48.834 -113.5 -39.501
c-43.333 17.333 -69.166 56.666 -77.499 117.999s-7.83301 127.666 1.5 198.999c8 58 18.333 114.167 31 168.5s20 95.833 22 124.5c0.666992 9.33301 -2.33301 10 -9 2c-8 -10 -20.667 -38.5 -38 -85.5s-33.666 -97.833 -48.999 -152.5
c-15.333 -52.667 -27.5 -102.167 -36.5 -148.5s-9.5 -76.166 -1.5 -89.499c4 -8 4.83301 -15.167 2.5 -21.5s-10.166 -10.5 -23.499 -12.5c-20 -4.66699 -39.333 -11.667 -58 -21s-37.667 -26 -57 -50c-11.333 -18.667 -20 -29.334 -26 -32.001
c-4 -0.666992 -6 4.66602 -6 15.999z" />
    <glyph glyph-name="i" unicode="i" horiz-adv-x="340" 
d="M74 680c7.33301 30 26.0029 54.834 56.0029 74.501s54.667 40.834 74 63.501c21.333 30.667 31.333 29.667 30 -3c-2 -33.333 -3.83301 -65.833 -5.5 -97.5s-2.83398 -67.834 -3.50098 -108.501c-3.33301 -104 -0.666016 -184 8.00098 -240
c6.66699 -44.667 19.667 -75.834 39 -93.501s44.333 -6.83398 75 32.499c22 31.333 39.167 64.333 51.5 99s21.166 70.334 26.499 107.001c8 29.333 17.833 36.333 29.5 21s12.834 -37 3.50098 -65c-4.66699 -12.667 -15.667 -41 -33 -85s-39 -88.333 -65 -133
c-26.667 -45.333 -56.834 -83.666 -90.501 -114.999s-68.834 -40.333 -105.501 -27c-36.667 12 -63.834 38.667 -81.501 80s-29.167 87.666 -34.5 138.999c-5.33301 50.667 -4.83301 112 1.5 184s14.5 127.667 24.5 167zM61.0029 1011
c3.33301 28 17.334 46.834 42.001 56.501s46 27.5 64 53.5c14.667 19.333 22 18.666 22 -2.00098c0.666992 -68.667 14 -108.834 40 -120.501s43 -19.167 51 -22.5c17.333 -10 16.666 -18 -2.00098 -24c-1.33301 0 -14 -3.83301 -38 -11.5s-50 -12.167 -78 -13.5
c-28 -2 -52.833 2.33301 -74.5 13s-30.5 34.334 -26.5 71.001z" />
    <glyph glyph-name="j" unicode="j" horiz-adv-x="265" 
d="M52 1028c3.33301 28 17.334 46.667 42.001 56s46 27 64 53c14.667 22 22 21.667 22 -1c0.666992 -68.667 14 -108.834 40 -120.501s43 -19.167 51 -22.5c17.333 -10 16.666 -18 -2.00098 -24c-1.33301 0 -14 -3.83301 -38 -11.5s-50 -12.167 -78 -13.5
c-28 -2 -52.833 2.33301 -74.5 13s-30.5 34.334 -26.5 71.001zM201.001 729c-8.66699 -62.667 -12.6709 -123.499 -12.0039 -182.499s3.66699 -116.5 9 -172.5s11.833 -110.5 19.5 -163.5s14.5 -104.5 20.5 -154.5s9.83301 -98.5 11.5 -145.5s-0.5 -93.167 -6.5 -138.5
c-13.333 -96 -48 -180 -104 -252c-35.333 -44.667 -85.166 -84 -149.499 -118s-121.833 -69 -172.5 -105c-18 -12.667 -24.167 -4.83398 -18.5 23.499s17.5 42.166 35.5 41.499c68 0 123.333 49 166 147c40.667 88 64.334 196 71.001 324c2 41.333 2.66699 84.333 2 129
s-2 90.667 -4 138c-4 87.333 -8.66699 179.333 -14 276c-4.66699 97.333 -5.66699 171 -3 221c2.66699 61.333 12.334 96.333 29.001 105c7.33301 4 23.5 18.833 48.5 44.5s43.5 46.5 55.5 62.5c14.667 21.333 24.334 29.5 29.001 24.5s6.66699 -10.833 6 -17.5
c-2 -15.333 -5 -27.666 -9 -36.999s-7.33301 -26 -10 -50z" />
    <glyph glyph-name="k" unicode="k" horiz-adv-x="535" 
d="M220 196c2 -8.66699 1.50195 -16.3359 -1.49805 -23.0029s-11.167 -10.667 -24.5 -12c-10.667 -0.666992 -28.667 -7 -54 -19s-42.333 -25 -51 -39c-16.667 -27.333 -27.334 -41.333 -32.001 -42c-4 -0.666992 -6 4.33301 -6 15c-3.33301 288 1.66699 513.667 15 677
c12 168 34.667 307.333 68 418c27.333 92.667 67.666 183.334 120.999 272.001c25.333 42 53.166 84.667 83.499 128l99.5 140c10.667 14.667 36.834 22.834 78.501 24.501s39.834 -12.5 -5.49902 -42.5c-53.333 -36 -98.333 -78.333 -135 -127
c-42 -55.333 -76.667 -121.666 -104 -198.999c-29.333 -82.667 -51 -180.667 -65 -294c-14.667 -118.667 -21.334 -256.334 -20.001 -413.001c0.666992 -27.333 5.66699 -26.666 15 2.00098c14 44 31.833 87.667 53.5 131s47.167 80.666 76.5 111.999
c54 58.667 97 91.334 129 98.001s53.667 -1.66602 65 -24.999c10.667 -24 11.334 -56.833 2.00098 -98.5s-28 -81.167 -56 -118.5c-24.667 -32.667 -52.667 -67.5 -84 -104.5l-82 -98.5c-6.66699 -9.33301 -8.66699 -20 -6 -32c9.33301 -45.333 22.333 -85.333 39 -120
c22 -46 50 -83 84 -111c43.333 -38.667 84 -35.334 122 9.99902c32 38.667 62.333 109.667 91 213c7.33301 25.333 16.666 28.5 27.999 9.5s15 -33.167 11 -42.5l-70.5 -151c-29 -62.667 -59.833 -119 -92.5 -169c-34 -51.333 -68.167 -87.5 -102.5 -108.5
s-65.5 -9.5 -93.5 34.5c-21.333 32 -41.5 78.833 -60.5 140.5s-33.5 114.834 -43.5 159.501c-0.666992 2 -1.66699 5.66699 -3 11c-3.33301 13.333 -6.33301 17.5 -9 12.5s-3.66699 -13.167 -3 -24.5c0 -29.333 2.5 -65.833 7.5 -109.5s10.167 -71.834 15.5 -84.501z
M216.002 526.998l47.499 57.001c16.333 20 31.5 40 45.5 60c39.333 59.333 53 101.666 41 126.999c-13.333 26 -27.666 31.667 -42.999 17s-30 -39 -44 -73c-12 -26 -23.167 -55.167 -33.5 -87.5s-19.5 -62.5 -27.5 -90.5c-8 -26 -3.33301 -29.333 14 -10z" />
    <glyph glyph-name="l" unicode="l" horiz-adv-x="360" 
d="M293 1529c18.667 -19.333 37.3359 -53.6719 56.0029 -103.005c20 -56.667 34.333 -117 43 -181c10.667 -76 12.334 -150.667 5.00098 -224c-8 -82 -27.333 -159 -58 -231c-14.667 -32 -31.667 -63 -51 -93c-15.333 -20.667 -28.333 -37 -39 -49
c-13.333 -15.333 -23.333 -26.166 -30 -32.499s-9.66699 -18.833 -9 -37.5c0 -26 2.66699 -64.167 8 -114.5s13.666 -96.166 24.999 -137.499c10 -41.333 23.5 -69.666 40.5 -84.999s37.5 -0.666016 61.5 44.001c21.333 38.667 37.333 74 48 106
c8.66699 26.667 18.667 60 30 100c8 28.667 17.833 35.334 29.5 20.001s12.5 -37 2.5 -65c-4 -12.667 -14.667 -41 -32 -85s-39 -88.333 -65 -133c-26.667 -46 -56.834 -84.5 -90.501 -115.5s-68.834 -39.833 -105.501 -26.5c-33.333 11.333 -56.833 38.833 -70.5 82.5
s-22.834 91.5 -27.501 143.5c-8 76.667 -12 168.334 -12 275.001c0 115.333 5 223.666 15 324.999c10 114 27 220.333 51 319c26 109.333 57.333 195.666 94 258.999c19.333 30 35.5 45.833 48.5 47.5s23.833 -1.16602 32.5 -8.49902zM249.002 1382.99
c-8.66699 31.333 -14.334 32.332 -17.001 2.99902c-11.333 -104.667 -19 -224.667 -23 -360c-4 -107.333 -5.33301 -217 -4 -329c0 -10.667 0.5 -20.5 1.5 -29.5s7.83301 -5.83301 20.5 9.5c24.667 30 42.5 78.833 53.5 146.5s15.833 141.5 14.5 221.5
c-3.33301 128.667 -18.666 241.334 -45.999 338.001z" />
    <glyph glyph-name="m" unicode="m" horiz-adv-x="936" 
d="M27 75c0 20.667 0.669922 45.8301 2.00293 75.4971s2.66602 61.834 3.99902 96.501c0.666992 34.667 1.5 70.834 2.5 108.501s1.83301 75.5 2.5 113.5c0 84.667 -1.33301 152.334 -4 203.001c-4.66699 62.667 -11.334 101.667 -20.001 117
c-15.333 25.333 6.16699 48.333 64.5 69s98.5 46.667 120.5 78c21.333 31.333 30 30.333 26 -3c-8 -70.667 -14 -147 -18 -229c-4 -70 -6.33301 -143.333 -7 -220c0 -36 6 -38.667 18 -8c33.333 84 74 171.667 122 263c56.667 106 103.334 175 140.001 207
c14 11.333 28.833 20.666 44.5 27.999s21.5 -2.66699 17.5 -30c-8.66699 -58.667 -16 -112 -22 -160s-10 -98 -12 -150c-1.33301 -28 -1.5 -55.5 -0.5 -82.5s1.83301 -52.5 2.5 -76.5c1.33301 -30 8 -30 20 0c31.333 79.333 69 155.333 113 228
c46.667 79.333 85.667 132.666 117 159.999c13.333 11.333 27.833 20.666 43.5 27.999s21.5 -2.66699 17.5 -30c-1.33301 -8 -3.33301 -48.167 -6 -120.5s-4.33398 -146.5 -5.00098 -222.5c0 -32 2.5 -67.5 7.5 -106.5s13.167 -69.833 24.5 -92.5
c10.667 -22.667 24.5 -31.167 41.5 -25.5s36.833 37.834 59.5 96.501c8 20 14 40.833 18 62.5s9.33301 44.167 16 67.5c8 29.333 17.833 36.166 29.5 20.499s12.834 -37.167 3.50098 -64.5l-33.5 -89c-17.667 -46.667 -39.834 -94 -66.501 -142
c-26.667 -48.667 -57 -90.167 -91 -124.5s-69.333 -45.166 -106 -32.499c-42 13.333 -68.667 51 -80 113c-4.66699 27.333 -6.5 56.666 -5.5 87.999s3.16699 62.333 6.5 93c6 62 18.333 133 37 213s20.334 107 5.00098 81c-18.667 -32 -42.167 -90.333 -70.5 -175
s-49.5 -151 -63.5 -199c-2 -5.33301 -4.33301 -13 -7 -23s-3 -19.667 -1 -29c3.33301 -13.333 2.16602 -22.166 -3.50098 -26.499s-16.834 -8.5 -33.501 -12.5c-26.667 -6.66699 -47.167 -15.167 -61.5 -25.5s-27.166 -23.166 -38.499 -38.499
c-20.667 -26.667 -34.667 -41 -42 -43c-4.66699 -0.666992 -7 4.66602 -7 15.999c-1.33301 38 -1.33301 85.333 0 142s3 114 5 172c0 6.66699 0.166992 13.834 0.5 21.501s0.5 15.834 0.5 24.501c2 46 7.16699 98.833 15.5 158.5s6.16602 80.167 -6.50098 61.5
c-25.333 -36 -50 -88.5 -74 -157.5s-43 -131.833 -57 -188.5c-4 -16.667 -9.66699 -41.834 -17 -75.501s-9 -58.5 -5 -74.5c2 -10 0.833008 -17.833 -3.5 -23.5s-14.5 -10.167 -30.5 -13.5c-26 -7.33301 -46.333 -16.166 -61 -26.499s-27.667 -23.166 -39 -38.499
c-20.667 -26.667 -34.667 -41 -42 -43c-4.66699 -0.666992 -7 4.66602 -7 15.999z" />
    <glyph glyph-name="n" unicode="n" horiz-adv-x="640" 
d="M63 79c-0.666992 20.667 -1.00098 45.8369 -1.00098 75.5039v96.5c0 34 -0.166992 69.833 -0.5 107.5s-0.5 75.167 -0.5 112.5l-2 106.5c-0.666992 34.333 -2 65.5 -4 93.5c-3.33301 60 -8.33301 97.333 -15 112c-11.333 21.333 13 45 73 71s100.667 54.667 122 86
c22 31.333 30.667 30.666 26 -2.00098c-8 -67.333 -13.833 -138.166 -17.5 -212.499s-5.83398 -144.833 -6.50098 -211.5c-2 -37.333 3 -39.333 15 -6c34 90.667 73 180 117 268c46.667 90.667 84 148.334 112 173.001c14 11.333 30.667 20 50 26s23.333 -3.66699 12 -29
c-2.66699 -4.66699 -6.33398 -49 -11.001 -133s-6 -171.333 -4 -262c0.666992 -65.333 4 -119 10 -161c10.667 -85.333 30.334 -124.333 59.001 -117c14.667 2.66699 29.667 17 45 43s28.333 55.667 39 89c6 22 12.333 54.333 19 97c5.33301 30.667 15.166 37.667 29.499 21
s16.5 -39.667 6.5 -69c-4 -12.667 -15.167 -42 -33.5 -88s-41.166 -92.333 -68.499 -139c-28 -47.333 -59.667 -87.5 -95 -120.5s-72 -42.5 -110 -28.5c-42 14 -67.667 51.5 -77 112.5s-11 128.167 -5 201.5s15.833 144.166 29.5 212.499s22.834 116.5 27.501 144.5
c4 22.667 1.66699 26.667 -7 12c-10 -16.667 -22.667 -48 -38 -94s-31 -96 -47 -150c-34 -117.333 -57.667 -208.333 -71 -273c-2.66699 -12.667 -1 -24.667 5 -36c1.33301 -2.66699 1.33301 -9.33398 0 -20.001s-12.666 -16.334 -33.999 -17.001
c-13.333 -0.666992 -30.5 -7.83398 -51.5 -21.501s-37.167 -28.167 -48.5 -43.5c-21.333 -26.667 -35.333 -41 -42 -43c-4.66699 -0.666992 -7 4.66602 -7 15.999z" />
    <glyph glyph-name="o" unicode="o" horiz-adv-x="552" 
d="M510 857c24.667 -74 35.6689 -155.999 33.002 -245.999c0 -16.667 7 -19.334 21 -8.00098c22.667 19.333 42.5 41 59.5 65s30.5 44.667 40.5 62c10 18.667 19.5 23.667 28.5 15s11.5 -22 7.5 -40c-52.667 -69.333 -102.334 -127 -149.001 -173
c-8.66699 -8.66699 -14.334 -20.667 -17.001 -36c-6 -34 -17.167 -75.167 -33.5 -123.5s-36.833 -94.166 -61.5 -137.499c-25.333 -44 -54.666 -82.5 -87.999 -115.5s-70.333 -53.833 -111 -62.5c-90.667 -20 -154.334 43.333 -191.001 190
c-20.667 81.333 -28 169.666 -22 264.999c2 48.667 8.83301 101 20.5 157s30.5 108 56.5 156c48 90 117 144 207 162c40 8 78.333 2.33301 115 -17s64.667 -57 84 -113zM176.002 729.001c-6.66699 -74.667 17.3311 -136 71.998 -184c46.667 -41.333 98.334 -55 155.001 -41
c10.667 2 15 9.66699 13 23c-15.333 114 -44.333 211 -87 291c-44 81.333 -79.167 102.5 -105.5 63.5s-42.166 -89.833 -47.499 -152.5zM406 441.001c-28 -14.667 -60.167 -19.333 -96.5 -14s-64.5 11.666 -84.5 18.999c-16 5.33301 -24 -0.666992 -24 -18
c2.66699 -56.667 16.334 -105 41.001 -145c21.333 -35.333 46.166 -56.833 74.499 -64.5s52.5 2.83301 72.5 31.5c14 20.667 23.333 46.834 28 78.501s7 65.167 7 100.5c-1.33301 14 -7.33301 18 -18 12z" />
    <glyph glyph-name="p" unicode="p" horiz-adv-x="598" 
d="M185 623c14.667 34 29.334 62.6631 44.001 85.9961c17.333 28.667 34.666 53.334 51.999 74.001c58 71.333 117.333 107.666 178 108.999c66.667 2 106.334 -45 119.001 -141c11.333 -92 6 -182.333 -16 -271c-21.333 -83.333 -54.333 -154.666 -99 -213.999
c-40 -54.667 -73 -98.167 -99 -130.5s-51 -42.5 -75 -30.5c-10 4.66699 -21.833 11.334 -35.5 20.001s-30.5 14 -50.5 16c-21.333 2 -31 -8.33301 -29 -31c6 -150 10.333 -280.167 13 -390.5s5.33398 -170.5 8.00098 -180.5c3.33301 -12 3.5 -20.667 0.5 -26
s-12.167 -8.66602 -27.5 -9.99902c-20.667 -2.66699 -42.334 -9.16699 -65.001 -19.5s-41.667 -25.833 -57 -46.5c-16.667 -25.333 -27.667 -38.666 -33 -39.999c-6.66699 -1.33301 -9 3.66699 -7 15c6 40 13 134 21 282c2.66699 70 5.33398 146.333 8.00098 229
s4.66699 166.667 6 252c1.33301 84.667 1.66602 167.167 0.999023 247.5s-2.66699 152.5 -6 216.5c-8 141.333 -21.333 218 -40 230c-10 6.66699 9.66699 26.167 59 58.5s82.666 63.5 99.999 93.5c16 30.667 23.333 30 22 -2c-4 -50 -6.33301 -103.667 -7 -161
c-0.666992 -33.333 -1.16699 -69.333 -1.5 -108s-0.5 -79 -0.5 -121c0 -30.667 5.66699 -32.667 17 -6zM200 269.996c36 56 65.6699 74.8301 89.0029 56.4971s42.666 -47.166 57.999 -86.499c12 -31.333 21.5 -32.166 28.5 -2.49902s11.167 49.167 12.5 58.5
c8 80 5.66699 167.333 -7 262c-6 44 -14.833 81.833 -26.5 113.5s-26.167 47.834 -43.5 48.501c-37.333 0.666992 -73.333 -57.333 -108 -174c-14.667 -50.667 -23.834 -96 -27.501 -136s-4.83398 -86 -3.50098 -138c0 -31.333 9.33301 -32 28 -2z" />
    <glyph glyph-name="q" unicode="q" horiz-adv-x="648" 
d="M383 291c13.333 12.667 22.4951 17.332 27.4951 13.999s4.16699 -11.333 -2.5 -24c-40 -73.333 -76.333 -133 -109 -179s-77 -52.333 -133 -19c-35.333 20 -63.333 52.5 -84 97.5s-35 94.167 -43 147.5c-17.333 113.333 -10.333 214 21 302c25.333 68 71 139.667 137 215
c60 68.667 132.333 109.5 217 122.5s149 -34.167 193 -141.5c24 -60 35.333 -128.333 34 -205s-14.666 -147 -39.999 -211c-37.333 -94 -89.666 -184.333 -156.999 -271s-129.666 -171.334 -186.999 -254.001c-9.33301 -12.667 -8.33301 -20.334 3 -23.001
c38.667 -9.33301 81.334 -32 128.001 -68c20 -15.333 39.667 -31.666 59 -48.999l57 -51c44.667 -39.333 79 -64.333 103 -75c58.667 -22 100 -9 124 39c3.33301 8.66699 8.5 20.167 15.5 34.5s16.5 16.5 28.5 6.5c13.333 -10 3 -32.333 -31 -67
c-29.333 -29.333 -64.5 -55 -105.5 -77s-84.167 -33 -129.5 -33c-63.333 1.33301 -119 25.666 -167 72.999c-36 34.667 -76.667 79 -122 133s-81.666 74.667 -108.999 62c-33.333 -15.333 -47 -16.166 -41 -2.49902s23 30.834 51 51.501
c76 56.667 135.833 116.834 179.5 180.501s78.5 124.834 104.5 183.501c40 96 50.333 203.667 31 323c-18 103.333 -57 182 -117 236c-54 47.333 -97.333 47.666 -130 0.999023c-32.667 -45.333 -48 -101 -46 -167s14.667 -126.667 38 -182c22.667 -56 53.5 -99 92.5 -129
s75.5 -28 109.5 6z" />
    <glyph glyph-name="r" unicode="r" horiz-adv-x="460" 
d="M-27 111c10.667 12.667 22.9971 58.334 36.9971 137.001c15.333 82 27 170.333 35 265c8 100.667 10.667 196 8 286c-3.33301 93.333 -16.666 160 -39.999 200c-6.66699 8.66699 -6 16 2 22l21 15l30 21c21.333 13.333 40 28 56 44
c14.667 12.667 21.334 10.334 20.001 -6.99902c-4.66699 -32.667 -7.33398 -64.334 -8.00098 -95.001c-2 -35.333 -3 -72 -3 -110c0 -15.333 4 -26.333 12 -33c27.333 -23.333 65.333 -42.666 114 -57.999c46.667 -15.333 84 -11 112 13c12.667 10.667 20.667 9 24 -5
c2.66699 -16 -0.333008 -36.333 -9 -61c-26 -68.667 -43.667 -135.667 -53 -201c-10 -76.667 -4.33301 -145 17 -205c20 -58 46.667 -72.667 80 -44c10 8 19 19.667 27 35s15 29.666 21 42.999c9.33301 22 16.5 45.167 21.5 69.5s11.167 49.5 18.5 75.5
c7.33301 28 17.333 34.667 30 20c10.667 -15.333 11.667 -37 3 -65c-4 -9.33301 -15 -38 -33 -86c-18 -45.333 -40 -90 -66 -134c-8.66699 -16 -19.667 -33.833 -33 -53.5s-28.333 -37.5 -45 -53.5c-40 -38.667 -79 -51.667 -117 -39c-33.333 11.333 -56.333 35.333 -69 72
c-8.66699 24.667 -13 59 -13 103c0 57.333 9.33301 129.666 28 216.999c18.667 84.667 45 152 79 202c2.66699 3.33301 2.33398 6.66602 -0.999023 9.99902c-4 2 -7.33301 2.33301 -10 1c-39.333 -18 -81.333 -19 -126 -3c-7.33301 2 -11 -2.33301 -11 -13
c0.666992 -128 -0.666016 -242 -3.99902 -342c-4.66699 -109.333 -22 -181.666 -52 -216.999c-25.333 -30 -54 -47 -86 -51c-31.333 -5.33301 -37 3 -17 25z" />
    <glyph glyph-name="s" unicode="s" horiz-adv-x="424" 
d="M140 391c24 12 35 9.99902 33 -6.00098s-6 -25 -12 -27c-41.333 -18 -59 -42.5 -53 -73.5s23.667 -57.167 53 -78.5c60 -44.667 97.833 -50.167 113.5 -16.5s11.5 76.167 -12.5 127.5c-8 17.333 -17.167 35.166 -27.5 53.499s-20.5 37.5 -30.5 57.5l-31 59
c-10.667 20 -21 40.333 -31 61c-24 50 -40.667 91.667 -50 125c-14.667 46.667 -22.334 88.667 -23.001 126c-2.66699 98 35.333 183 114 255c24.667 22.667 53.334 37.5 86.001 44.5s37 -9.16699 13 -48.5c-10 -17.333 -23.333 -22.666 -40 -15.999
s-31.667 -4.33301 -45 -33c-16 -35.333 -17.333 -76.333 -4 -123c11.333 -38 32.333 -82.333 63 -133c13.333 -22.667 27.333 -45.167 42 -67.5l42 -65.5c29.333 -50 48 -92.333 56 -127c12 -54 11 -105.167 -3 -153.5s-31.333 -89.5 -52 -123.5s-50.5 -70.667 -89.5 -110
s-79.833 -61 -122.5 -65c-34 -4 -60.167 7.66699 -78.5 35s-25.5 59 -21.5 95c4.66699 44.667 21.167 92.334 49.5 143.001s48.833 79 61.5 85z" />
    <glyph glyph-name="t" unicode="t" horiz-adv-x="245" 
d="M-618 1178c-32.667 -30 -47.332 -35.333 -43.999 -16s10 33 20 41c114.667 86.667 231.667 147.5 351 182.5s237.666 55.5 354.999 61.5c13.333 0.666992 20 7 20 19c-0.666992 18 -1.66699 37.667 -3 59s-4 35.333 -8 42c-8.66699 13.333 2.5 29.166 33.5 47.499
s53.167 39.833 66.5 64.5c14 26.667 20.333 26 19 -2c-4 -54 -6.33301 -123.667 -7 -209c0 -12.667 6 -19 18 -19c64 -1.33301 127 -4.66602 189 -9.99902s123 -9.33301 183 -12c93.333 -6 176.333 -10 249 -12s139 1.33301 199 10c118.667 16.667 222 66.667 310 150
c26.667 25.333 41.667 31.833 45 19.5s4.33301 -23.5 3 -33.5c-4 -25.333 -68 -63 -192 -113c-58 -24 -125.5 -47.5 -202.5 -70.5s-159.5 -42.167 -247.5 -57.5c-110 -21.333 -220.333 -32.666 -331 -33.999c-61.333 -1.33301 -128.333 2.66699 -201 12
c-16 1.33301 -24 -6.66699 -24 -24c-0.666992 -126 -0.5 -262.5 0.5 -409.5s2.33301 -283.833 4 -410.5s3.5 -233 5.5 -319s4 -131 6 -135c0.666992 -2 0.666992 -7.83301 0 -17.5s-8.33398 -14.834 -23.001 -15.501c-10 0 -25.667 -6.33301 -47 -19s-36 -25 -44 -37
c-3.33301 -4 -11.666 -15.5 -24.999 -34.5s-19 -17.5 -17 4.5c2 39.333 4.16699 77.833 6.5 115.5s4.16602 76.5 5.49902 116.5l14.5 583c5.66699 234 9.83398 431.333 12.501 592c0 16.667 -6.33301 26 -19 28c-56 6.66699 -114.5 11.5 -175.5 14.5s-127.5 0.5 -199.5 -7.5
c-53.333 -6 -108.5 -23.333 -165.5 -52s-103.833 -59.667 -140.5 -93z" />
    <glyph glyph-name="u" unicode="u" horiz-adv-x="665" 
d="M240 299c44 -30.667 85.3311 5.66113 123.998 108.994c6 18 11.333 47.667 16 89c4 52.667 7.16699 99.834 9.5 141.501s4.5 73.5 6.5 95.5c2 35.333 21.5 61.833 58.5 79.5s66.167 41.834 87.5 72.501c8 12 14.833 17.167 20.5 15.5s7.5 -7.5 5.5 -17.5
c-2 -9.33301 -5.83301 -40.166 -11.5 -92.499s-9.16699 -112.5 -10.5 -180.5c-1.33301 -49.333 -1 -92.666 1 -129.999c0.666992 -43.333 3.66699 -80.666 9 -111.999c12 -85.333 31.667 -118.666 59 -99.999s51.666 52 72.999 100
c11.333 26.667 19.666 53.834 24.999 81.501s9.66602 48.167 12.999 61.5c6 29.333 16 35.666 30 18.999s15 -38 3 -64c-6 -12.667 -17.833 -43.167 -35.5 -91.5s-39.5 -97.5 -65.5 -147.5c-26 -50.667 -55.333 -93.834 -88 -129.501s-67 -47.5 -103 -35.5
c-27.333 9.33301 -48.166 35 -62.499 77s-22.166 85 -23.499 129c-2 38 -12.667 39.333 -32 4c-24.667 -45.333 -52 -84.333 -82 -117c-33.333 -35.333 -59.333 -53.333 -78 -54c-63.333 -5.33301 -105.666 48.667 -126.999 162c-20.667 102.667 -23 239.334 -7 410.001
c2.66699 35.333 27.5 63.5 74.5 84.5s80.5 46.833 100.5 77.5c7.33301 12 14.333 17.167 21 15.5s9.33398 -7.5 8.00098 -17.5c-2.66699 -15.333 -9.33398 -48.833 -20.001 -100.5s-19.667 -107.167 -27 -166.5s-10.166 -115 -8.49902 -167s13.834 -85.667 36.501 -101z" />
    <glyph glyph-name="v" unicode="v" horiz-adv-x="560" 
d="M338 714c-2 -18.667 -8.33301 -26.832 -19 -24.499s-16 11.166 -16 26.499c-3.33301 52.667 8 94 34 124c14.667 16.667 40.5 36.834 77.5 60.501s64.5 39.5 82.5 47.5c38.667 17.333 63.667 3.33301 75 -42c8.66699 -38 6 -99 -8 -183
c-14.667 -76.667 -36.334 -158 -65.001 -244c-28 -82.667 -59.667 -158.334 -95 -227.001c-10 -18 -29.667 -48.5 -59 -91.5s-58 -62.5 -86 -58.5c-19.333 2 -38 12.667 -56 32c-22 22.667 -42.667 56 -62 100c-22.667 46.667 -43.667 108.667 -63 186
c-20.667 75.333 -40 172.666 -58 291.999c-5.33301 36 17.334 63.5 68.001 82.5s83 43.833 97 74.5c4.66699 12 10.5 17.167 17.5 15.5s10.833 -7.5 11.5 -17.5c2.66699 -54.667 7.33398 -115 14.001 -181c6 -62.667 13 -119.667 21 -171
c9.33301 -60 18.666 -107.667 27.999 -143c12 -46 23.333 -78.333 34 -97c14 -26.667 25 -37 33 -31s16 19 24 39c22 56 38.833 120.167 50.5 192.5s13.5 135.833 5.5 190.5c-9.33301 58.667 -24 100.834 -44 126.501s-34 -0.5 -42 -78.5z" />
    <glyph glyph-name="w" unicode="w" horiz-adv-x="897" 
d="M615 814c16 39.333 43.6641 69.833 82.9971 91.5s66.333 49.167 81 82.5c12 28.667 32.5 13.167 61.5 -46.5s46.833 -132.834 53.5 -219.501c7.33301 -98.667 -0.333984 -192 -23.001 -280c-22.667 -83.333 -56.667 -154 -102 -212
c-16 -20.667 -38.667 -44.834 -68 -72.501s-55.666 -47.5 -78.999 -59.5c-22 -11.333 -43 -16.333 -63 -15c-47.333 0 -82 25.833 -104 77.5s-35.333 96.5 -40 134.5c-2.66699 14.667 -8 15 -16 1c-22 -42.667 -45 -81.5 -69 -116.5s-47 -58.5 -69 -70.5
c-35.333 -18.667 -71 -6.66699 -107 36c-32 36 -57.833 89.167 -77.5 159.5s-31.167 141.5 -34.5 213.5c-4 72 1.16699 136.833 15.5 194.5s39.5 92.167 75.5 103.5c20.667 6 53.334 23.5 98.001 52.5s74 49.5 88 61.5c24.667 20.667 38.167 24.834 40.5 12.501
s-6.5 -28.833 -26.5 -49.5c-40 -40 -67.5 -93.167 -82.5 -159.5s-23.5 -127.166 -25.5 -182.499c-3.33301 -65.333 -0.166016 -133 9.50098 -203s34.5 -100 74.5 -90c14.667 4 29.167 18 43.5 42s28.5 52 42.5 84c6 14.667 9.66699 36.334 11 65.001
c0 38 -0.5 77.167 -1.5 117.5s-6.5 83.5 -16.5 129.5c-7.33301 32 7.16699 57.333 43.5 76s65.166 44 86.499 76c8 12 15.667 17.167 23 15.5s10 -7.5 8 -17.5c-10.667 -58.667 -17.667 -120.667 -21 -186c-2 -54 -0.666992 -107 4 -159c8 -83.333 30.667 -157.333 68 -222
c17.333 -30.667 36 -52.334 56 -65.001s39.333 -8.66699 58 12c24 26 38.167 63.167 42.5 111.5s5.83301 96.833 4.5 145.5c-3.33301 92 -14.166 161.833 -32.499 209.5s-35.833 79.5 -52.5 95.5c-16.667 15.333 -32.667 19.5 -48 12.5s-19.666 -2.5 -12.999 13.5z" />
    <glyph glyph-name="x" unicode="x" horiz-adv-x="555" 
d="M474 238c24 -10 45.665 -6.8291 64.998 9.50391s36 38.166 50 65.499c14 26.667 25 55 33 85s13 53 15 69c2 26 10 29.333 24 10s19 -33.666 15 -42.999c-11.333 -26 -25.5 -60.833 -42.5 -104.5s-37.5 -84.834 -61.5 -123.501c-24 -40 -47.5 -71.333 -70.5 -94
s-53.5 -25.334 -91.5 -8.00098c-34.667 14 -68.667 51.333 -102 112c-14.667 24.667 -25.834 46.667 -33.501 66s-16.167 38.666 -25.5 57.999c-12 23.333 -21.667 26 -29 8l-43 -87.5l-38 -75.5c-24.667 -46.667 -48 -86.334 -70 -119.001c-20.667 -32 -41 -58.667 -61 -80
c-17.333 -20 -36 -37.333 -56 -52c-40 -29.333 -88 -45.333 -144 -48s-70.333 1.66602 -43 12.999c22.667 9.33301 52.667 34 90 74c29.333 29.333 67.333 74.333 114 135c42.667 56.667 81.334 111.334 116.001 164.001l101 157c6 10 6 22 0 36s-11 26.667 -15 38
c-10 24.667 -26.333 62.667 -49 114l-28 63l-28 69c-18 46 1.33301 73.5 58 82.5s99.667 44.5 129 106.5c4 8 9 10.667 15 8s9 -7 9 -13c-4 -108.667 6.33301 -212.334 31 -311.001c4.66699 -19.333 11 -20 19 -2c64.667 136.667 91.334 233.667 80.001 291
c-2.66699 14.667 3 24 17 28c20 6 45.333 16.5 76 31.5s55.667 29.5 75 43.5c6 4 11.333 5 16 3s4.33398 -7 -0.999023 -15c-34.667 -51.333 -71.334 -114.333 -110.001 -189l-64.5 -116c-23 -41.333 -44.5 -84 -64.5 -128c-12 -27.333 -14.333 -51.666 -7 -72.999
c4 -14 9.83301 -32.5 17.5 -55.5s16.834 -46.833 27.501 -71.5c11.333 -30 24.333 -57.833 39 -83.5s30 -41.5 46 -47.5z" />
    <glyph glyph-name="y" unicode="y" horiz-adv-x="650" 
d="M372 462c6 17.333 8.66895 45.3281 8.00195 83.9951c-2.66699 54.667 -0.333984 113.667 6.99902 177c8 64 16.667 101.333 26 112c23.333 26 53.5 45.833 90.5 59.5s62.833 31.5 77.5 53.5c10 15.333 17.667 17.833 23 7.5s6 -18.833 2 -25.5
c-14 -22 -24.333 -56.333 -31 -103s-10.667 -90 -12 -130c-0.666992 -10.667 -0.833984 -20.667 -0.500977 -30s0.5 -18 0.5 -26c-1.33301 -64 3.66699 -130.667 15 -200c5.33301 -32 11.166 -63.333 17.499 -94l19.5 -91l18 -90c6 -29.333 11 -58.666 15 -87.999
c8.66699 -66.667 10.667 -125 6 -175c-8.66699 -107.333 -44.667 -197.666 -108 -270.999c-60.667 -67.333 -132.667 -101.666 -216 -102.999c-73.333 -0.666992 -145 21.666 -215 66.999c-66 43.333 -111.667 93.333 -137 150c-25.333 60.667 -19 109 19 145
c40 37.333 69.333 72 88 104c3.33301 6 9.16602 8.33301 17.499 7s11.833 -7 10.5 -17c-6 -36.667 1 -79.667 21 -129c16.667 -42.667 43 -85.667 79 -129c54 -65.333 114.667 -106.666 182 -123.999s112 23 134 121c7.33301 39.333 8 84.333 2 135
c-5.33301 44 -16.333 96.333 -33 157l-50 176l-25.5 93.5c-8.33301 31.667 -15.833 64.167 -22.5 97.5c-5.33301 21.333 -13.666 20 -24.999 -4l-82.5 -164.5c-42.333 -83.667 -85.166 -122.5 -128.499 -116.5c-36 4 -65 35.667 -87 95c-18.667 48 -30.667 113 -36 195
c-5.33301 72.667 -4.66602 142.334 2.00098 209.001c6 66.667 15.667 111.334 29 134.001c12 22.667 42 46.834 90 72.501s82.667 54.167 104 85.5c8 11.333 15.667 15.666 23 12.999s9.66602 -7.66699 6.99902 -15c-20 -52.667 -38 -102.667 -54 -150s-26.667 -99 -32 -155
c-6 -68 -5.33301 -131.333 2 -190s24.666 -86.334 51.999 -83.001c24 2 46.333 23.833 67 65.5s34.334 70.834 41.001 87.501z" />
    <glyph glyph-name="z" unicode="z" horiz-adv-x="520" 
d="M613 316c18.667 22 28.834 27.5 30.501 16.5s0.5 -19.5 -3.5 -25.5c-61.333 -90.667 -115.666 -150.667 -162.999 -180c-38 -23.333 -72.333 -27.333 -103 -12c-14 6 -26.833 14.667 -38.5 26s-22.5 22.333 -32.5 33c-27.333 24 -49.333 34.333 -66 31
c-11.333 -2.66699 -22.833 -13.334 -34.5 -32.001s-24.167 -35.667 -37.5 -51s-27.333 -22.833 -42 -22.5s-29 13.166 -43 38.499c-18 34.667 -22.667 75 -14 121c7.33301 41.333 25.333 87 54 137c26 44 60 90.667 102 140c38 44 80.667 87 128 129
c12.667 10.667 14 21.667 4 33c-31.333 33.333 -70 50.666 -116 51.999c-56 0 -104 -29.333 -144 -88c-16.667 -24 -27.667 -30.5 -33 -19.5s-6.66602 19.5 -3.99902 25.5c20 46 41.667 93.333 65 142s46 82.667 68 102c36 32 70.667 42.333 104 31
s66.333 -26.666 99 -45.999c32 -20 64 -35.167 96 -45.5s65 1.5 99 35.5c13.333 12.667 21.666 14.334 24.999 5.00098s0.666016 -22.333 -8.00098 -39c-11.333 -20.667 -32 -46.167 -62 -76.5s-53.667 -53.5 -71 -69.5c-31.333 -30 -62.333 -64.333 -93 -103
s-58.334 -76.667 -83.001 -114c-54.667 -85.333 -83 -146.333 -85 -183c-1.33301 -26 6.66699 -29.333 24 -10c31.333 36 61.5 57.833 90.5 65.5s68.833 1.5 119.5 -18.5c41.333 -21.333 74.333 -37.666 99 -48.999s47.667 -4.33301 69 21z" />
    <glyph glyph-name="braceleft" unicode="{" horiz-adv-x="788" 
d="M285 1534c36 -34.667 69 -129.33 99 -283.997s12.333 -306 -53 -454c-18 -40.667 -35 -71.834 -51 -93.501s-29 -37.834 -39 -48.501c-10.667 -12 -19.167 -21 -25.5 -27s-10.5 -14.333 -12.5 -25c2 -7.33301 3 -17 3 -29c0.666992 -42 4.83398 -95.5 12.501 -160.5
s21.667 -128.5 42 -190.5s47.833 -115.333 82.5 -160s79.667 -68 135 -70c76 -2 140.333 52 193 162c20 42 33.333 78.5 40 109.5s15 65.167 25 102.5c8 28.667 18.833 35.167 32.5 19.5s17.5 -38.5 11.5 -68.5c-24 -118 -76.667 -214.5 -158 -289.5
s-166 -115.833 -254 -122.5c-85.333 -6 -150.333 20.167 -195 78.5s-76.834 129.333 -96.501 213s-30.167 170 -31.5 259s-1.33301 160.833 0 215.5c2.66699 146 16.167 295.667 40.5 449s63.833 278.666 118.5 375.999c18 32.667 35 48 51 46s26 -4.66699 30 -8zM242 1389
c-9.33301 30 -15.333 31 -18 3c-10.667 -97.333 -18.167 -209.833 -22.5 -337.5s-5.83301 -245.167 -4.5 -352.5c0 -10 0.5 -19.5 1.5 -28.5s7.83301 -6.16699 20.5 8.5c43.333 52.667 66 154.167 68 304.5s-13 284.5 -45 402.5z" />
    <glyph glyph-name="bar" unicode="|" horiz-adv-x="265" 
d="M60 1350c2 40 25.166 72.502 69.499 97.502s77.5 54.833 99.5 89.5c8 13.333 15.333 19 22 17s8.66699 -8.33301 6 -19c-4 -13.333 -9.16699 -40 -15.5 -80s-10.166 -79 -11.499 -117c-2 -26.667 8 -39.334 30 -38.001c116 2 231 0 345 -6s191.667 -7 233 -3
c25.333 2 40.333 0 45 -6s1 -12.333 -11 -19c-8 -4 -19.333 -6 -34 -6s-26 -1 -34 -3c-106.667 -31.333 -206.167 -57.166 -298.5 -77.499s-179.5 -33.5 -261.5 -39.5c-16 -2 -24.667 -11 -26 -27c-11.333 -177.333 -16.166 -381 -14.499 -611s20.167 -406 55.5 -528
c9.33301 -34 27.833 -61.833 55.5 -83.5s58.5 -30.834 92.5 -27.501c15.333 2 27 5.33301 35 10c15.333 11.333 25 12.333 29 3s-2 -19 -18 -29c-20 -12 -40.667 -26.167 -62 -42.5s-42 -37.5 -62 -63.5c-8.66699 -10.667 -18.334 -25.167 -29.001 -43.5
s-23 -28.5 -37 -30.5c-38 -4.66699 -75.667 8.66602 -113 39.999s-59 91 -65 179c-5.33301 75.333 -8 166.333 -8 273s0.5 217.5 1.5 332.5s1.16699 227.833 0.5 338.5s-4.33398 207 -11.001 289c-1.33301 14 -8 22 -20 24c-56.667 4 -104.167 7 -142.5 9
s-71.166 -6.66699 -98.499 -26c-8 -6 -16 -6.66699 -24 -2s-0.666992 14.667 22 30c32 21.333 59.5 42.5 82.5 63.5s38.167 33.167 45.5 36.5c28 12 65.667 22.333 113 31c10 0 15 4.66699 15 14c0 6 -0.333008 15.5 -1 28.5s-0.666992 20.5 0 22.5z" />
    <glyph glyph-name="braceright" unicode="}" horiz-adv-x="1434" 
d="M830 458c3.33301 -114.667 22.6689 -211.33 58.002 -289.997c31.333 -73.333 72 -124.666 122 -153.999c47.333 -27.333 96.333 -30.333 147 -9c51.333 23.333 94.333 72 129 146c20 42 33.333 78.5 40 109.5s15 65.167 25 102.5c8 28.667 18.833 35.167 32.5 19.5
s17.5 -38.5 11.5 -68.5c-24.667 -122.667 -82.334 -224 -173.001 -304c-87.333 -76 -178.333 -112 -273 -108c-59.333 2.66699 -115 26.334 -167 71.001c-57.333 48.667 -95.666 113.334 -114.999 194.001c-14 54 -19.167 105.5 -15.5 154.5s10.5 99.167 20.5 150.5
l24.5 152.5c8.33301 51.667 8.83301 71.5 1.5 59.5c-22.667 -32 -48.5 -90.667 -77.5 -176s-47.833 -151.333 -56.5 -198c-6 -19.333 -8.33301 -39 -7 -59s-11.334 -30.333 -38.001 -31c-13.333 -0.666992 -30.5 -7.83398 -51.5 -21.501s-37.167 -28.167 -48.5 -43.5
c-2 -3.33301 -10.667 -14.166 -26 -32.499s-23 -16.5 -23 5.5c-2 60 -2.16699 120 -0.5 180s3.83398 120 6.50098 180c2 46 7.16699 98.833 15.5 158.5s6.16602 80.167 -6.50098 61.5c-25.333 -36 -50 -88.5 -74 -157.5s-43 -131.833 -57 -188.5
c-4 -16.667 -9.66699 -41.834 -17 -75.501s-9 -58.5 -5 -74.5c0.666992 -2.66699 0.5 -9.33398 -0.5 -20.001s-12.167 -16.334 -33.5 -17.001c-36 -2.66699 -69.333 -24.334 -100 -65.001c-2 -2 -10.833 -12.667 -26.5 -32s-23.167 -17.666 -22.5 5.00098
c1.33301 49.333 3 99 5 149s3.66699 100 5 150c3.33301 110 2.33301 209.333 -3 298c-4.66699 62.667 -11.334 101.667 -20.001 117c-15.333 25.333 6.33398 48.333 65.001 69s98.667 46.667 120 78s30 30.333 26 -3c-8.66699 -74 -15 -148.667 -19 -224
s-6 -150.333 -6 -225c0 -37.333 6 -40 18 -8c33.333 84 74 171.667 122 263c58 108 105 177 141 207c13.333 11.333 27.833 20.666 43.5 27.999s21.5 -3 17.5 -31c-12 -80 -21 -158 -27 -234s-7.66699 -154 -5 -234c1.33301 -30 8 -30 20 0
c29.333 73.333 67 149.333 113 228c22.667 39.333 60.167 90 112.5 152s74.5 64 66.5 6c-2.66699 -14.667 -4.66699 -48.334 -6 -101.001c-0.666992 -25.333 -1.66699 -51 -3 -77s-2.33301 -52 -3 -78c-2.66699 -58.667 -3.33398 -110.334 -2.00098 -155.001z" />
    <glyph glyph-name="asciitilde" unicode="~" horiz-adv-x="1010" 
d="M334 633c-36 -36.667 -59 -48.1709 -69 -34.5039s-7.66699 22.167 7 25.5c22 5.33301 36.667 14 44 26c10 18 14.333 49.667 13 95s-17.666 75.333 -48.999 90c-24 10 -50 -6.33301 -78 -49c-18.667 -27.333 -33.334 -68.833 -44.001 -124.5s-16 -109.167 -16 -160.5
c0 -52 6.16699 -94 18.5 -126s33.166 -38 62.499 -18c20.667 14 41.834 50.5 63.501 109.5s37.167 91.5 46.5 97.5l41.5 32c19.667 15.333 34.5 30.666 44.5 45.999c25.333 38.667 37 41 35 7l-5.5 -68c-1.66699 -21.333 -1.5 -44.333 0.5 -69c4 -124 24.667 -232 62 -324
c32.667 -81.333 74.667 -138.666 126 -171.999c48 -30.667 96.667 -36 146 -16c50 22 92 69.667 126 143c19.333 42.667 32.5 79.334 39.5 110.001s15.5 64.667 25.5 102c8 28.667 18.667 35.167 32 19.5s17 -38.5 11 -68.5c-22 -118.667 -73.333 -218 -154 -298
c-79.333 -76 -162.666 -112 -249.999 -108c-79.333 3.33301 -145.666 41.333 -198.999 114c-60.667 82.667 -97 203.334 -109 362.001c-2 17.333 -6.33301 19.333 -13 6c-28 -48 -51.833 -99.667 -71.5 -155s-35.834 -92.333 -48.501 -111
c-20.667 -27.333 -45 -19.333 -73 24s-44 76 -48 98c-20 67.333 -25.667 143.5 -17 228.5s29.334 159.5 62.001 223.5c19.333 38.667 46.333 80.834 81 126.501s71 84.834 109 117.501c37.333 32 73.166 53.333 107.499 64s61.166 0.333984 80.499 -30.999
c16.667 -28 22 -57.833 16 -89.5s-17.667 -62.5 -35 -92.5c-18 -30.667 -38.5 -59.334 -61.5 -86.001s-42.833 -48.667 -59.5 -66z" />
    <glyph glyph-name="afii10023" unicode="&#x401;" horiz-adv-x="1512" 
d="M465 -149c-20.667 -34 -30.8359 -39.0049 -30.5029 -15.0049s3.83301 40.333 10.5 49c51.333 71.333 104.333 126.666 159 165.999c9.33301 6.66699 14 16 14 28l7 138.5l9 171.5c2 60 4.5 122.833 7.5 188.5s5.5 130.834 7.5 195.501
c1.33301 64.667 2.5 127.334 3.5 188.001s1.16699 116.334 0.5 167.001c-1.33301 106 -6.33301 178.667 -15 218c-4.66699 16.667 8 33.667 38 51c12 8 25.5 15.667 40.5 23s28.5 15 40.5 23c11.333 8.66699 10.333 13 -3 13c-86 6 -161.833 1.5 -227.5 -13.5
s-113.5 -33.167 -143.5 -54.5c-91.333 -64.667 -149.333 -146 -174 -244c-22 -86.667 -14.667 -167.334 22 -242.001c30 -64 72.667 -100.667 128 -110c52.667 -10.667 105.334 6.33301 158.001 51c19.333 16 35 37 47 63s20 40 24 42c9.33301 5.33301 15.666 1 18.999 -13
s3.33301 -27 0 -39c-4 -12.667 -19.5 -32.167 -46.5 -58.5s-53.833 -48.5 -80.5 -66.5c-122 -91.333 -225.333 -127.666 -310 -108.999c-75.333 16.667 -121 70.667 -137 162c-16 90.667 2.33301 188.667 55 294c26 52 60.667 103 104 153s96 95 158 135
c118.667 77.333 259.334 124.333 422.001 141c88.667 8.66699 182.667 8 282 -2c105.333 -12 215.333 -34.667 330 -68c18.667 -5.33301 40.334 -4 65.001 4s36.334 7 35.001 -3c-5.33301 -30 -35.666 -70.833 -90.999 -122.5s-94 -72.5 -116 -62.5
c-71.333 41.333 -149 76.333 -233 105c-74.667 24 -149.334 41.333 -224.001 52c-8.66699 0.666992 -13.334 -4 -14.001 -14c-5.33301 -61.333 -8.33301 -153.666 -9 -276.999c-1.33301 -58 -2 -120 -2 -186s0.333008 -132.333 1 -199c0 -18 6.33301 -19.333 19 -4
c37.333 47.333 91 71.833 161 73.5s131.333 -2.5 184 -12.5c8 -2 18.167 -0.833008 30.5 3.5s21.833 5.83301 28.5 4.5c4 -1.33301 -8.33301 -24.833 -37 -70.5s-52.667 -73.5 -72 -83.5c-22.667 -10.667 -52 -9 -88 5c-33.333 12 -70.5 18.333 -111.5 19
s-74.833 -8 -101.5 -26c-8 -5.33301 -12 -13.333 -12 -24c0 -54 0.5 -106.667 1.5 -158s2.16699 -99 3.5 -143c2 -95.333 4 -166.666 6 -213.999c0.666992 -15.333 8.33398 -23.333 23.001 -24c32 -2 63.333 -7.33301 94 -16s61 -18.667 91 -30l86.5 -35
c28.333 -11.333 56.5 -21 84.5 -29c61.333 -16 114 -16.333 158 -1c54 20 102.333 67.333 145 142c16.667 28.667 28.5 38 35.5 28s9.5 -21 7.5 -33c-8.66699 -48 -69 -106 -181 -174c-51.333 -32 -108.333 -58 -171 -78s-124.667 -25 -186 -15
c-30 5.33301 -59.833 13 -89.5 23l-91.5 30c-32 10 -64.667 18.333 -98 25s-69 8.33398 -107 5.00098c-54.667 -3.33301 -102.667 -40.333 -144 -111zM711.998 1983c8.66699 13.333 19.666 14.667 32.999 4c59.333 -51.333 92.333 -84.833 99 -100.5
s2.33398 -31.834 -12.999 -48.501l-43 -44.5c-16.667 -17 -33 -39.167 -49 -66.5c-12.667 -21.333 -22.667 -22.666 -30 -3.99902c-22 52 -58.333 88.333 -109 109c-11.333 4 -13 13.333 -5 28s18 27 30 37l51 44c14 12 26 26 36 42zM1092 1998
c8.66699 13.333 19.666 14.667 32.999 4c59.333 -51.333 92.333 -84.833 99 -100.5s2.33398 -31.834 -12.999 -48.501l-43 -44.5c-16.667 -17 -33 -39.167 -49 -66.5c-12.667 -21.333 -22.667 -22.666 -30 -3.99902c-22 52 -58.333 88.333 -109 109
c-11.333 4 -13 13.333 -5 28s18 27 30 37l51 44c14 12 26 26 36 42z" />
    <glyph glyph-name="uni0406" unicode="&#x406;" horiz-adv-x="780" 
d="M227 1334c-44.667 -68 -64.332 -135.162 -58.999 -201.495s23.666 -119.833 54.999 -160.5c30.667 -41.333 68 -64 112 -68s83 22.667 117 80c10.667 18.667 18.167 38.167 22.5 58.5s7.83301 31.833 10.5 34.5c8 6.66699 15 3.5 21 -9.5s8.66699 -25.5 8 -37.5
c-0.666992 -12.667 -10.667 -32 -30 -58l-58 -75c-74 -92.667 -145 -141 -213 -145c-62 -4.66699 -109 24.666 -141 87.999c-30 58 -39 134 -27 228s54 185.667 126 275c71.333 88.667 140 150.334 206 185.001c59.333 32 115 42.667 167 32c46 -10 86 -36.333 120 -79
c30.667 -40 51.334 -89 62.001 -147c9.33301 -54 14.666 -147 15.999 -279c0.666992 -122.667 -2 -258.334 -8 -407.001c-6.66699 -156 -14.667 -288 -24 -396c-10 -124.667 -19.667 -206.334 -29 -245.001c-4 -13.333 -11.333 -24.333 -22 -33l-44 -34.5
c-18.667 -15 -35 -29.5 -49 -43.5c-9.33301 -8.66699 -16.333 -18.334 -21 -29.001s-7.33398 -16 -8.00098 -16c-8 -3.33301 -12.833 -2 -14.5 4s-2.16699 9.33301 -1.5 10c12 27.333 23.333 95 34 203c10 104.667 17.667 228.667 23 372c4.66699 134 6 274.333 4 421
c-3.33301 145.333 -10.666 262.666 -21.999 351.999c-17.333 124.667 -65 196.667 -143 216c-74 17.333 -137.333 -14.334 -190 -95.001z" />
    <glyph glyph-name="afii10056" unicode="&#x407;" horiz-adv-x="780" 
d="M227 1334c-44.667 -68 -64.332 -135.162 -58.999 -201.495s23.666 -119.833 54.999 -160.5c30.667 -41.333 68 -64 112 -68s83 22.667 117 80c10.667 18.667 18.167 38.167 22.5 58.5s7.83301 31.833 10.5 34.5c8 6.66699 15 3.5 21 -9.5s8.66699 -25.5 8 -37.5
c-0.666992 -12.667 -10.667 -32 -30 -58l-58 -75c-74 -92.667 -145 -141 -213 -145c-62 -4.66699 -109 24.666 -141 87.999c-30 58 -39 134 -27 228s54 185.667 126 275c71.333 88.667 140 150.334 206 185.001c59.333 32 115 42.667 167 32c46 -10 86 -36.333 120 -79
c30.667 -40 51.334 -89 62.001 -147c9.33301 -54 14.666 -147 15.999 -279c0.666992 -122.667 -2 -258.334 -8 -407.001c-6.66699 -156 -14.667 -288 -24 -396c-10 -124.667 -19.667 -206.334 -29 -245.001c-4 -13.333 -11.333 -24.333 -22 -33l-44 -34.5
c-18.667 -15 -35 -29.5 -49 -43.5c-9.33301 -8.66699 -16.333 -18.334 -21 -29.001s-7.33398 -16 -8.00098 -16c-8 -3.33301 -12.833 -2 -14.5 4s-2.16699 9.33301 -1.5 10c12 27.333 23.333 95 34 203c10 104.667 17.667 228.667 23 372c4.66699 134 6 274.333 4 421
c-3.33301 145.333 -10.666 262.666 -21.999 351.999c-17.333 124.667 -65 196.667 -143 216c-74 17.333 -137.333 -14.334 -190 -95.001zM191.002 1800c3.33301 34.667 18.6641 57.999 45.9971 69.999s51 34 71 66c16 23.333 24 22.333 24 -3
c0.666992 -84.667 15.334 -134.167 44.001 -148.5s47.334 -23.5 56.001 -27.5c19.333 -12 18.666 -22 -2.00098 -30c-1.33301 0 -15.166 -4.66699 -41.499 -14s-55.166 -14.666 -86.499 -15.999c-30.667 -2.66699 -58 2.5 -82 15.5s-33.667 42.167 -29 87.5zM549 1838
c4 34.667 19.667 58.001 47 70.001s51 34 71 66c16 24 24 23 24 -3c0.666992 -84.667 15.334 -134.167 44.001 -148.5s47.334 -23.5 56.001 -27.5c19.333 -12 18.666 -21.667 -2.00098 -29c-1.33301 0 -15.333 -4.83301 -42 -14.5s-55.334 -15.167 -86.001 -16.5
c-30.667 -2.66699 -58 2.66602 -82 15.999s-34 42.333 -30 87z" />
    <glyph glyph-name="afii10062" unicode="&#x40e;" horiz-adv-x="1393" 
d="M182 1139c-14 -46 -15.001 -87.999 -3.00098 -125.999c9.33301 -36 28 -63.333 56 -82c26.667 -19.333 57.334 -25.666 92.001 -18.999c36.667 6.66699 70.667 27 102 61c15.333 16.667 25.5 32.834 30.5 48.501s10.5 26.167 16.5 31.5
c21.333 18 30.666 11.333 27.999 -20c-1.33301 -8.66699 -9.66602 -25.334 -24.999 -50.001c-17.333 -25.333 -34 -46.666 -50 -63.999c-78 -84.667 -150 -136.667 -216 -156c-60 -18 -106.333 -8.33301 -139 29c-32.667 36 -45.334 88.333 -38.001 157
c7.33301 73.333 37 149 89 227c33.333 50 74.666 103.667 123.999 161s97.333 104.666 144 141.999c60.667 48 132 74.333 214 79s132 -48.333 150 -159c10 -66.667 11.5 -135.5 4.5 -206.5s-16.167 -142.5 -27.5 -214.5c-12 -72 -22.833 -143.167 -32.5 -213.5
s-11.834 -138.166 -6.50098 -203.499c7.33301 -102 55.5 -150.667 144.5 -146s173.167 106 252.5 304c5.33301 14.667 8 33 8 55c-1.33301 110 6 209.667 22 299c18.667 101.333 50.334 193.333 95.001 276c8.66699 16 38.334 44.833 89.001 86.5s67.667 49.5 51 23.5
c-76 -120.667 -113.5 -252.167 -112.5 -394.5s13.5 -286.166 37.5 -431.499c14 -87.333 29.667 -177.333 47 -270s26 -183.667 26 -273c-0.666992 -88 -14.834 -172.833 -42.501 -254.5s-79.5 -155.5 -155.5 -221.5c-71.333 -62 -140.666 -109.333 -207.999 -142
s-131 -54.334 -191 -65.001c-114.667 -19.333 -216.667 -4.33301 -306 45c-80.667 44.667 -133.667 107 -159 187s-11.333 153 42 219c18.667 23.333 56.5 50.166 113.5 80.499s93.833 52.5 110.5 66.5c30 26.667 48.833 30.334 56.5 11.001s-7.5 -36.333 -45.5 -51
c-55.333 -38 -85.666 -83.667 -90.999 -137c-4 -45.333 11.333 -95.666 46 -150.999c32.667 -52.667 79.5 -97.334 140.5 -134.001s123.5 -54 187.5 -52s123 28.5 177 79.5s91 137.167 111 258.5c18 114 19.5 235.5 4.5 364.5s-26.833 251.167 -35.5 366.5
c-0.666992 7.33301 -3 14.5 -7 21.5s-9.33301 5.5 -16 -4.5c-90 -142.667 -171.667 -254.334 -245 -335.001c-74.667 -80.667 -135.334 -124.334 -182.001 -131.001c-48.667 -7.33301 -80.667 20 -96 82s-22.333 135.667 -21 221c1.33301 84 7 168.5 17 253.5
s16 146.5 18 184.5c4 92 3.83301 177.333 -0.5 256s-20.5 140.334 -48.5 185.001c-20 31.333 -47 49.666 -81 54.999s-67.333 2 -100 -10c-39.333 -15.333 -74.333 -42 -105 -80c-14 -18 -26 -37 -36 -57c-11.333 -22.667 -19.666 -43.334 -24.999 -62.001zM839.999 1697
c-10.667 15.333 -17.333 25.5 -20 30.5s-1.33398 6.5 3.99902 4.5s15 -6.16699 29 -12.5s32.667 -13.166 56 -20.499c18.667 2 35.834 9.16699 51.501 21.5s30 27.833 43 46.5s25.167 39.167 36.5 61.5s22 44.333 32 66l29.5 61c9.66699 19 19.5 34.167 29.5 45.5
c17.333 19.333 37 31 59 35s48 1 78 -9c25.333 -7.33301 49.833 -18.833 73.5 -34.5s47.167 -35.167 70.5 -58.5c10 -10 12.333 -22 7 -36c-3.33301 -15.333 -11 -13.333 -23 6c-11.333 16.667 -23 26 -35 28s-25.333 -2 -40 -12c-20 -13.333 -41 -30.333 -63 -51l-67 -66
l-68 -69c-22.667 -22.667 -45 -42.334 -67 -59.001c-36 -20.667 -72 -29.5 -108 -26.5s-72 19.167 -108 48.5z" />
    <glyph glyph-name="afii10017" unicode="&#x410;" horiz-adv-x="1421" 
d="M509 557c0 9.33301 -4.66699 15.001 -14 17.001c-39.333 6 -81.5 7.16699 -126.5 3.5s-81.5 -20.834 -109.5 -51.501c-48 -52.667 -73 -130 -75 -232c-2.66699 -92.667 13.333 -177.667 48 -255c34.667 -79.333 74.667 -119.666 120 -120.999
c52.667 -0.666992 100.667 55 144 167c10 27.333 16.667 67.666 20 120.999s3.33301 110.333 0 171c-4.66699 73.333 -7 133.333 -7 180zM723 522.001c-10.667 1.33301 -15.9951 -4.00098 -15.9951 -16.001c-4 -88 -27.333 -181 -70 -279
c-37.333 -82.667 -87 -165.334 -149 -248.001c-91.333 -120 -176.666 -180.667 -255.999 -182c-69.333 0 -123.333 42 -162 126c-36.667 81.333 -48.334 174 -35.001 278c15.333 114.667 56.666 208.334 123.999 281.001l68.5 72c22.333 22.667 48.166 44 77.499 64
c59.333 41.333 123.666 69.333 192.999 84c8 0.666992 12.667 6.66699 14 18c10 212.667 41.833 381.834 95.5 507.501s120.834 212.834 201.501 261.501c55.333 33.333 106.666 55 153.999 65c62 12 117.333 4.33301 166 -23c49.333 -29.333 81.666 -39.666 96.999 -30.999
c22 12.667 37.833 13 47.5 1s3.5 -23.333 -18.5 -34c-42 -20.667 -77.333 -58.334 -106 -113.001c-28 -52.667 -49 -116.667 -63 -192c-14 -70.667 -22.333 -150.334 -25 -239.001c-2.66699 -85.333 0.333008 -170.666 9 -255.999c1.33301 -10.667 6 -16 14 -16
c59.333 -2 115 8.5 167 31.5s99 69.833 141 140.5c16.667 28.667 27.834 38.667 33.501 30s8.5 -18.667 8.5 -30c-1.33301 -28 -34 -66.667 -98 -116c-30.667 -23.333 -66.667 -46.5 -108 -69.5s-86 -42.833 -134 -59.5c-8 -3.33301 -11.333 -11 -10 -23
c12 -80.667 28 -152.334 48 -215.001c18.667 -65.333 41.334 -119.666 68.001 -162.999c27.333 -45.333 55.666 -73.333 84.999 -84c32 -12.667 64.667 -5.66699 98 21c20 16 32.833 24.333 38.5 25s1.5 -13 -12.5 -41c-16.667 -34 -52.834 -84.5 -108.501 -151.5
s-123.834 -79.5 -204.501 -37.5c-48.667 25.333 -85 96 -109 212c-24 106.667 -35.333 237.667 -34 393c0 12.667 -5 18 -15 16c-77.333 -16.667 -149 -19.334 -215 -8.00098zM940.005 668c10.667 -2 16.6689 3 18.002 15c6.66699 123.333 21 242.333 43 357
c21.333 114.667 48.666 210 81.999 286c4.66699 8.66699 5 17 1 25c-29.333 48.667 -75.666 81.334 -138.999 98.001c-60 16 -104.333 12.667 -133 -10c-68 -58 -104.667 -141.667 -110 -251c-2.66699 -48 -2.33398 -113.333 0.999023 -196
c1.33301 -38 2.66602 -79.333 3.99902 -124s2.33301 -93 3 -145c0 -10.667 5.33301 -16.334 16 -17.001c36 -4.66699 72 -10.667 108 -18s71.333 -14 106 -20z" />
    <glyph glyph-name="afii10018" unicode="&#x411;" horiz-adv-x="1539" 
d="M834 1405c-7.33301 -80 -10.9961 -160.669 -10.9961 -242.002v-260c0 -11.333 4 -17 12 -17c92.667 0 180.667 -13.833 264 -41.5s156.666 -71.834 219.999 -132.501c37.333 -36 67.666 -76.167 90.999 -120.5s41.333 -90.833 54 -139.5c10 -42 15 -83 15 -123
c0 -54 -9 -106.333 -27 -157c-11.333 -31.333 -29.5 -64 -54.5 -98s-53.167 -65 -84.5 -93s-63.833 -51 -97.5 -69s-64.167 -27 -91.5 -27c-24 0 -46.167 4.33301 -66.5 13s-39 19.834 -56 33.501s-32.5 29 -46.5 46s-26.667 34.167 -38 51.5
c-10.667 16 -22.834 31 -36.501 45s-26.167 21 -37.5 21c-5.33301 0 -8 -5 -8 -15c0.666992 -24 1.5 -43.333 2.5 -58s1.83301 -26 2.5 -34s1.33398 -13.333 2.00098 -16l1 -4v1c0 -8.66699 -0.5 -14.167 -1.5 -16.5s-4.66699 -4 -11 -5s-16.333 -2.5 -30 -4.5
s-32.834 -7 -57.501 -15c-16 -5.33301 -29 -10.666 -39 -15.999s-17.667 -11 -23 -17c-13.333 -15.333 -23.333 -24.666 -30 -27.999s-11.334 -5.33301 -14.001 -6c-2.66699 0 -4 2 -4 6c0 11.333 2.16699 38 6.5 80s8.83301 94.333 13.5 157
c4.66699 64 8.66699 130.333 12 199l10 215c1.33301 68.667 2.83301 137.334 4.5 206.001s2.5 135.667 2.5 201c0 79.333 -1.66699 153.333 -5 222s-8.66602 126 -15.999 172c0 1.33301 -0.166992 2.33301 -0.5 3s-0.5 1.66699 -0.5 3c0 8.66699 3.16699 17.334 9.5 26.001
s14.333 16.834 24 24.501s20.5 15.167 32.5 22.5l35 21c-7.33301 0 -14.5 0.166992 -21.5 0.5s-14.167 0.5 -21.5 0.5c-90.667 0 -167.667 -11.5 -231 -34.5s-115 -53 -155 -90s-69 -78.833 -87 -125.5s-27 -93.667 -27 -141c0 -32.667 4.83301 -65 14.5 -97
s23 -60.667 40 -86s37.333 -45.833 61 -61.5s49.5 -23.5 77.5 -23.5c14.667 0 30.334 2.16699 47.001 6.5s33 11.333 49 21s31.167 21.834 45.5 36.501s26.166 32 35.499 52c9.33301 19.333 16 31.666 20 36.999s7.66699 8 11 8c4.66699 0 8.33398 -4 11.001 -12
s4 -16.333 4 -25c0 -10 -3.16699 -20.333 -9.5 -31s-19.5 -25.334 -39.5 -44.001c-66 -60.667 -128.833 -105.834 -188.5 -135.501s-112.5 -44.5 -158.5 -44.5c-59.333 0 -105.166 20 -137.499 60s-48.5 96 -48.5 168c0 67.333 17.333 138.666 52 213.999
c53.333 114 135 209.667 245 287c54.667 38.667 117.667 71.667 189 99s151 46.333 239 57c23.333 2.66699 47 4.5 71 5.5s48.333 1.83301 73 2.5c23.333 0 47.166 -0.666992 71.499 -2s49.166 -3 74.499 -5c55.333 -5.33301 111.333 -14 168 -26s114.667 -26.333 174 -43
c7.33301 -2.66699 15.666 -4 24.999 -4c10 0 21.833 2.16699 35.5 6.5s23.5 6.5 29.5 6.5s9 -2 9 -6c0 -7.33301 -3.66699 -17.166 -11 -29.499s-16.833 -25.666 -28.5 -39.999s-24.834 -28.833 -39.501 -43.5s-29.5 -27.834 -44.5 -39.501s-29.167 -21.334 -42.5 -29.001
s-24.666 -11.5 -33.999 -11.5c-5.33301 0 -10 1 -14 3c-79.333 42 -158.333 76 -237 102c-36.667 12 -73.5 21 -110.5 27s-74.5 11.333 -112.5 16zM848.004 194.998c30 28 61 42 93 42c23.333 0 44.833 -6.66699 64.5 -20s38.834 -29.5 57.501 -48.5l57 -59
c19.333 -20.333 40.666 -37.5 63.999 -51.5l39.5 -22.5c15 -8.33301 28.5 -12.5 40.5 -12.5c16.667 0 30 5 40 15s17.667 22 23 36s8.83301 28.833 10.5 44.5s2.5 29.167 2.5 40.5c0 44.667 -7 88.5 -21 131.5s-33 83.833 -57 122.5s-52.167 74.5 -84.5 107.5
s-67 62.333 -104 88s-75.167 46.834 -114.5 63.501s-78.333 28 -117 34c-1.33301 0 -2.5 0.166992 -3.5 0.5s-2.16699 0.5 -3.5 0.5c-7.33301 0 -11 -6.66699 -11 -20v-83c0 -33.333 0.166992 -68.5 0.5 -105.5l1 -110.5c0.333008 -36.667 1 -69.834 2 -99.501
s2.33301 -53.667 4 -72s3.5 -27.5 5.5 -27.5s5.66699 2 11 6z" />
    <glyph glyph-name="afii10019" unicode="&#x412;" horiz-adv-x="1500" 
d="M1031 1541c1.33301 0.666992 2.33105 1 2.99805 1c1.33301 -0.666992 2.33301 -1 3 -1c107.333 -28 186.833 -67.667 238.5 -119s76.5 -108 74.5 -170s-31.167 -125.5 -87.5 -190.5s-138.833 -124.167 -247.5 -177.5c-18.667 -9.33301 -17.334 -15.666 3.99902 -18.999
c118 -23.333 218 -74.333 300 -153c73.333 -74 121.666 -160.667 144.999 -260c22.667 -98 18.667 -191.333 -12 -280c-28 -80.667 -84.667 -153 -170 -217c-68.667 -51.333 -125.334 -74.5 -170.001 -69.5s-82.5 21.5 -113.5 49.5s-58 59.333 -81 94
s-46.5 56.334 -70.5 65.001c-8 2.66699 -12 -2 -12 -14c2.66699 -68.667 5.33398 -104.667 8.00098 -108c0.666992 -2 0.5 -7.16699 -0.5 -15.5s-11.833 -12.833 -32.5 -13.5c-13.333 0 -35.666 -5 -66.999 -15s-52 -21 -62 -33c-21.333 -22 -34.666 -33 -39.999 -33
c-8 -2 -10.333 2 -7 12c2 16 4.66699 44 8 84s7 88.667 11 146c8.66699 127.333 16 265.333 22 414c2 76 3.83301 152.667 5.5 230s2.16699 151.666 1.5 222.999c-0.666992 70 -2.66699 135.167 -6 195.5s-8.33301 111.166 -15 152.499c-3.33301 20 7.66699 37 33 51l76 44
c14 7.33301 12.667 12 -4 14c-58.667 2 -106 0.666992 -142 -4c-92 -11.333 -181.167 -39.5 -267.5 -84.5s-144.5 -116.5 -174.5 -214.5c-20.667 -66.667 -14 -132 20 -196c31.333 -58.667 76.333 -94 135 -106c64 -13.333 127.667 6.33398 191 59.001
c19.333 16 35.166 37 47.499 63s20.5 40.333 24.5 43c8.66699 5.33301 15.167 3.66602 19.5 -5.00098s4.83301 -19 1.5 -31c-3.33301 -11.333 -15.5 -27.666 -36.5 -48.999l-45.5 -47c-81.333 -87.333 -156.666 -147.5 -225.999 -180.5s-124 -40.833 -164 -23.5
c-46 19.333 -78.667 55.666 -98 108.999c-19.333 52.667 -23.333 112.667 -12 180c10 70 36 140 78 210c46.667 76 105.667 141.333 177 196c42.667 32.667 90 64.5 142 95.5s109 56.5 171 76.5c60.667 20 126.334 32.833 197.001 38.5s146.334 0.166992 227.001 -16.5z
M849.998 1421c-10 0.666992 -15.334 -4.66992 -16.001 -16.0029c-4 -51.333 -6.83301 -121.666 -8.5 -210.999s-2.5 -186.333 -2.5 -291c0 -13.333 6 -18.666 18 -15.999c102 24.667 181.333 64.667 238 120c51.333 50.667 76.666 106.334 75.999 167.001
c-1.33301 60.667 -27.666 113 -78.999 157c-55.333 47.333 -130.666 77.333 -225.999 90zM847.997 194.996c12 11.333 24.3291 20.334 36.9961 27.001c36 19.333 72.667 19.666 110 0.999023c16 -8.66699 31.667 -20 47 -34l47 -44l45.5 -47.5
c15.667 -15.667 32.167 -28.834 49.5 -39.501c16.667 -11.333 35.667 -21.333 57 -30s41 -5.66699 59 9c22.667 18.667 35.334 43.834 38.001 75.501s2.66699 62.834 0 93.501c-7.33301 59.333 -31.666 120.666 -72.999 183.999c-42 62 -98.667 120.333 -170 175
c-73.333 55.333 -157.666 102.333 -252.999 141c-12 4 -18 -2.33301 -18 -19c0 -89.333 0.666992 -176 2 -260s3 -159 5 -225c0.666992 -14 6.33398 -16.333 17.001 -7z" />
    <glyph glyph-name="afii10020" unicode="&#x413;" horiz-adv-x="1355" 
d="M1111 1521c-26.667 6 -56.4922 10.3281 -89.4922 12.9951s-67.5 4 -103.5 4c-48 0 -97.333 -2.16699 -148 -6.5s-98.667 -10.5 -144 -18.5s-86.5 -17.667 -123.5 -29s-65.5 -23.666 -85.5 -36.999c-58 -38.667 -102.833 -80 -134.5 -124s-47.5 -95 -47.5 -153
c0 -29.333 5 -58.333 15 -87s23.833 -54.334 41.5 -77.001s38.834 -41 63.501 -55s51.667 -21 81 -21c14.667 0 31 2.16699 49 6.5s35.5 10.666 52.5 18.999s32.833 19 47.5 32s26.667 28.5 36 46.5c6 10.667 10.833 18.667 14.5 24s6.66699 9.16602 9 11.499
s3.83301 3.5 4.5 3.5h4c4 0 7.66699 -3.5 11 -10.5s5 -14.167 5 -21.5s-3.83301 -15.833 -11.5 -25.5s-17.834 -20.334 -30.501 -32.001s-27 -23.5 -43 -35.5s-32.333 -23.333 -49 -34c-55.333 -34 -107.833 -60.5 -157.5 -79.5s-95.167 -28.5 -136.5 -28.5
c-60.667 0 -107.334 18.333 -140.001 55s-49 86.334 -49 149.001c0 59.333 18.333 122.666 55 189.999c28 52 64.167 100.667 108.5 146s96.5 84.333 156.5 117c45.333 26 94 47.667 146 65s106 31.166 162 41.499s113.5 17.5 172.5 21.5s118.5 6 178.5 6
c70.667 0 141 -2.16699 211 -6.5s137.833 -9.33301 203.5 -15s128.167 -11.334 187.5 -17.001s113.666 -9.5 162.999 -11.5c7.33301 -2.66699 16 -4 26 -4c5.33301 0 11.333 0.666992 18 2l20 4c6.66699 1.33301 12.667 2.66602 18 3.99902s9.66602 2 12.999 2
c6 0 9 -1.66699 9 -5c0 -6 -4.33301 -15 -13 -27s-19.834 -25 -33.501 -39s-28.834 -28.5 -45.501 -43.5s-33 -28.5 -49 -40.5s-30.833 -21.833 -44.5 -29.5s-23.834 -11.5 -30.501 -11.5c-2 0 -5 0.666992 -9 2c-83.333 37.333 -165.666 67.333 -246.999 90
c-26.667 8 -51.834 16.167 -75.501 24.5s-47.5 15.833 -71.5 22.5s-49.333 12 -76 16c-12.667 2 -25.667 3.66699 -39 5c-27.333 -42 -48 -85 -62 -129c-18 -55.333 -27 -113.333 -27 -174s5.16699 -121.167 15.5 -181.5l31.5 -183.5l21.5 -113
c7 -37.333 15.167 -76 24.5 -116l9.5 -47c2.33301 -11.333 4 -21.666 5 -30.999s1.66699 -19.666 2 -30.999s0.5 -26.333 0.5 -45c0 -37.333 -3.83301 -73.666 -11.5 -108.999s-17.834 -70.333 -30.501 -105c-24.667 -69.333 -74.334 -132.333 -149.001 -189
c-69.333 -52 -137.833 -92 -205.5 -120s-130.5 -46.333 -188.5 -55c-16 -2.66699 -31.667 -4.5 -47 -5.5s-30.333 -1.5 -45 -1.5c-49.333 0 -96.333 7 -141 21s-84 33 -118 57s-61 52.167 -81 84.5s-30 66.833 -30 103.5c0 18 2.16699 35 6.5 51s12.5 31.667 24.5 47
s28.333 30.666 49 45.999s47.667 31.333 81 48c32 14.667 56.5 26.834 73.5 36.501s29.833 17.5 38.5 23.5s15.167 10.167 19.5 12.5s9.5 3.5 15.5 3.5c4 0 7.83301 -1.66699 11.5 -5s5.5 -7.66602 5.5 -12.999c0 -13.333 -15 -25.333 -45 -36
c-28.667 -17.333 -50.834 -36.833 -66.501 -58.5s-23.5 -44.834 -23.5 -69.501c0 -23.333 8.5 -50.666 25.5 -81.999s40.833 -61.333 71.5 -90s67.334 -53 110.001 -73s89.334 -30 140.001 -30c38 0 75.333 7.16699 112 21.5s69.5 38.666 98.5 72.999s52.5 80.333 70.5 138
s27 129.834 27 216.501c0 8 -0.666992 21.333 -2 40s-3.33301 40.334 -6 65.001s-5.33398 50.834 -8.00098 78.501l-8 79.5l-7.5 69.5c-2.33301 21 -3.83301 37.167 -4.5 48.5c0 0.666992 0.166992 1.83398 0.5 3.50098s0.5 4.16699 0.5 7.5c0 9.33301 -0.5 22.5 -1.5 39.5
s-2.16699 34.5 -3.5 52.5l-3.5 49c-1 14.667 -1.5 24.334 -1.5 29.001c0 47.333 1.5 92 4.5 134s8.16699 81.667 15.5 119c9.33301 42.667 21.5 83.334 36.5 122.001s33.167 76 54.5 112c0.666992 0.666992 4 3.83398 10 9.50098s13.667 12.5 23 20.5l30 25
c3.33301 2.66699 6.33301 5.33398 9 8.00098h-7h-5z" />
    <glyph glyph-name="afii10021" unicode="&#x414;" horiz-adv-x="1547" 
d="M1098 -85c-26.667 -23.333 -55.9961 -36.1611 -87.9961 -38.4941s-64.667 24.5 -98 80.5c-20 34 -32.167 61.5 -36.5 82.5s-16.5 21.833 -36.5 2.5c-18 -16.667 -20.333 -40.667 -7 -72c14.667 -30.667 4.66699 -47 -30 -49c-24 -0.666992 -49 -6.66699 -75 -18
c-26.667 -11.333 -51.667 -26.333 -75 -45c-20.667 -15.333 -29.667 -23 -27 -23c-5.33301 -0.666992 -8 3.66602 -8 12.999c0.666992 16 2.66699 45 6 87l12 151l13.5 198.5c5 73 9.5 148.5 13.5 226.5c3.33301 77.333 6 155.333 8 234s2.33301 153.667 1 225
c-2 70.667 -6 135.834 -12 195.501s-14.667 109.5 -26 149.5c-6 19.333 8.16699 35.666 42.5 48.999s65.833 28.333 94.5 45c16.667 9.33301 15.334 15.666 -3.99902 18.999c-50.667 6.66699 -99.334 9 -146.001 7c-44 -2 -85 -8 -123 -18
c-36.667 -10 -70.334 -23.667 -101.001 -41c-27.333 -14.667 -54.333 -33.667 -81 -57c-65.333 -60 -106.5 -130.833 -123.5 -212.5s-15.5 -153.167 4.5 -214.5c20 -62 56.333 -103.167 109 -123.5s116.667 1.5 192 65.5c19.333 16 34.666 37.5 45.999 64.5
s19 41.833 23 44.5c8.66699 5.33301 14.667 1 18 -13s3.66602 -27 0.999023 -39c-5.33301 -18.667 -19.333 -40 -42 -64s-41.334 -42.667 -56.001 -56c-120.667 -105.333 -222.334 -159 -305.001 -161c-72.667 -2 -121 35 -145 111c-24.667 72 -20.667 160.333 12 265
c32.667 110 88.667 209.333 168 298c78 88 176 157 294 207c112.667 47.333 229.334 69.666 350.001 66.999c124.667 -4.66699 236.667 -35.334 336 -92.001c108 -62 191.667 -150.667 251 -266c66 -128.667 90 -278.334 72 -449.001c-17.333 -158 -65.333 -314 -144 -468
c-78 -150.667 -170.667 -273.334 -278 -368.001zM848.004 1413c-14.667 2.66699 -22.3311 -3.99902 -22.998 -19.999c-7.33301 -77.333 -13 -192.333 -17 -345c-2 -72 -3.33301 -148.333 -4 -229s-0.666992 -160 0 -238c0.666992 -80.667 2.16699 -158 4.5 -232
s5.16602 -139.667 8.49902 -197c1.33301 -23.333 10 -23 26 1c32.667 49.333 59 80.333 79 93c21.333 13.333 39.166 3.33301 53.499 -30l45.5 -107c16 -38 35.167 -67.667 57.5 -89s52.5 -13.333 90.5 24c89.333 88.667 150.333 206 183 352
c30 137.333 30.667 278.666 2 423.999c-30.667 146.667 -88 272.667 -172 378c-90.667 112 -202 183.667 -334 215z" />
    </font>
</defs>
</svg>
